<?xml version="1.0" standalone="no"?>
<!DOCTYPE svg PUBLIC "-//W3C//DTD SVG 1.1//EN" "http://www.w3.org/Graphics/SVG/1.1/DTD/svg11.dtd" >
<svg xmlns="http://www.w3.org/2000/svg" xmlns:xlink="http://www.w3.org/1999/xlink" version="1.1">
<metadata>
Created by FontForge 20170731 at Wed Sep  7 04:24:40 2022
 By Aleksey,,,
Copyright (c) 2016 by Radomir Tinkov. All rights reserved.
</metadata>
<defs>
<font id="SVN-GilroyBold" horiz-adv-x="1282" >
  <font-face 
    font-family="SVN-Gilroy"
    font-weight="700"
    font-stretch="normal"
    units-per-em="2048"
    panose-1="0 0 8 0 0 0 0 0 0 0"
    ascent="1638"
    descent="-410"
    x-height="1024"
    cap-height="1434"
    bbox="-850 -539 2241 2214"
    underline-thickness="102"
    underline-position="-307"
    unicode-range="U+0020-FB02"
  />
<missing-glyph horiz-adv-x="1024" 
d="M190 1638h650v-2048h-650v2048zM682 1434v67h-338v-67h133v-76h-135v-68h340v68h-135v76h135zM547 1094v143h-205v-213h340v70h-135zM410 1167h67v-73h-67v73zM682 901v68h-340v-68h135v-76h-135v-67h205v143h135zM682 641v205h-68v-135h-272v-70h340zM682 365v231h-205
v-115h70v47h67v-96h-204v164h-68v-231h340zM682 10v232h-340v-232h340zM410 174h204v-96h-204v96zM682 -104v67h-340v-67h143l-143 -97v-67h340v67h-209l143 97h66z" />
    <glyph glyph-name="fi" unicode="fi" horiz-adv-x="1140" 
d="M455 1024h565v-1024h-264v770h-301v-770h-265v770h-147v254h147v10q0 428 482 428q102 0 239 -28v-242q-147 16 -239 16q-114 0 -165.5 -39t-51.5 -135v-10z" />
    <glyph glyph-name="fl" unicode="fl" horiz-adv-x="1140" 
d="M672 1462q136 0 348 -43v-1419h-264v1229q-18 2 -84 2q-217 0 -217 -197v-10h170v-254h-170v-770h-265v770h-147v254h147v10q0 428 482 428z" />
    <glyph glyph-name="f_f" unicode="ff" horiz-adv-x="1239" 
d="M1239 1483v-254q-217 15 -217 -174v-31h217v-254h-217v-770h-264v770h-303v-770h-265v770h-147v254h147v10q0 219 122.5 330t359.5 98v-254q-217 15 -217 -174v-10h303v31q0 219 122.5 330t358.5 98z" />
    <glyph glyph-name="f_f_i" unicode="ffi" horiz-adv-x="1708" 
d="M1022 1024h565v-1024h-264v770h-301v-770h-264v770h-303v-770h-265v770h-147v254h147v10q0 219 122.5 330t359.5 98v-254q-217 15 -217 -174v-10h303v31q0 428 481 428q100 0 242 -29v-242q-160 17 -242 17q-112 0 -164.5 -39.5t-52.5 -134.5v-31z" />
    <glyph glyph-name="f_f_l" unicode="ffl" horiz-adv-x="1708" 
d="M1239 1483q139 0 348 -43v-1440h-264v1249q-18 2 -84 2q-217 0 -217 -196v-31h172v-254h-172v-770h-264v770h-303v-770h-265v770h-147v254h147v10q0 219 122.5 330t359.5 98v-254q-217 15 -217 -174v-10h303v31q0 428 481 428z" />
    <glyph glyph-name=".notdef" horiz-adv-x="1024" 
d="M190 1638h650v-2048h-650v2048zM682 1434v67h-338v-67h133v-76h-135v-68h340v68h-135v76h135zM547 1094v143h-205v-213h340v70h-135zM410 1167h67v-73h-67v73zM682 901v68h-340v-68h135v-76h-135v-67h205v143h135zM682 641v205h-68v-135h-272v-70h340zM682 365v231h-205
v-115h70v47h67v-96h-204v164h-68v-231h340zM682 10v232h-340v-232h340zM410 174h204v-96h-204v96zM682 -104v67h-340v-67h143l-143 -97v-67h340v67h-209l143 97h66z" />
    <glyph glyph-name=".null" horiz-adv-x="0" 
 />
    <glyph glyph-name="nonmarkingreturn" horiz-adv-x="682" 
 />
    <glyph glyph-name="space" unicode=" " horiz-adv-x="512" 
 />
    <glyph glyph-name="exclam" unicode="!" horiz-adv-x="548" 
d="M379 481h-209l-55 543v410h317v-410zM397 25q-51 -51 -122.5 -51t-122.5 51t-51 122.5t51 122.5t122.5 51t122.5 -51t51 -122.5t-51 -122.5z" />
    <glyph glyph-name="quotedbl" unicode="&#x22;" horiz-adv-x="774" 
d="M303 963h-180l-35 471h250zM651 963h-180l-35 471h250z" />
    <glyph glyph-name="numbersign" unicode="#" horiz-adv-x="1261" 
d="M1214 1010l-32 -201h-221l-31 -184h223l-33 -199h-225l-53 -324h-209l53 324h-209l-53 -324h-207l53 324h-223l33 199h225l31 184h-227l32 201h228l53 321h207l-54 -321h209l54 321h209l-54 -321h221zM512 625h209l31 184h-209z" />
    <glyph glyph-name="dollar" unicode="$" horiz-adv-x="1124" 
d="M1073 401q0 -177 -113 -289.5t-301 -136.5v-180h-137v178q-171 12 -294 96.5t-177 227.5l244 141q65 -165 227 -186v354h-2l-4 2q-73 27 -117.5 48t-105.5 59q-85 54 -128.5 132.5t-49.5 199.5q0 181 116 288q123 110 291 125v178h137v-182q280 -35 394 -289l-238 -139
q-50 123 -156 150v-342q199 -80 256 -121q158 -115 158 -314zM395 1044q0 -44 29 -78t98 -69v287q-61 -12 -94 -49t-33 -91zM659 551v-295q132 27 132 143q0 50 -31.5 85.5t-100.5 66.5z" />
    <glyph glyph-name="percent" unicode="%" horiz-adv-x="1566" 
d="M684 883q-102 -97 -246 -97q-146 0 -248 99q-98 98 -98 239q0 142 98 240q101 98 248 98q148 0 246 -98q98 -94 98 -240q0 -143 -98 -241zM360 145l-122 72l933 1038l125 -69zM344 1030q37 -37 92 -37t92 37q37 38 37 94t-37 93t-92 37t-92 -37q-35 -37 -35 -93t35 -94z
M1376 74q-99 -99 -246 -99q-146 0 -245 99t-99 239q0 141 99 240q98 98 245 98q148 0 246 -98q99 -99 99 -240q0 -140 -99 -239zM1257 313q0 56 -36 93.5t-91 37.5t-90.5 -37.5t-35.5 -93.5t35.5 -93.5t90.5 -37.5t91 38t36 93z" />
    <glyph glyph-name="ampersand" unicode="&#x26;" horiz-adv-x="1378" 
d="M1151 285l184 -203l-225 -129l-131 141q-167 -123 -385 -123q-221 0 -363 115q-139 118 -139 311q0 129 62 237t178 175q-70 110 -70 240q0 182 127 297q125 116 322 116q156 0 276.5 -80t179.5 -227l-241 -139q-58 172 -211 172q-74 0 -122 -43t-48 -109
q0 -55 26 -101.5t91 -115.5l307 -336q44 89 69 238l238 -135q-41 -168 -125 -301zM612 231q109 0 191 52l-309 335q-5 5 -5 7q-112 -69 -112 -199q0 -90 61 -142.5t174 -52.5z" />
    <glyph glyph-name="quotesingle" unicode="'" horiz-adv-x="425" 
d="M303 963h-180l-35 471h250z" />
    <glyph glyph-name="parenleft" unicode="(" horiz-adv-x="628" 
d="M598 -205h-264q-226 450 -226 921.5t226 921.5h264q-226 -450 -226 -921.5t226 -921.5z" />
    <glyph glyph-name="parenright" unicode=")" horiz-adv-x="628" 
d="M295 -205h-264q226 450 226 921.5t-226 921.5h264q226 -450 226 -921.5t-226 -921.5z" />
    <glyph glyph-name="asterisk" unicode="*" horiz-adv-x="815" 
d="M522 1231l187 16v-164l-187 15l113 -144l-139 -86l-88 172l-89 -172l-137 86l111 144l-184 -15v164l184 -16l-111 145l137 86l89 -172l88 172l139 -86z" />
    <glyph glyph-name="plus" unicode="+" horiz-adv-x="1136" 
d="M692 842h338v-248h-338v-338h-248v338h-335v248h335v336h248v-336z" />
    <glyph glyph-name="comma" unicode="," horiz-adv-x="569" 
d="M182 283h287l-154 -570h-215z" />
    <glyph glyph-name="hyphen" unicode="-" horiz-adv-x="1034" 
d="M901 492h-768v253h768v-253z" />
    <glyph glyph-name="period" unicode="." horiz-adv-x="548" 
d="M397 25q-51 -51 -122.5 -51t-122.5 51t-51 122.5t51 122.5t122.5 51t122.5 -51t51 -122.5t-51 -122.5z" />
    <glyph glyph-name="slash" unicode="/" horiz-adv-x="1071" 
d="M1004 1638l-820 -1843h-116l819 1843h117z" />
    <glyph glyph-name="zero" unicode="0" horiz-adv-x="1290" 
d="M645 -29q-269 0 -422 203q-151 207 -151 543t151 540q153 205 422 205q272 0 422 -205q152 -205 152 -540t-152 -543q-150 -203 -422 -203zM938 717q0 229 -75.5 350t-217.5 121t-216.5 -121t-74.5 -350t74.5 -349t216.5 -120t217.5 121t75.5 348z" />
    <glyph glyph-name="one" unicode="1" horiz-adv-x="792" 
d="M23 1300l376 134h246v-1434h-283v1135l-270 -76z" />
    <glyph glyph-name="two" unicode="2" horiz-adv-x="1087" 
d="M1014 0h-959v211l490 504q164 173 164 286q0 84 -52.5 135.5t-134.5 51.5q-163 0 -239 -168l-238 139q66 145 192 224t281 79q196 0 334 -123q139 -121 139 -327q0 -224 -235 -459l-281 -281h539v-272z" />
    <glyph glyph-name="three" unicode="3" horiz-adv-x="1116" 
d="M991 1200l-268 -348q149 -44 238.5 -152.5t89.5 -257.5q0 -220 -150 -346q-146 -125 -362 -125q-171 0 -302 78.5t-190 224.5l242 140q52 -166 250 -166q108 0 168.5 51.5t60.5 142.5q0 89 -61 142t-168 53h-62l-108 164l282 368h-561v265h901v-234z" />
    <glyph glyph-name="four" unicode="4" horiz-adv-x="1187" 
d="M1006 506h153v-262h-153v-244h-285v244h-678v262l477 928h303l-475 -928h373v340h285v-340z" />
    <glyph glyph-name="five" unicode="5" horiz-adv-x="1122" 
d="M426 911h147q209 0 349 -125q141 -123 141 -344q0 -220 -150 -346q-146 -125 -362 -125q-177 0 -309 79t-191 229l242 141q52 -172 258 -172q108 0 168.5 51.5t60.5 142.5q0 88 -59.5 141.5t-161.5 53.5h-434l57 797h813v-265h-551z" />
    <glyph glyph-name="six" unicode="6" horiz-adv-x="1132" 
d="M901 1434l-317 -465q222 -6 362 -146q139 -139 139 -352q0 -218 -145 -360q-146 -140 -375 -140t-375 140q-143 137 -143 360q0 161 84 289l447 674h323zM805 471q0 103 -68 167t-172 64t-170.5 -63.5t-66.5 -167.5q0 -105 66.5 -169t170.5 -64t172 64.5t68 168.5z" />
    <glyph glyph-name="seven" unicode="7" horiz-adv-x="1003" 
d="M27 1163v271h925v-240l-485 -1194h-299l471 1163h-612z" />
    <glyph glyph-name="eight" unicode="8" horiz-adv-x="1163" 
d="M897 745q199 -120 199 -346q0 -198 -138 -313t-376 -115q-239 0 -376.5 115t-137.5 313q0 226 196 346q-149 107 -149 297q0 198 133 310q134 110 334 110t331 -110q134 -113 134 -310q0 -189 -150 -297zM715 1151q-51 45 -133 45t-133 -45q-52 -46 -52 -123
q0 -79 52 -125q51 -45 133 -45t133 45t51 125q0 78 -51 123zM815 436q0 91 -64 144t-169 53q-106 0 -170 -53t-64 -144q0 -92 64 -145t170 -53t169.5 52.5t63.5 145.5z" />
    <glyph glyph-name="nine" unicode="9" horiz-adv-x="1132" 
d="M1085 965q0 -164 -86 -291h2l-446 -674h-324l320 467q-224 3 -365 141q-139 139 -139 357q0 221 143 358q145 139 375 139t375 -139t145 -358zM328 965q0 -104 67.5 -169t169.5 -65q105 0 172.5 64.5t67.5 169.5q0 104 -67 167.5t-173 63.5q-101 0 -169 -64t-68 -167z
" />
    <glyph glyph-name="colon" unicode=":" horiz-adv-x="548" 
d="M397 758q-51 -51 -122.5 -51t-122.5 51t-51 123t51 123t122.5 51t122.5 -51t51 -123t-51 -123zM397 25q-51 -51 -122.5 -51t-122.5 51t-51 122.5t51 122.5t122.5 51t122.5 -51t51 -122.5t-51 -122.5z" />
    <glyph glyph-name="semicolon" unicode=";" horiz-adv-x="571" 
d="M420 758q-51 -51 -123 -51t-123 51t-51 123t51 123t123 51t123 -51t51 -123t-51 -123zM182 283h287l-154 -570h-215z" />
    <glyph glyph-name="less" unicode="&#x3c;" horiz-adv-x="1081" 
d="M92 836l897 389v-275l-596 -233l596 -232v-274l-897 389v236z" />
    <glyph glyph-name="equal" unicode="=" horiz-adv-x="1075" 
d="M983 805h-891v248h891v-248zM983 381h-891v248h891v-248z" />
    <glyph glyph-name="greater" unicode="&#x3e;" horiz-adv-x="1081" 
d="M92 950v275l897 -389v-236l-897 -389v274l596 232z" />
    <glyph glyph-name="question" unicode="?" horiz-adv-x="1132" 
d="M682 481h-283q0 84 50.5 165.5t121.5 137.5q172 139 172 254q0 72 -49 111t-137 39q-173 0 -244 -182l-241 139q61 150 194 233.5t301 83.5q187 0 322 -108q137 -107 137 -295q0 -72 -25.5 -136.5t-63.5 -109.5t-83 -90.5t-83 -80.5t-63.5 -77.5t-25.5 -83.5zM664 25
q-51 -51 -123 -51t-123 51t-51 122.5t51 122.5t123 51t123 -51t51 -122.5t-51 -122.5z" />
    <glyph glyph-name="at" unicode="@" horiz-adv-x="1595" 
d="M813 1253q219 0 385 -106q163 -101 247.5 -258t84.5 -336q0 -209 -90.5 -326.5t-235.5 -117.5q-206 0 -270 161q-76 -94 -203 -94q-132 0 -217 94q-84 96 -84 242q0 144 84 240q87 96 217 96q111 0 187 -76v53h219v-473q0 -149 118 -149q90 0 143.5 90.5t53.5 259.5
q0 267 -184 448q-186 183 -455 183q-282 0 -477 -195q-193 -193 -193 -477q0 -289 201 -481q200 -191 506 -191q198 0 332 51v-73q-139 -47 -332 -47q-335 0 -559 211q-223 207 -223 530q0 308 213 524q214 217 532 217zM786 373q57 0 93 39t36 100q0 63 -36 101t-93 38
q-60 0 -96.5 -38t-36.5 -101q0 -62 36.5 -100.5t96.5 -38.5z" />
    <glyph glyph-name="A" unicode="A" horiz-adv-x="1368" 
d="M1362 0h-307l-86 258h-572l-86 -258h-305l502 1434h350zM684 1108l-197 -586h394z" />
    <glyph glyph-name="B" unicode="B" horiz-adv-x="1239" 
d="M999 743q189 -109 189 -327q0 -182 -129 -299t-318 -117h-608v1434h565q183 0 310 -115t127 -289q0 -178 -136 -287zM698 1169h-282v-315h282q66 0 110 45t44 113t-43.5 112.5t-110.5 44.5zM416 264h325q72 0 119 48t47 122q0 72 -47 120t-119 48h-325v-338z" />
    <glyph glyph-name="C" unicode="C" horiz-adv-x="1486" 
d="M813 -29q-322 0 -534 215q-211 214 -211 531q0 319 211 530q212 215 534 215q194 0 359 -91t258 -247l-244 -141q-54 97 -152 151t-221 54q-210 0 -338 -131q-127 -133 -127 -340q0 -205 127 -338q128 -131 338 -131q123 0 222.5 54.5t150.5 148.5l244 -142
q-93 -156 -257.5 -247t-359.5 -91z" />
    <glyph glyph-name="D" unicode="D" horiz-adv-x="1460" 
d="M133 1434h569q294 0 492 -207q199 -205 199 -510t-199 -510q-198 -207 -492 -207h-569v1434zM416 270h286q187 0 304 123q116 125 116 324t-116 321q-116 125 -304 125h-286v-893z" />
    <glyph glyph-name="E" unicode="E" horiz-adv-x="1085" 
d="M416 592v-322h604v-270h-887v1434h877v-271h-594v-305h542v-266h-542z" />
    <glyph glyph-name="F" unicode="F" horiz-adv-x="1062" 
d="M989 1434v-271h-573v-340h557v-270h-557v-553h-283v1434h856z" />
    <glyph glyph-name="G" unicode="G" horiz-adv-x="1607" 
d="M821 770h719v-111q0 -306 -197 -497t-507 -191q-333 0 -551 215q-217 217 -217 529t215 530q217 217 536 217q199 0 365.5 -90t259.5 -244l-242 -139q-52 89 -156 144t-229 55q-206 0 -338 -135q-131 -131 -131 -338q0 -203 133 -336q134 -131 357 -131q163 0 270.5 71.5
t146.5 200.5h-434v250z" />
    <glyph glyph-name="H" unicode="H" horiz-adv-x="1361" 
d="M948 864v570h281v-1434h-281v594h-532v-594h-283v1434h283v-570h532z" />
    <glyph glyph-name="I" unicode="I" horiz-adv-x="548" 
d="M133 0v1434h283v-1434h-283z" />
    <glyph glyph-name="J" unicode="J" horiz-adv-x="1165" 
d="M541 -29q-338 0 -473 273l243 139q67 -135 230 -135q110 0 166.5 52t56.5 146v988h280v-988q0 -224 -141 -350q-140 -125 -362 -125z" />
    <glyph glyph-name="K" unicode="K" horiz-adv-x="1259" 
d="M702 737l551 -737h-325l-512 672v-672h-283v1434h283v-633l491 633h326z" />
    <glyph glyph-name="L" unicode="L" horiz-adv-x="989" 
d="M416 1434v-1164h547v-270h-830v1434h283z" />
    <glyph glyph-name="M" unicode="M" horiz-adv-x="1669" 
d="M1245 1434h291v-1434h-281v930l-403 -666h-33l-403 664v-928h-283v1434h291l412 -678z" />
    <glyph glyph-name="N" unicode="N" horiz-adv-x="1378" 
d="M963 559v875h282v-1434h-215l-614 877v-877h-283v1434h215z" />
    <glyph glyph-name="O" unicode="O" horiz-adv-x="1622" 
d="M1339 186q-218 -215 -528 -215t-528 215q-215 218 -215 531t215 528q217 217 528 217t528 -217q217 -214 217 -528t-217 -531zM481 379q131 -131 330 -131t330 131q133 133 133 338t-133 338t-330 133t-330 -133t-133 -338t133 -338z" />
    <glyph glyph-name="P" unicode="P" horiz-adv-x="1208" 
d="M133 1434h535q205 0 348 -140q141 -138 141 -342t-141 -342q-142 -139 -348 -139h-252v-471h-283v1434zM416 735h252q90 0 149.5 62t59.5 155q0 94 -59 155.5t-150 61.5h-252v-434z" />
    <glyph glyph-name="Q" unicode="Q" horiz-adv-x="1632" 
d="M1556 717q0 -278 -176 -484l148 -153l-201 -178l-156 161q-167 -92 -360 -92q-308 0 -526 215q-217 217 -217 531t217 528q217 217 526 217t526 -217q219 -216 219 -528zM811 248q83 0 160 26l-236 246l201 178l252 -262q86 124 86 281q0 205 -133 338t-330 133
t-330 -133t-133 -338q0 -203 133 -336t330 -133z" />
    <glyph glyph-name="R" unicode="R" horiz-adv-x="1257" 
d="M1225 0h-305l-289 498h-215v-498h-283v1434h574q197 0 337 -140t140 -336q0 -133 -76 -246.5t-201 -170.5zM707 1169h-291v-424h291q80 0 137 62.5t57 150.5q0 87 -57 149t-137 62z" />
    <glyph glyph-name="S" unicode="S" horiz-adv-x="1193" 
d="M623 -29q-211 0 -357 94t-207 261l242 141q83 -219 330 -219q114 0 171.5 41t57.5 110q0 77 -67 117q-66 42 -242 92q-103 31 -167.5 59.5t-129.5 73.5q-135 101 -135 295q0 197 137 310q137 116 334 116q172 0 305 -84t207 -237l-238 -137q-85 184 -274 184
q-87 0 -138 -40t-51 -104q0 -66 56 -110q59 -41 217 -90l98 -33q18 -5 92 -35q59 -21 90 -43q39 -25 78.5 -59.5t57.5 -67.5q53 -84 53 -203q0 -196 -146 -315q-144 -117 -374 -117z" />
    <glyph glyph-name="T" unicode="T" horiz-adv-x="1105" 
d="M27 1434h1054v-271h-387v-1163h-282v1163h-385v271z" />
    <glyph glyph-name="U" unicode="U" horiz-adv-x="1337" 
d="M668 -29q-241 0 -394 135t-153 363v965h280v-942q0 -116 67 -180t200 -64t199.5 64t66.5 180v942h283v-965q0 -227 -154 -363q-153 -135 -395 -135z" />
    <glyph glyph-name="V" unicode="V" horiz-adv-x="1325" 
d="M838 0h-351l-481 1434h307l351 -1102l348 1102h309z" />
    <glyph glyph-name="W" unicode="W" horiz-adv-x="2045" 
d="M754 0h-322l-401 1434h297l274 -1063l299 1063h242l301 -1063l274 1063h297l-401 -1434h-322l-270 946z" />
    <glyph glyph-name="X" unicode="X" horiz-adv-x="1249" 
d="M784 737l441 -737h-322l-278 467l-279 -467h-319l438 735l-416 699h320l256 -430l256 430h319z" />
    <glyph glyph-name="Y" unicode="Y" horiz-adv-x="1271" 
d="M948 1434h320l-492 -875v-559h-280v559l-490 875h320l311 -598z" />
    <glyph glyph-name="Z" unicode="Z" horiz-adv-x="1095" 
d="M1030 1210l-596 -940h608v-270h-968v225l596 938h-582v271h942v-224z" />
    <glyph glyph-name="bracketleft" unicode="[" horiz-adv-x="634" 
d="M594 1638v-254h-221v-1335h221v-254h-485v1843h485z" />
    <glyph glyph-name="backslash" unicode="\" horiz-adv-x="1071" 
d="M1004 -205h-117l-819 1843h116z" />
    <glyph glyph-name="bracketright" unicode="]" horiz-adv-x="634" 
d="M41 1638h485v-1843h-485v254h221v1335h-221v254z" />
    <glyph glyph-name="asciicircum" unicode="^" horiz-adv-x="1146" 
d="M473 1434h201l391 -676h-285l-207 372l-206 -372h-285z" />
    <glyph glyph-name="underscore" unicode="_" horiz-adv-x="1064" 
d="M999 -350h-931v254h931v-254z" />
    <glyph glyph-name="grave" unicode="`" horiz-adv-x="563" 
d="M522 1153h-254l-227 281h317z" />
    <glyph glyph-name="a" unicode="a" 
d="M899 903v121h264v-1024h-264v121q-120 -150 -334 -150q-205 0 -352 156q-145 157 -145 385q0 226 145 383q149 158 352 158q214 0 334 -150zM412 303q80 -80 202 -80q123 0 203 80q82 82 82 209q0 128 -82 207q-79 82 -203 82q-123 0 -202 -82q-80 -80 -80 -207
q0 -126 80 -209z" />
    <glyph glyph-name="b" unicode="b" 
d="M717 1053q206 0 352 -158q148 -157 148 -383q0 -228 -148 -385q-144 -156 -352 -156q-215 0 -332 150v-121h-264v1434h264v-531q117 150 332 150zM465 303q80 -80 203 -80q122 0 202 80q82 82 82 209q0 128 -82 207q-79 82 -202 82q-124 0 -203 -82q-80 -80 -80 -207
q0 -126 80 -209z" />
    <glyph glyph-name="c" unicode="c" horiz-adv-x="1097" 
d="M608 -29q-231 0 -387 156q-153 156 -153 385t153 385q156 156 387 156q149 0 272.5 -71.5t186.5 -193.5l-227 -133q-31 63 -93.5 100.5t-140.5 37.5q-119 0 -196.5 -79t-77.5 -202q0 -120 78 -201q78 -78 196 -78q79 0 142 36.5t94 99.5l229 -131q-68 -123 -191.5 -195
t-271.5 -72z" />
    <glyph glyph-name="d" unicode="d" 
d="M897 903v531h264v-1434h-264v121q-117 -150 -332 -150q-207 0 -354 156q-145 157 -145 385q0 226 145 383q149 158 354 158q215 0 332 -150zM410 303q83 -80 204 -80q123 0 203 80q80 83 80 209q0 127 -80 207q-79 82 -203 82q-122 0 -204 -82q-80 -80 -80 -207
q0 -126 80 -209z" />
    <glyph glyph-name="e" unicode="e" horiz-adv-x="1189" 
d="M1116 403h-772q52 -192 289 -192q153 0 229 102l213 -123q-151 -219 -446 -219q-254 0 -408 154q-153 153 -153 387q0 231 151 385q150 156 389 156q227 0 371 -156q147 -156 147 -385q0 -44 -10 -109zM340 608h522q-23 101 -91.5 154t-162.5 53q-105 0 -175 -54
t-93 -153z" />
    <glyph glyph-name="f" unicode="f" horiz-adv-x="671" 
d="M672 1462v-254q-217 15 -217 -174v-10h217v-254h-217v-770h-265v770h-147v254h147v10q0 219 122.5 330t359.5 98z" />
    <glyph glyph-name="g" unicode="g" 
d="M905 897v127h258v-975q0 -235 -157 -362q-155 -125 -377 -125q-167 0 -293 64t-193 186l226 129q77 -144 268 -144q126 0 197 66t71 186v111q-117 -156 -327 -156q-216 0 -365 152q-145 154 -145 372t147 371q148 154 363 154q210 0 327 -156zM905 528q0 123 -82 199
q-80 80 -205 80q-123 0 -206 -80q-80 -77 -80 -199q0 -123 80.5 -201.5t205.5 -78.5t206 78.5t81 201.5z" />
    <glyph glyph-name="h" unicode="h" horiz-adv-x="1181" 
d="M690 1053q170 0 277 -113q110 -113 110 -311v-629h-264v596q0 101 -54.5 156t-148.5 55q-105 0 -165 -64.5t-60 -189.5v-553h-264v1434h264v-525q95 144 305 144z" />
    <glyph glyph-name="i" unicode="i" horiz-adv-x="505" 
d="M252 1114q-66 0 -114 47t-48 111q0 65 48 112.5t114 47.5q67 0 115.5 -47.5t48.5 -112.5t-48.5 -111.5t-115.5 -46.5zM385 0h-264v1024h264v-1024z" />
    <glyph glyph-name="j" unicode="j" horiz-adv-x="540" 
d="M156 -20v1044h264v-1044q0 -226 -110 -328.5t-337 -89.5v254q94 -6 138.5 33t44.5 131zM287 1114q-66 0 -114 47t-48 111q0 65 48 112.5t114 47.5q67 0 115.5 -47.5t48.5 -112.5t-48.5 -111.5t-115.5 -46.5z" />
    <glyph glyph-name="k" unicode="k" horiz-adv-x="1075" 
d="M641 518l424 -518h-307l-373 465v-465h-264v1434h264v-861l352 451h316z" />
    <glyph glyph-name="l" unicode="l" horiz-adv-x="505" 
d="M385 0h-264v1495h264v-1495z" />
    <glyph glyph-name="m" unicode="m" horiz-adv-x="1744" 
d="M1253 1053q177 0 282 -115t105 -307v-631h-264v612q0 92 -45 143.5t-127 51.5q-91 0 -140.5 -60t-49.5 -172v-575h-264v612q0 92 -45 143.5t-127 51.5q-89 0 -141 -60.5t-52 -171.5v-575h-264v1024h264v-109q91 138 285 138q189 0 278 -148q103 148 305 148z" />
    <glyph glyph-name="n" unicode="n" horiz-adv-x="1181" 
d="M690 1053q170 0 277 -113q110 -113 110 -311v-629h-264v596q0 101 -54.5 156t-148.5 55q-105 0 -165 -64.5t-60 -189.5v-553h-264v1024h264v-115q95 144 305 144z" />
    <glyph glyph-name="o" unicode="o" horiz-adv-x="1216" 
d="M993 127q-156 -156 -385 -156t-385 156q-155 155 -155 385q0 228 155 383q158 158 385 158t385 -158t158 -383q0 -227 -158 -385zM410 309q80 -80 198 -80q119 0 199 80t80 203t-80 203t-199 80q-118 0 -198 -80q-78 -81 -78 -203t78 -203z" />
    <glyph glyph-name="p" unicode="p" 
d="M717 1053q206 0 352 -158q148 -157 148 -383q0 -228 -148 -385q-144 -156 -352 -156q-215 0 -332 150v-531h-264v1434h264v-121q117 150 332 150zM465 303q80 -80 203 -80q122 0 202 80q82 82 82 209q0 128 -82 207q-79 82 -202 82q-124 0 -203 -82q-80 -80 -80 -207
q0 -126 80 -209z" />
    <glyph glyph-name="q" unicode="q" 
d="M897 903v121h264v-1434h-264v531q-117 -150 -332 -150q-207 0 -354 156q-145 157 -145 385q0 226 145 383q149 158 354 158q215 0 332 -150zM410 303q83 -80 204 -80q123 0 203 80q80 83 80 209q0 127 -80 207q-79 82 -203 82q-122 0 -204 -82q-80 -80 -80 -207
q0 -126 80 -209z" />
    <glyph glyph-name="r" unicode="r" horiz-adv-x="729" 
d="M385 1024v-176q36 95 119.5 145.5t191.5 50.5v-294q-121 15 -217 -50q-94 -64 -94 -211v-489h-264v1024h264z" />
    <glyph glyph-name="s" unicode="s" horiz-adv-x="952" 
d="M365 733q0 -38 48 -63.5t138 -48.5q51 -11 94 -24.5t91 -39.5t81 -59t55 -84.5t21 -114.5q0 -159 -119 -244q-119 -84 -293 -84q-316 0 -430 244l230 129q47 -133 200 -133q142 0 142 88q0 38 -48.5 64t-138.5 49q-55 14 -95 27t-90 39t-81.5 57.5t-53.5 81t-22 110.5
q0 153 111 238q113 88 278 88q125 0 227 -56.5t162 -160.5l-225 -123q-49 104 -164 104q-52 0 -85 -23t-33 -61z" />
    <glyph glyph-name="t" unicode="t" horiz-adv-x="788" 
d="M707 1024v-254h-232v-426q0 -53 26.5 -78t78 -27.5t127.5 1.5v-240q-269 -30 -382.5 50.5t-113.5 293.5v426h-178v254h178v207l264 80v-287h232z" />
    <glyph glyph-name="u" unicode="u" horiz-adv-x="1181" 
d="M797 471v553h264v-1024h-264v115q-95 -144 -305 -144q-169 0 -279 113q-109 115 -109 311v629h265v-596q0 -101 54 -156t148 -55q105 0 165.5 64.5t60.5 189.5z" />
    <glyph glyph-name="v" unicode="v" horiz-adv-x="1091" 
d="M545 307l250 717h290l-389 -1024h-301l-389 1024h291z" />
    <glyph glyph-name="w" unicode="w" horiz-adv-x="1576" 
d="M1100 393l174 631h280l-325 -1024h-252l-189 621l-188 -621h-252l-325 1024h280l174 -629l187 629h249z" />
    <glyph glyph-name="x" unicode="x" horiz-adv-x="1075" 
d="M690 524l375 -524h-305l-221 311l-224 -311h-305l375 522l-358 502h305l207 -289l206 289h304z" />
    <glyph glyph-name="y" unicode="y" horiz-adv-x="1075" 
d="M561 336l227 688h283l-373 -1024q-79 -221 -211 -321t-329 -89v246q105 -1 168 45.5t100 151.5l-420 991h289z" />
    <glyph glyph-name="z" unicode="z" horiz-adv-x="970" 
d="M877 848l-435 -600h455v-248h-809v176l432 600h-411v248h768v-176z" />
    <glyph glyph-name="braceleft" unicode="{" horiz-adv-x="735" 
d="M694 35v-254q-430 -30 -430 381v303q0 82 -36.5 107.5t-125.5 19.5v256q89 -6 125.5 19.5t36.5 107.5v303q0 411 430 381v-254q-89 11 -127.5 -16.5t-38.5 -110.5v-303q0 -187 -122 -254q122 -70 122 -256v-303q0 -83 38.5 -110.5t127.5 -16.5z" />
    <glyph glyph-name="bar" unicode="|" horiz-adv-x="530" 
d="M397 -410h-264v1885h264v-1885z" />
    <glyph glyph-name="braceright" unicode="}" horiz-adv-x="735" 
d="M41 -219v254q89 -11 127.5 16.5t38.5 110.5v303q0 185 123 256q-123 68 -123 254v303q0 83 -38.5 110.5t-127.5 16.5v254q430 30 430 -381v-303q0 -82 36.5 -107.5t125.5 -19.5v-256q-89 6 -125.5 -19.5t-36.5 -107.5v-303q0 -411 -430 -381z" />
    <glyph glyph-name="asciitilde" unicode="~" horiz-adv-x="1226" 
d="M920 907l215 -104q-35 -133 -112 -207t-178.5 -78.5t-221.5 53.5q-109 52 -165 63.5t-90 -13.5t-61 -99l-215 103q35 132 112 205.5t178.5 78.5t221.5 -51q58 -26 94 -40.5t69.5 -22t52.5 -4.5t38.5 17.5t32.5 37.5t29 61z" />
    <glyph glyph-name="exclamdown" unicode="&#xa1;" horiz-adv-x="548" 
d="M152 999q51 51 122.5 51t122.5 -51t51 -122.5t-51 -122.5t-122.5 -51t-122.5 51t-51 122.5t51 122.5zM115 0l55 543h209l53 -543v-410h-317v410z" />
    <glyph glyph-name="cent" unicode="&#xa2;" horiz-adv-x="1097" 
d="M842 573l229 -131q-68 -123 -191.5 -194.5t-271.5 -71.5q-73 0 -125 14l-61 -190h-119l72 225q-142 63 -224.5 195t-82.5 297q0 229 153 385q155 155 387 155q60 0 99 -8l59 185h119l-70 -217q169 -67 252 -224l-227 -133q-35 72 -107 107l-168 -527q8 -2 41 -2
q79 0 142 36t94 99zM332 717q0 -162 125 -238l168 518h-19q-119 0 -196.5 -78.5t-77.5 -201.5z" />
    <glyph glyph-name="sterling" unicode="&#xa3;" horiz-adv-x="1189" 
d="M498 561v-289h669v-272h-1099v272h149v289h-125v248h125v205q0 217 133 332q134 116 318 116q155 0 271 -78.5t173 -220.5l-244 -139q-53 164 -194 164q-78 0 -127 -48t-49 -136v-195h415v-248h-415z" />
    <glyph glyph-name="currency" unicode="&#xa4;" horiz-adv-x="1112" 
d="M995 717q0 -153 -92 -268l144 -144l-78 -78l-146 146q-112 -86 -266 -86q-149 0 -268 84l-144 -144l-77 78l141 144q-92 115 -92 268q0 149 92 270l-141 141l77 78l144 -143q121 86 268 86q145 0 266 -86l146 143l78 -78l-144 -143q92 -121 92 -268zM557 537q78 0 128 51
t50 129q0 79 -50 129.5t-128 50.5q-79 0 -128.5 -50t-49.5 -130t49.5 -130t128.5 -50z" />
    <glyph glyph-name="yen" unicode="&#xa5;" horiz-adv-x="1230" 
d="M948 1434h320l-389 -693h208v-163h-301l-10 -19v-74h311v-166h-311v-319h-280v319h-351v166h351v74l-11 19h-340v163h248l-387 693h320l311 -598z" />
    <glyph glyph-name="brokenbar" unicode="&#xa6;" horiz-adv-x="530" 
d="M397 717h-264v758h264v-758zM397 -410h-264v758h264v-758z" />
    <glyph glyph-name="section" unicode="&#xa7;" horiz-adv-x="1110" 
d="M1034 582q0 -157 -121 -263q68 -83 68 -204q0 -165 -117 -254q-119 -90 -295 -90q-344 0 -452 258l235 135q56 -160 217 -160q148 0 148 111q0 48 -70 94q-19 12 -106 49q-17 8 -65 26.5t-62 24.5q-156 67 -235 148.5t-79 208.5q0 161 127 256q-61 79 -61 202
q0 160 113 248q116 90 278 90q138 0 247 -66.5t163 -191.5l-217 -119q-64 144 -193 144q-58 0 -92.5 -28t-34.5 -77q0 -39 37 -73q47 -40 78 -54l125 -51q6 -2 41 -16q76 -32 123.5 -58t95.5 -65q104 -84 104 -225zM365 680q0 -96 165 -160l82 -31l111 -40q47 41 47 102
q0 57 -41.5 93t-140.5 75l-174 65q-49 -37 -49 -104z" />
    <glyph glyph-name="dieresis" unicode="&#xa8;" horiz-adv-x="747" 
d="M276 1163q-38 -38 -95.5 -38t-98.5 38q-41 41 -41 98.5t41 98.5t98.5 41t95.5 -41q41 -41 41 -98.5t-41 -98.5zM666 1163q-38 -38 -96 -38t-99 38q-41 41 -41 98.5t41 98.5t99 41t96 -41q41 -41 41 -98.5t-41 -98.5z" />
    <glyph glyph-name="copyright" unicode="&#xa9;" horiz-adv-x="1615" 
d="M1333 193q-218 -218 -524 -218t-524 218q-217 217 -217 524t217 524t524 217t524 -217t217 -524t-217 -524zM809 45q275 0 469 197q195 198 195 475t-195 475q-194 197 -469 197q-277 0 -471 -197q-195 -198 -195 -475t195 -475q194 -197 471 -197zM815 315
q-168 0 -287 119q-118 118 -118 283q0 164 118 282q119 119 287 119q107 0 199 -52.5t143 -143.5l-196 -115q-44 84 -152 84q-76 0 -124 -50t-48 -124t48 -124t124 -50q105 0 152 86l198 -117q-51 -90 -144.5 -143.5t-199.5 -53.5z" />
    <glyph glyph-name="guillemotleft" unicode="&#xab;" horiz-adv-x="1116" 
d="M354 1018h244l-225 -385l225 -383h-244l-225 383zM743 1018h244l-225 -385l225 -383h-244l-225 383z" />
    <glyph glyph-name="logicalnot" unicode="&#xac;" horiz-adv-x="1126" 
d="M92 594v248h942v-492h-264v244h-678z" />
    <glyph glyph-name="registered" unicode="&#xae;" horiz-adv-x="1615" 
d="M285 1241q217 217 524 217t524 -217t217 -524t-217 -524q-218 -218 -524 -218t-524 218q-217 217 -217 524t217 524zM809 45q275 0 469 197q195 198 195 475t-195 475q-194 197 -469 197q-277 0 -471 -197q-195 -198 -195 -475t195 -475q194 -197 471 -197zM1126 844
q0 -150 -112 -228l155 -278h-235l-109 225h-77v-225h-220v758h306q125 0 208.5 -71t83.5 -181zM815 897h-67v-149h67q42 0 67 20t25 53q0 76 -92 76z" />
    <glyph glyph-name="overscore" unicode="&#xaf;" horiz-adv-x="675" 
d="M635 1155h-594v215h594v-215z" />
    <glyph glyph-name="degree" unicode="&#xb0;" horiz-adv-x="821" 
d="M412 983q-148 0 -246 98q-98 101 -98 240q0 142 98 240t246 98q147 0 245 -98q99 -99 99 -240t-99 -240q-94 -98 -245 -98zM324 1233q35 -35 88.5 -35t85.5 35q35 35 35 88t-35 88q-32 35 -85.5 35t-88.5 -35q-32 -35 -32 -88t32 -88z" />
    <glyph glyph-name="plusminus" unicode="&#xb1;" horiz-adv-x="1136" 
d="M692 1327v-299h338v-248h-338v-299h-248v299h-335v248h335v299h248zM1030 109h-921v247h921v-247z" />
    <glyph glyph-name="acute" unicode="&#xb4;" horiz-adv-x="563" 
d="M41 1153l164 281h317l-227 -281h-254z" />
    <glyph glyph-name="uni00B5" unicode="&#xb5;" horiz-adv-x="1263" 
d="M1143 248h74v-248h-123q-154 0 -228 102q-94 -131 -297 -131q-110 0 -184 45v-426h-264v1434h264v-594q0 -101 54.5 -157t148.5 -56q105 0 165 64.5t60 189.5v553h264v-711q0 -65 66 -65z" />
    <glyph glyph-name="paragraph" unicode="&#xb6;" horiz-adv-x="1370" 
d="M492 1434h784v-232h-127v-1612h-248v1612h-162v-1612h-247v963q-183 0 -312 129t-129 311q0 183 129 312t312 129z" />
    <glyph glyph-name="middot" unicode="&#xb7;" horiz-adv-x="548" 
d="M397 588q-51 -51 -122.5 -51t-122.5 51t-51 123t51 123t122.5 51t122.5 -51t51 -123t-51 -123z" />
    <glyph glyph-name="cedilla" unicode="&#xb8;" horiz-adv-x="532" 
d="M348 0v-94q64 -14 104 -55.5t40 -104.5q0 -215 -451 -188v186q221 -15 221 41q0 42 -129 51v164h215z" />
    <glyph glyph-name="guillemotright" unicode="&#xbb;" horiz-adv-x="1116" 
d="M129 1018h244l225 -385l-225 -383h-244l225 383zM518 1018h244l225 -385l-225 -383h-244l225 383z" />
    <glyph glyph-name="onequarter" unicode="&#xbc;" horiz-adv-x="1667" 
d="M444 1434v-820h-219v598l-168 -47l-51 181l246 88h192zM240 0l819 1434h184l-819 -1434h-184zM1550 332h84v-201h-84v-131h-209v131h-383v201l265 487h233l-252 -487h137v141h209v-141z" />
    <glyph glyph-name="onehalf" unicode="&#xbd;" horiz-adv-x="1665" 
d="M444 1434v-820h-219v598l-168 -47l-51 181l246 88h192zM240 0l819 1434h184l-819 -1434h-184zM1446 326l-133 -127h284v-199h-612v143l307 306q72 69 72 124q0 33 -23 53.5t-61 20.5q-84 0 -127 -104l-178 102q86 203 307 203q131 0 217 -73t86 -185q0 -125 -139 -264z
" />
    <glyph glyph-name="threequarters" unicode="&#xbe;" horiz-adv-x="1832" 
d="M657 862q0 -133 -83.5 -204.5t-233.5 -71.5q-237 0 -320 182l185 106q35 -96 135 -96q98 0 98 84q0 37 -28.5 59.5t-75.5 22.5h-39l-82 119l141 172h-297v199h564v-162l-148 -176q88 -25 136 -85.5t48 -148.5zM406 0l819 1434h184l-819 -1434h-184zM1716 332h84v-201h-84
v-131h-209v131h-383v201l265 487h233l-252 -487h137v141h209v-141z" />
    <glyph glyph-name="questiondown" unicode="&#xbf;" horiz-adv-x="1132" 
d="M469 999q51 51 123 51t123 -51t51 -122.5t-51 -122.5t-123 -51t-123 51t-51 122.5t51 122.5zM451 543h282q0 -70 -34 -136.5t-89 -119.5q-18 -18 -57.5 -54.5t-62 -59.5t-49.5 -56t-39.5 -65.5t-12.5 -65.5q0 -72 49 -111t137 -39q173 0 244 182l242 -139
q-61 -150 -194.5 -233.5t-301.5 -83.5q-185 0 -323 108q-136 109 -136 295q0 62 19 118.5t49.5 99t67 81.5t73.5 73t67.5 66.5t49.5 68t19 71.5z" />
    <glyph glyph-name="Agrave" unicode="&#xc0;" horiz-adv-x="1368" 
d="M688 1843l164 -280h-254l-227 280h317zM1362 0h-307l-86 258h-572l-86 -258h-305l502 1434h350zM684 1108l-197 -586h394z" />
    <glyph glyph-name="Aacute" unicode="&#xc1;" horiz-adv-x="1368" 
d="M684 1843h317l-227 -280h-254zM1362 0h-307l-86 258h-572l-86 -258h-305l502 1434h350zM684 1108l-197 -586h394z" />
    <glyph glyph-name="Acircumflex" unicode="&#xc2;" horiz-adv-x="1368" 
d="M766 1546l-88 133l-90 -133h-262l217 297h268l217 -297h-262zM1362 0h-307l-86 258h-572l-86 -258h-305l502 1434h350zM684 1108l-197 -586h394z" />
    <glyph glyph-name="Atilde" unicode="&#xc3;" horiz-adv-x="1368" 
d="M657 1606q-60 42 -84 32t-24 -82h-213q0 93 22 160t59 100t85 42.5t101 -5t106 -49.5q60 -42 83 -32.5t23 81.5h215q0 -95 -22 -162t-59 -99t-85.5 -41t-101 6t-105.5 49zM1362 0h-307l-86 258h-572l-86 -258h-305l502 1434h350zM684 1108l-197 -586h394z" />
    <glyph glyph-name="Adieresis" unicode="&#xc4;" horiz-adv-x="1368" 
d="M586 1573q-38 -38 -96 -38t-99 38q-41 41 -41 98t41 98t99 41t96 -41q41 -41 41 -98t-41 -98zM975 1573q-38 -38 -96 -38t-99 38q-41 41 -41 98t41 98t99 41t96 -41q41 -41 41 -98t-41 -98zM1362 0h-307l-86 258h-572l-86 -258h-305l502 1434h350zM684 1108l-197 -586
h394z" />
    <glyph glyph-name="Aring" unicode="&#xc5;" horiz-adv-x="1368" 
d="M1362 0h-307l-86 258h-572l-86 -258h-305l490 1401q-70 70 -70 172q0 105 73 173.5t185 68.5q114 0 186 -68.5t72 -173.5t-72 -174zM684 1649q-36 0 -58 -21.5t-22 -54.5q0 -35 21.5 -56.5t58.5 -21.5q82 0 82 78q0 76 -82 76zM684 1108l-197 -586h394z" />
    <glyph glyph-name="AE" unicode="&#xc6;" horiz-adv-x="1802" 
d="M1196 592v-322h541v-270h-815v258h-453l-152 -258h-317l848 1434h878v-271h-530v-305h483v-266h-483zM922 1026l-297 -504h297v504z" />
    <glyph glyph-name="Ccedilla" unicode="&#xc7;" horiz-adv-x="1486" 
d="M813 248q123 0 222.5 54.5t150.5 148.5l244 -142q-78 -131 -208 -217t-290 -112v-74q64 -14 103.5 -55.5t39.5 -104.5q0 -215 -450 -188v186q221 -15 221 41q0 42 -129 51v141q-288 35 -469 240q-180 207 -180 500q0 319 211 530q212 215 534 215q194 0 359 -91t258 -247
l-244 -141q-54 97 -152 151t-221 54q-210 0 -338 -131q-127 -133 -127 -340q0 -205 127 -338q128 -131 338 -131z" />
    <glyph glyph-name="Egrave" unicode="&#xc8;" horiz-adv-x="1085" 
d="M575 1843l164 -280h-254l-227 280h317zM416 592v-322h604v-270h-887v1434h877v-271h-594v-305h542v-266h-542z" />
    <glyph glyph-name="Eacute" unicode="&#xc9;" horiz-adv-x="1085" 
d="M571 1843h318l-227 -280h-254zM416 592v-322h604v-270h-887v1434h877v-271h-594v-305h542v-266h-542z" />
    <glyph glyph-name="Ecircumflex" unicode="&#xca;" horiz-adv-x="1085" 
d="M653 1546l-88 133l-90 -133h-262l217 297h268l217 -297h-262zM416 592v-322h604v-270h-887v1434h877v-271h-594v-305h542v-266h-542z" />
    <glyph glyph-name="Edieresis" unicode="&#xcb;" horiz-adv-x="1085" 
d="M473 1573q-38 -38 -95.5 -38t-98.5 38q-41 41 -41 98t41 98t98.5 41t95.5 -41q41 -41 41 -98t-41 -98zM862 1573q-38 -38 -95.5 -38t-98.5 38q-41 41 -41 98t41 98t98.5 41t95.5 -41q41 -41 41 -98t-41 -98zM416 592v-322h604v-270h-887v1434h877v-271h-594v-305h542
v-266h-542z" />
    <glyph glyph-name="Igrave" unicode="&#xcc;" horiz-adv-x="548" 
d="M442 1563h-254l-227 280h318zM133 1434v-1434h283v1434h-283z" />
    <glyph glyph-name="Iacute" unicode="&#xcd;" horiz-adv-x="548" 
d="M111 1563l163 280h318l-227 -280h-254zM133 1434v-1434h283v1434h-283z" />
    <glyph glyph-name="Icircumflex" unicode="&#xce;" horiz-adv-x="548" 
d="M356 1546l-88 133l-90 -133h-262l217 297h268l217 -297h-262zM416 0h-283v1434h283v-1434z" />
    <glyph glyph-name="Idieresis" unicode="&#xcf;" horiz-adv-x="548" 
d="M176 1573q-38 -38 -95.5 -38t-98.5 38q-41 41 -41 98t41 98t98.5 41t95.5 -41q41 -41 41 -98t-41 -98zM565 1573q-38 -38 -95.5 -38t-98.5 38q-41 41 -41 98t41 98t98.5 41t95.5 -41q41 -41 41 -98t-41 -98zM133 0v1434h283v-1434h-283z" />
    <glyph glyph-name="Eth" unicode="&#xd0;" horiz-adv-x="1531" 
d="M205 1434h569q294 0 492 -207q198 -204 198 -510t-198 -510q-198 -207 -492 -207h-569v575h-160v254h160v605zM487 270h287q186 0 303 123q117 126 117 324t-117 321q-116 125 -303 125h-287v-334h326v-254h-326v-305z" />
    <glyph glyph-name="Ntilde" unicode="&#xd1;" horiz-adv-x="1378" 
d="M539 1556h-213q0 93 22 160t58.5 100t84.5 42.5t101 -5t106 -49.5q60 -43 83.5 -33t23.5 82h215q0 -95 -22 -162t-59 -99t-85.5 -41t-101 6t-105.5 49q-60 42 -84 32t-24 -82zM963 559v875h282v-1434h-215l-614 877v-877h-283v1434h215z" />
    <glyph glyph-name="Ograve" unicode="&#xd2;" horiz-adv-x="1622" 
d="M1036 1579h-254l-227 281h317zM1339 186q217 217 217 531t-217 528q-217 217 -528 217t-528 -217q-215 -215 -215 -528t215 -531q218 -215 528 -215t528 215zM481 379q-133 133 -133 338t133 338t330 133t330 -133t133 -338t-133 -338q-131 -131 -330 -131t-330 131z" />
    <glyph glyph-name="Oacute" unicode="&#xd3;" horiz-adv-x="1622" 
d="M725 1579l164 281h317l-227 -281h-254zM1339 186q217 217 217 531t-217 528q-217 217 -528 217t-528 -217q-215 -215 -215 -528t215 -531q218 -215 528 -215t528 215zM481 379q-133 133 -133 338t133 338t330 133t330 -133t133 -338t-133 -338q-131 -131 -330 -131
t-330 131z" />
    <glyph glyph-name="Ocircumflex" unicode="&#xd4;" horiz-adv-x="1622" 
d="M893 1563l-88 133l-90 -133h-262l217 297h268l217 -297h-262zM283 1245q217 217 528 217t528 -217q217 -214 217 -528t-217 -531q-218 -215 -528 -215t-528 215q-215 218 -215 531t215 528zM481 379q131 -131 330 -131t330 131q133 133 133 338t-133 338t-330 133
t-330 -133t-133 -338t133 -338z" />
    <glyph glyph-name="Otilde" unicode="&#xd5;" horiz-adv-x="1622" 
d="M676 1573h-213q0 93 22 160t59 100t85 42.5t101 -5t106 -49.5q60 -42 83 -32.5t23 81.5h215q0 -95 -22 -162t-59 -99.5t-85.5 -41.5t-101 6t-105.5 49q-60 43 -84 33t-24 -82zM1339 186q-218 -215 -528 -215t-528 215q-215 218 -215 531t215 528q217 217 528 217
t528 -217q217 -214 217 -528t-217 -531zM481 379q131 -131 330 -131t330 131q133 133 133 338t-133 338t-330 133t-330 -133t-133 -338t133 -338z" />
    <glyph glyph-name="Odieresis" unicode="&#xd6;" horiz-adv-x="1622" 
d="M713 1589q-38 -38 -96 -38t-99 38q-41 41 -41 98.5t41 98.5t99 41t96 -41q41 -41 41 -98.5t-41 -98.5zM1102 1589q-38 -38 -96 -38t-99 38q-41 41 -41 98.5t41 98.5t99 41t96 -41q41 -41 41 -98.5t-41 -98.5zM1339 186q-218 -215 -528 -215t-528 215q-215 218 -215 531
t215 528q217 217 528 217t528 -217q217 -214 217 -528t-217 -531zM481 379q131 -131 330 -131t330 131q133 133 133 338t-133 338t-330 133t-330 -133t-133 -338t133 -338z" />
    <glyph glyph-name="multiply" unicode="&#xd7;" horiz-adv-x="1048" 
d="M770 1137l176 -172l-248 -248l248 -248l-176 -172l-246 246l-245 -246l-177 172l248 248l-248 248l177 172l245 -246z" />
    <glyph glyph-name="Oslash" unicode="&#xd8;" horiz-adv-x="1634" 
d="M1473 1376l-113 -137q209 -215 209 -522q0 -314 -217 -531q-218 -215 -529 -215q-227 0 -411 123l-97 -117l-139 82l113 136q-209 218 -209 522q0 313 215 528q217 217 528 217q227 0 414 -123l96 117zM360 717q0 -182 107 -307l594 716q-112 62 -238 62
q-196 0 -329 -133q-134 -134 -134 -338zM823 248q199 0 330 131q133 133 133 338q0 182 -104 307l-594 -717q109 -59 235 -59z" />
    <glyph glyph-name="Ugrave" unicode="&#xd9;" horiz-adv-x="1337" 
d="M836 1563h-254l-228 280h318zM668 -29q242 0 395 135q154 136 154 363v965h-283v-942q0 -116 -66.5 -180t-199.5 -64t-200 64t-67 180v942h-280v-965q0 -228 153 -363t394 -135z" />
    <glyph glyph-name="Uacute" unicode="&#xda;" horiz-adv-x="1337" 
d="M549 1563l164 280h317l-227 -280h-254zM668 -29q242 0 395 135q154 136 154 363v965h-283v-942q0 -116 -66.5 -180t-199.5 -64t-200 64t-67 180v942h-280v-965q0 -228 153 -363t394 -135z" />
    <glyph glyph-name="Ucircumflex" unicode="&#xdb;" horiz-adv-x="1337" 
d="M750 1546l-88 133l-91 -133h-262l217 297h269l217 -297h-262zM934 492v942h283v-965q0 -227 -154 -363q-153 -135 -395 -135q-241 0 -394 135t-153 363v965h280v-942q0 -116 67 -180t200 -64t199.5 64t66.5 180z" />
    <glyph glyph-name="Udieresis" unicode="&#xdc;" horiz-adv-x="1337" 
d="M569 1573q-38 -38 -95.5 -38t-98.5 38q-41 41 -41 98t41 98t98.5 41t95.5 -41q41 -41 41 -98t-41 -98zM958 1573q-38 -38 -95.5 -38t-98.5 38q-41 41 -41 98t41 98t98.5 41t95.5 -41q41 -41 41 -98t-41 -98zM668 -29q-241 0 -394 135t-153 363v965h280v-942
q0 -116 67 -180t200 -64t199.5 64t66.5 180v942h283v-965q0 -227 -154 -363q-153 -135 -395 -135z" />
    <glyph glyph-name="Yacute" unicode="&#xdd;" horiz-adv-x="1271" 
d="M668 1843h317l-227 -280h-254zM948 1434h320l-492 -875v-559h-280v559l-490 875h320l311 -598z" />
    <glyph glyph-name="Thorn" unicode="&#xde;" horiz-adv-x="1208" 
d="M416 1198h260q202 0 340 -141q141 -138 141 -340q0 -201 -141 -342q-139 -139 -340 -139h-260v-236h-283v1434h283v-236zM416 500h260q85 0 143 62.5t58 154.5t-58 154.5t-143 62.5h-260v-434z" />
    <glyph glyph-name="germandbls" unicode="&#xdf;" horiz-adv-x="1099" 
d="M571 -12v233q232 -21 232 121q0 58 -62 141l-123 170q-59 86 -59 146q0 55 64 143q65 89 65 148q0 56 -38.5 93.5t-100.5 37.5q-74 0 -119 -46.5t-45 -132.5v-1042h-264v1040q0 195 119 308q120 114 319 114q180 0 287 -98q106 -93 106 -234q0 -65 -31 -130t-61.5 -113
t-30.5 -72q0 -64 119 -213q49 -61 84 -145t35 -160q0 -157 -117 -246q-112 -87 -379 -63z" />
    <glyph glyph-name="agrave" unicode="&#xe0;" 
d="M709 1434l163 -281h-254l-227 281h318zM899 903v121h264v-1024h-264v121q-120 -150 -334 -150q-205 0 -352 156q-145 157 -145 385q0 226 145 383q149 158 352 158q214 0 334 -150zM412 303q80 -80 202 -80q123 0 203 80q82 82 82 209q0 128 -82 207q-79 82 -203 82
q-123 0 -202 -82q-80 -80 -80 -207q0 -126 80 -209z" />
    <glyph glyph-name="aacute" unicode="&#xe1;" 
d="M713 1434h317l-227 -281h-254zM899 903v121h264v-1024h-264v121q-120 -150 -334 -150q-205 0 -352 156q-145 157 -145 385q0 226 145 383q149 158 352 158q214 0 334 -150zM412 303q80 -80 202 -80q123 0 203 80q82 82 82 209q0 128 -82 207q-79 82 -203 82
q-123 0 -202 -82q-80 -80 -80 -207q0 -126 80 -209z" />
    <glyph glyph-name="acircumflex" unicode="&#xe2;" 
d="M786 1137l-88 133l-90 -133h-262l217 297h268l218 -297h-263zM899 903v121h264v-1024h-264v121q-120 -150 -334 -150q-205 0 -352 156q-145 157 -145 385q0 226 145 383q149 158 352 158q214 0 334 -150zM412 303q80 -80 202 -80q123 0 203 80q82 82 82 209
q0 128 -82 207q-79 82 -203 82q-123 0 -202 -82q-80 -80 -80 -207q0 -126 80 -209z" />
    <glyph glyph-name="atilde" unicode="&#xe3;" 
d="M694 1196q-60 43 -84 33t-24 -82h-213q0 93 22 160t58.5 100t84.5 42.5t101 -5t106 -49.5q60 -43 83.5 -33t23.5 82h215q0 -95 -22 -162t-59 -99.5t-85.5 -41.5t-101 6t-105.5 49zM899 903v121h264v-1024h-264v121q-120 -150 -334 -150q-205 0 -352 156
q-145 157 -145 385q0 226 145 383q149 158 352 158q214 0 334 -150zM412 303q80 -80 202 -80q123 0 203 80q82 82 82 209q0 128 -82 207q-79 82 -203 82q-123 0 -202 -82q-80 -80 -80 -207q0 -126 80 -209z" />
    <glyph glyph-name="adieresis" unicode="&#xe4;" 
d="M535 1163q-38 -38 -96 -38t-99 38q-41 41 -41 98.5t41 98.5t99 41t96 -41q41 -41 41 -98.5t-41 -98.5zM924 1163q-38 -38 -96 -38t-99 38q-41 41 -41 98.5t41 98.5t99 41t96 -41q41 -41 41 -98.5t-41 -98.5zM899 903v121h264v-1024h-264v121q-120 -150 -334 -150
q-205 0 -352 156q-145 157 -145 385q0 226 145 383q149 158 352 158q214 0 334 -150zM412 303q80 -80 202 -80q123 0 203 80q82 82 82 209q0 128 -82 207q-79 82 -203 82q-123 0 -202 -82q-80 -80 -80 -207q0 -126 80 -209z" />
    <glyph glyph-name="aring" unicode="&#xe5;" 
d="M633 1104q-112 0 -185 69.5t-73 174.5q0 104 73 172.5t185 68.5q115 0 186.5 -68t71.5 -173q0 -107 -71.5 -175.5t-186.5 -68.5zM633 1423q-36 0 -58 -21t-22 -54q0 -35 21.5 -56.5t58.5 -21.5q82 0 82 78q0 75 -82 75zM899 903v121h264v-1024h-264v121
q-120 -150 -334 -150q-205 0 -352 156q-145 157 -145 385q0 226 145 383q149 158 352 158q214 0 334 -150zM412 303q80 -80 202 -80q123 0 203 80q82 82 82 209q0 128 -82 207q-79 82 -203 82q-123 0 -202 -82q-80 -80 -80 -207q0 -126 80 -209z" />
    <glyph glyph-name="ae" unicode="&#xe6;" horiz-adv-x="2023" 
d="M1950 403h-772q29 -95 103.5 -143.5t182.5 -48.5q155 0 232 102l213 -123q-151 -219 -414 -219q-214 0 -348 158v-129h-248v121q-120 -150 -334 -150q-205 0 -352 156q-145 157 -145 385q0 226 145 383q149 158 352 158q214 0 334 -150v121h248v-127q129 156 340 156
q219 0 346 -154t127 -387q0 -44 -10 -109zM1174 610h522q-23 101 -90 153t-162 52q-104 0 -174.5 -53.5t-95.5 -151.5zM412 303q80 -80 202 -80q123 0 203 80q82 82 82 209q0 128 -82 207q-79 82 -203 82q-123 0 -202 -82q-80 -80 -80 -207q0 -126 80 -209z" />
    <glyph glyph-name="ccedilla" unicode="&#xe7;" horiz-adv-x="1097" 
d="M842 369l229 -131q-54 -97 -144 -163t-200 -91v-78q64 -14 103.5 -55.5t39.5 -104.5q0 -215 -450 -188v186q221 -15 221 41q0 42 -129 51v144q-197 35 -322 180q-122 146 -122 352q0 229 153 385q156 156 387 156q149 0 272.5 -71.5t186.5 -193.5l-227 -133
q-31 63 -93.5 100.5t-140.5 37.5q-119 0 -196.5 -79t-77.5 -202q0 -120 78 -201q78 -78 196 -78q79 0 142 36.5t94 99.5z" />
    <glyph glyph-name="egrave" unicode="&#xe8;" horiz-adv-x="1189" 
d="M631 1442l164 -281h-254l-228 281h318zM1116 403h-772q52 -192 289 -192q153 0 229 102l213 -123q-151 -219 -446 -219q-254 0 -408 154q-153 153 -153 387q0 231 151 385q150 156 389 156q227 0 371 -156q147 -156 147 -385q0 -44 -10 -109zM340 608h522
q-23 101 -91.5 154t-162.5 53q-105 0 -175 -54t-93 -153z" />
    <glyph glyph-name="eacute" unicode="&#xe9;" horiz-adv-x="1189" 
d="M657 1442h318l-227 -281h-254zM1116 403h-772q52 -192 289 -192q153 0 229 102l213 -123q-151 -219 -446 -219q-254 0 -408 154q-153 153 -153 387q0 231 151 385q150 156 389 156q227 0 371 -156q147 -156 147 -385q0 -44 -10 -109zM340 608h522q-23 101 -91.5 154
t-162.5 53q-105 0 -175 -54t-93 -153z" />
    <glyph glyph-name="ecircumflex" unicode="&#xea;" horiz-adv-x="1189" 
d="M702 1145l-88 133l-90 -133h-262l217 297h269l217 -297h-263zM1116 403h-772q52 -192 289 -192q153 0 229 102l213 -123q-151 -219 -446 -219q-254 0 -408 154q-153 153 -153 387q0 231 151 385q150 156 389 156q227 0 371 -156q147 -156 147 -385q0 -44 -10 -109z
M340 608h522q-23 101 -91.5 154t-162.5 53q-105 0 -175 -54t-93 -153z" />
    <glyph glyph-name="edieresis" unicode="&#xeb;" horiz-adv-x="1189" 
d="M498 1171q-38 -38 -96 -38t-99 38q-41 41 -41 98.5t41 98.5t99 41t96 -41q41 -41 41 -98.5t-41 -98.5zM887 1171q-38 -38 -96 -38t-99 38q-41 41 -41 98.5t41 98.5t99 41t96 -41q41 -41 41 -98.5t-41 -98.5zM1116 403h-772q52 -192 289 -192q153 0 229 102l213 -123
q-151 -219 -446 -219q-254 0 -408 154q-153 153 -153 387q0 231 151 385q150 156 389 156q227 0 371 -156q147 -156 147 -385q0 -44 -10 -109zM340 608h522q-23 101 -91.5 154t-162.5 53q-105 0 -175 -54t-93 -153z" />
    <glyph glyph-name="igrave" unicode="&#xec;" horiz-adv-x="505" 
d="M377 1137h-254l-137 297h303zM385 0v1024h-264v-1024h264z" />
    <glyph glyph-name="iacute" unicode="&#xed;" horiz-adv-x="505" 
d="M123 1137l86 297h303l-135 -297h-254zM121 0h264v1024h-264v-1024z" />
    <glyph glyph-name="icircumflex" unicode="&#xee;" horiz-adv-x="505" 
d="M317 1137l-63 110l-66 -110h-262l193 297h268l191 -297h-261zM385 0h-264v1024h264v-1024z" />
    <glyph glyph-name="idieresis" unicode="&#xef;" horiz-adv-x="505" 
d="M176 1171q-41 -38 -98.5 -38t-95.5 38q-41 41 -41 98.5t41 98.5q38 41 95.5 41t98.5 -41t41 -98.5t-41 -98.5zM524 1171q-41 -38 -98 -38t-98 38q-38 41 -38 98.5t38 98.5q41 41 98 41t98 -41t41 -98.5t-41 -98.5zM385 0h-264v1024h264v-1024z" />
    <glyph glyph-name="eth" unicode="&#xf0;" horiz-adv-x="1169" 
d="M674 1208l336 -450q94 -128 94 -287q0 -223 -152 -360q-151 -136 -366 -136q-216 0 -367 136t-151 360q0 202 145 338q147 138 352 123l-119 164l-260 -129v184l162 80l-147 203h305l67 -91l242 119v-184zM586 223q112 0 183 67t71 181q0 82 -43 143q-79 97 -211 97
q-113 0 -183.5 -66t-70.5 -174q0 -114 70 -181t184 -67z" />
    <glyph glyph-name="ntilde" unicode="&#xf1;" horiz-adv-x="1181" 
d="M584 1212q-60 43 -84.5 33t-24.5 -82h-213q0 93 22 160t59 100t85 42.5t101 -5t106 -49.5q60 -42 83 -32.5t23 81.5h215q0 -95 -22 -162t-59 -99.5t-85 -41.5t-100.5 6t-105.5 49zM690 1053q170 0 277 -113q110 -113 110 -311v-629h-264v596q0 101 -54.5 156t-148.5 55
q-105 0 -165 -64.5t-60 -189.5v-553h-264v1024h264v-115q95 144 305 144z" />
    <glyph glyph-name="ograve" unicode="&#xf2;" horiz-adv-x="1216" 
d="M803 1169h-254l-227 281h317zM993 127q158 158 158 385q0 225 -158 383t-385 158t-385 -158q-155 -155 -155 -383q0 -230 155 -385q156 -156 385 -156t385 156zM410 309q-78 81 -78 203t78 203q80 80 198 80q119 0 199 -80t80 -203t-80 -203t-199 -80q-118 0 -198 80z
" />
    <glyph glyph-name="oacute" unicode="&#xf3;" horiz-adv-x="1216" 
d="M510 1169l164 281h317l-227 -281h-254zM993 127q158 158 158 385q0 225 -158 383t-385 158t-385 -158q-155 -155 -155 -383q0 -230 155 -385q156 -156 385 -156t385 156zM410 309q-78 81 -78 203t78 203q80 80 198 80q119 0 199 -80t80 -203t-80 -203t-199 -80
q-118 0 -198 80z" />
    <glyph glyph-name="ocircumflex" unicode="&#xf4;" horiz-adv-x="1216" 
d="M698 1153l-88 133l-90 -133h-262l217 297h268l218 -297h-263zM223 895q158 158 385 158t385 -158t158 -383q0 -227 -158 -385q-156 -156 -385 -156t-385 156q-155 155 -155 385q0 228 155 383zM410 309q80 -80 198 -80q119 0 199 80t80 203t-80 203t-199 80
q-118 0 -198 -80q-78 -81 -78 -203t78 -203z" />
    <glyph glyph-name="otilde" unicode="&#xf5;" horiz-adv-x="1216" 
d="M496 1163h-213q0 93 22 160t58.5 100t84.5 42.5t101 -5t106 -49.5q60 -43 83.5 -33t23.5 82h215q0 -95 -22 -162t-59 -99.5t-85.5 -41.5t-101 6t-105.5 49q-60 43 -84 33t-24 -82zM993 127q-156 -156 -385 -156t-385 156q-155 155 -155 385q0 228 155 383
q158 158 385 158t385 -158t158 -383q0 -227 -158 -385zM410 309q80 -80 198 -80q119 0 199 80t80 203t-80 203t-199 80q-118 0 -198 -80q-78 -81 -78 -203t78 -203z" />
    <glyph glyph-name="odieresis" unicode="&#xf6;" horiz-adv-x="1216" 
d="M510 1180q-38 -38 -96 -38t-99 38q-41 41 -41 98t41 98t99 41t96 -41q41 -41 41 -98t-41 -98zM899 1180q-38 -38 -95.5 -38t-98.5 38q-41 41 -41 98t41 98t98.5 41t95.5 -41q41 -41 41 -98t-41 -98zM993 127q-156 -156 -385 -156t-385 156q-155 155 -155 385
q0 228 155 383q158 158 385 158t385 -158t158 -383q0 -227 -158 -385zM410 309q80 -80 198 -80q119 0 199 80t80 203t-80 203t-199 80q-118 0 -198 -80q-78 -81 -78 -203t78 -203z" />
    <glyph glyph-name="divide" unicode="&#xf7;" horiz-adv-x="1157" 
d="M580 948q-72 0 -120 48t-48 120q-3 41 16 77t52.5 56.5t72.5 29t78.5 -3t66.5 -40.5q37 -34 44 -86t-10.5 -97.5t-59 -76.5t-92.5 -27zM1065 594h-973v248h973v-248zM580 152q-53 -4 -95 27.5t-59.5 76.5t-10.5 96t44 84q28 31 68 42.5t78.5 3t72 -29t52 -56.5t15.5 -77
q0 -71 -47.5 -119t-117.5 -48z" />
    <glyph glyph-name="oslash" unicode="&#xf8;" horiz-adv-x="1216" 
d="M1085 977l-79 -94q145 -157 145 -371q0 -227 -158 -385q-156 -156 -385 -156q-164 0 -297 86l-65 -75l-113 65l80 94q-145 151 -145 371q0 228 155 383q158 158 385 158q162 0 299 -88l66 77zM332 512q0 -99 51 -170l356 422q-60 31 -131 31q-119 0 -197.5 -80
t-78.5 -203zM608 229q119 0 199 80t80 203q0 100 -51 168l-357 -420q60 -31 129 -31z" />
    <glyph glyph-name="ugrave" unicode="&#xf9;" horiz-adv-x="1181" 
d="M586 1434l164 -281h-254l-228 281h318zM797 471v553h264v-1024h-264v115q-95 -144 -305 -144q-169 0 -279 113q-109 115 -109 311v629h265v-596q0 -101 54 -156t148 -55q105 0 165.5 64.5t60.5 189.5z" />
    <glyph glyph-name="uacute" unicode="&#xfa;" horiz-adv-x="1181" 
d="M616 1434h318l-227 -281h-254zM797 471v553h264v-1024h-264v115q-95 -144 -305 -144q-169 0 -279 113q-109 115 -109 311v629h265v-596q0 -101 54 -156t148 -55q105 0 165.5 64.5t60.5 189.5z" />
    <glyph glyph-name="ucircumflex" unicode="&#xfb;" horiz-adv-x="1181" 
d="M664 1137l-89 133l-90 -133h-262l217 297h269l217 -297h-262zM797 471v553h264v-1024h-264v115q-95 -144 -305 -144q-169 0 -279 113q-109 115 -109 311v629h265v-596q0 -101 54 -156t148 -55q105 0 165.5 64.5t60.5 189.5z" />
    <glyph glyph-name="udieresis" unicode="&#xfc;" horiz-adv-x="1181" 
d="M483 1163q-38 -38 -95.5 -38t-98.5 38q-41 41 -41 98.5t41 98.5t98.5 41t95.5 -41q41 -41 41 -98.5t-41 -98.5zM872 1163q-38 -38 -95.5 -38t-98.5 38q-41 41 -41 98.5t41 98.5t98.5 41t95.5 -41q41 -41 41 -98.5t-41 -98.5zM797 471v553h264v-1024h-264v115
q-95 -144 -305 -144q-169 0 -279 113q-109 115 -109 311v629h265v-596q0 -101 54 -156t148 -55q105 0 165.5 64.5t60.5 189.5z" />
    <glyph glyph-name="yacute" unicode="&#xfd;" horiz-adv-x="1075" 
d="M580 1434h317l-227 -281h-254zM561 336l227 688h283l-373 -1024q-79 -221 -211 -321t-329 -89v246q105 -1 168 45.5t100 151.5l-420 991h289z" />
    <glyph glyph-name="thorn" unicode="&#xfe;" 
d="M717 1053q206 0 352 -158q148 -157 148 -383q0 -228 -148 -385q-144 -156 -352 -156q-215 0 -332 150v-531h-264v1844h264v-531q117 150 332 150zM465 303q80 -80 203 -80q122 0 202 80q82 82 82 209q0 128 -82 207q-79 82 -202 82q-124 0 -203 -82q-80 -80 -80 -207
q0 -126 80 -209z" />
    <glyph glyph-name="ydieresis" unicode="&#xff;" horiz-adv-x="1075" 
d="M440 1163q-38 -38 -95.5 -38t-98.5 38q-41 41 -41 98.5t41 98.5t98.5 41t95.5 -41q41 -41 41 -98.5t-41 -98.5zM829 1163q-38 -38 -95.5 -38t-98.5 38q-41 41 -41 98.5t41 98.5t98.5 41t95.5 -41q41 -41 41 -98.5t-41 -98.5zM561 336l227 688h283l-373 -1024
q-79 -221 -211 -321t-329 -89v246q105 -1 168 45.5t100 151.5l-420 991h289z" />
    <glyph glyph-name="Amacron" unicode="&#x100;" horiz-adv-x="1368" 
d="M387 1780h594v-215h-594v215zM1362 0h-307l-86 258h-572l-86 -258h-305l502 1434h350zM684 1108l-197 -586h394z" />
    <glyph glyph-name="amacron" unicode="&#x101;" 
d="M336 1370h594v-215h-594v215zM899 903v121h264v-1024h-264v121q-120 -150 -334 -150q-205 0 -352 156q-145 157 -145 385q0 226 145 383q149 158 352 158q214 0 334 -150zM412 303q80 -80 202 -80q123 0 203 80q82 82 82 209q0 128 -82 207q-79 82 -203 82
q-123 0 -202 -82q-80 -80 -80 -207q0 -126 80 -209z" />
    <glyph glyph-name="Abreve" unicode="&#x102;" horiz-adv-x="1368" 
d="M684 1530q-161 0 -250.5 78t-89.5 219h236q0 -107 104 -107q107 0 107 107h235q0 -141 -89 -219t-253 -78zM1362 0h-307l-86 258h-572l-86 -258h-305l502 1434h350zM684 1108l-197 -586h394z" />
    <glyph glyph-name="abreve" unicode="&#x103;" 
d="M719 1120q-161 0 -250.5 78t-89.5 219h235q0 -106 105 -106q106 0 106 106h236q0 -141 -89 -219t-253 -78zM899 903v121h264v-1024h-264v121q-120 -150 -334 -150q-205 0 -352 156q-145 157 -145 385q0 226 145 383q149 158 352 158q214 0 334 -150zM412 303
q80 -80 202 -80q123 0 203 80q82 82 82 209q0 128 -82 207q-79 82 -203 82q-123 0 -202 -82q-80 -80 -80 -207q0 -126 80 -209z" />
    <glyph glyph-name="Aogonek" unicode="&#x104;" horiz-adv-x="1368" 
d="M1305 -250q21 -3 57 10v-166q-71 -32 -166 -32q-88 0 -141.5 47t-53.5 133q0 116 136 258h-82l-86 258h-572l-86 -258h-305l502 1434h350l504 -1434q-109 -115 -109 -195q0 -55 52 -55zM684 1108l-197 -586h394z" />
    <glyph glyph-name="aogonek" unicode="&#x105;" 
d="M1163 1024v-1024q-108 -114 -108 -195q-3 -55 51 -55q20 -3 57 10v-166q-77 -32 -166 -32q-90 0 -143 47t-53 133q0 115 131 258h-33v121q-120 -150 -334 -150q-205 0 -352 156q-145 157 -145 385q0 226 145 383q149 158 352 158q214 0 334 -150v121h264zM412 303
q80 -80 202 -80q123 0 203 80q82 82 82 209q0 128 -82 207q-79 82 -203 82q-123 0 -202 -82q-80 -80 -80 -207q0 -126 80 -209z" />
    <glyph glyph-name="Cacute" unicode="&#x106;" horiz-adv-x="1486" 
d="M649 1579l164 281h317l-227 -281h-254zM813 -29q195 0 359.5 91t257.5 247l-244 142q-51 -94 -150.5 -148.5t-222.5 -54.5q-210 0 -338 131q-127 133 -127 338q0 207 127 340q128 131 338 131q123 0 221 -54t152 -151l244 141q-93 156 -258 247t-359 91q-322 0 -534 -215
q-211 -211 -211 -530q0 -317 211 -531q212 -215 534 -215z" />
    <glyph glyph-name="cacute" unicode="&#x107;" horiz-adv-x="1097" 
d="M442 1153l164 281h318l-228 -281h-254zM608 -29q148 0 271.5 72t191.5 195l-229 131q-31 -63 -94 -99.5t-142 -36.5q-118 0 -196 78q-78 81 -78 201q0 123 77.5 202t196.5 79q78 0 140.5 -37.5t93.5 -100.5l227 133q-63 122 -186.5 193.5t-272.5 71.5q-231 0 -387 -156
q-153 -156 -153 -385t153 -385q156 -156 387 -156z" />
    <glyph glyph-name="Cdotaccent" unicode="&#x10a;" horiz-adv-x="1486" 
d="M813 1554q-66 0 -113 47t-47 113t47 112t113 46q63 0 110.5 -47.5t47.5 -110.5q0 -66 -47.5 -113t-110.5 -47zM813 -29q-322 0 -534 215q-211 214 -211 531q0 319 211 530q212 215 534 215q194 0 359 -91t258 -247l-244 -141q-54 97 -152 151t-221 54q-210 0 -338 -131
q-127 -133 -127 -340q0 -205 127 -338q128 -131 338 -131q123 0 222.5 54.5t150.5 148.5l244 -142q-93 -156 -257.5 -247t-359.5 -91z" />
    <glyph glyph-name="cdotaccent" unicode="&#x10b;" horiz-adv-x="1097" 
d="M606 1128q-49 -3 -88.5 27t-57.5 72.5t-10.5 91t44.5 80.5q33 37 82 44t91 -11t71 -57.5t26 -86.5q0 -66 -47 -113t-111 -47zM608 -29q-231 0 -387 156q-153 156 -153 385t153 385q156 156 387 156q149 0 272.5 -71.5t186.5 -193.5l-227 -133q-31 63 -93.5 100.5
t-140.5 37.5q-119 0 -196.5 -79t-77.5 -202q0 -120 78 -201q78 -78 196 -78q79 0 142 36.5t94 99.5l229 -131q-68 -123 -191.5 -195t-271.5 -72z" />
    <glyph glyph-name="Ccaron" unicode="&#x10c;" horiz-adv-x="1486" 
d="M940 1563h-268l-217 297h262l90 -134l88 134h262zM813 248q123 0 222.5 54.5t150.5 148.5l244 -142q-93 -156 -257.5 -247t-359.5 -91q-322 0 -534 215q-211 214 -211 531q0 319 211 530q212 215 534 215q194 0 359 -91t258 -247l-244 -141q-54 97 -152 151t-221 54
q-210 0 -338 -131q-127 -133 -127 -340q0 -205 127 -338q128 -131 338 -131z" />
    <glyph glyph-name="ccaron" unicode="&#x10d;" horiz-adv-x="1097" 
d="M733 1137h-268l-217 297h262l90 -134l88 134h262zM842 369l229 -131q-68 -123 -191.5 -195t-271.5 -72q-231 0 -387 156q-153 156 -153 385t153 385q156 156 387 156q149 0 272.5 -71.5t186.5 -193.5l-227 -133q-31 63 -93.5 100.5t-140.5 37.5q-119 0 -196.5 -79
t-77.5 -202q0 -120 78 -201q78 -78 196 -78q79 0 142 36.5t94 99.5z" />
    <glyph glyph-name="Dcaron" unicode="&#x10e;" horiz-adv-x="1460" 
d="M813 1546h-268l-217 297h262l90 -133l88 133h262zM133 1434h569q294 0 492 -207q199 -205 199 -510t-199 -510q-198 -207 -492 -207h-569v1434zM416 270h286q187 0 304 123q116 125 116 324t-116 321q-116 125 -304 125h-286v-893z" />
    <glyph glyph-name="dcaron" unicode="&#x10f;" horiz-adv-x="1505" 
d="M897 903v531h264v-1434h-264v121q-117 -150 -332 -150q-207 0 -354 156q-145 157 -145 385q0 226 145 383q149 158 354 158q215 0 332 -150zM1257 1024l21 410h248l-62 -410h-207zM410 303q83 -80 204 -80q123 0 203 80q80 83 80 209q0 127 -80 207q-79 82 -203 82
q-122 0 -204 -82q-80 -80 -80 -207q0 -126 80 -209z" />
    <glyph glyph-name="Dcroat" unicode="&#x110;" horiz-adv-x="1531" 
d="M205 1434h569q294 0 492 -207q198 -204 198 -510t-198 -510q-198 -207 -492 -207h-569v580h-121v235h121v619zM487 270h287q186 0 303 123q117 126 117 324t-117 321q-116 125 -303 125h-287v-348h291v-235h-291v-310z" />
    <glyph glyph-name="dslash" unicode="&#x111;" horiz-adv-x="1296" 
d="M1163 1307h127v-172h-127v-1135h-264v121q-120 -150 -334 -150q-205 0 -352 156q-145 157 -145 385q0 226 145 383q149 158 352 158q214 0 334 -150v232h-309v172h309v127h264v-127zM412 303q80 -80 202 -80q123 0 203 80q82 82 82 209q0 128 -82 207q-79 82 -203 82
q-123 0 -202 -82q-80 -80 -80 -207q0 -126 80 -209z" />
    <glyph glyph-name="Emacron" unicode="&#x112;" horiz-adv-x="1085" 
d="M274 1780h594v-215h-594v215zM416 592v-322h604v-270h-887v1434h877v-271h-594v-305h542v-266h-542z" />
    <glyph glyph-name="emacron" unicode="&#x113;" horiz-adv-x="1189" 
d="M299 1378h594v-215h-594v215zM1116 403h-772q52 -192 289 -192q153 0 229 102l213 -123q-151 -219 -446 -219q-254 0 -408 154q-153 153 -153 387q0 231 151 385q150 156 389 156q227 0 371 -156q147 -156 147 -385q0 -44 -10 -109zM340 608h522q-23 101 -91.5 154
t-162.5 53q-105 0 -175 -54t-93 -153z" />
    <glyph glyph-name="Edotaccent" unicode="&#x116;" horiz-adv-x="1085" 
d="M571 1538q-66 0 -112.5 47t-46.5 113t46.5 111.5t112.5 45.5q63 0 110.5 -47t47.5 -110q0 -66 -47.5 -113t-110.5 -47zM416 592v-322h604v-270h-887v1434h877v-271h-594v-305h542v-266h-542z" />
    <glyph glyph-name="edotaccent" unicode="&#x117;" horiz-adv-x="1189" 
d="M596 1137q-66 0 -113 46.5t-47 112.5t47 112t113 46q63 0 110.5 -47.5t47.5 -110.5q0 -65 -47 -112t-111 -47zM1116 403h-772q52 -192 289 -192q153 0 229 102l213 -123q-151 -219 -446 -219q-254 0 -408 154q-153 153 -153 387q0 231 151 385q150 156 389 156
q227 0 371 -156q147 -156 147 -385q0 -44 -10 -109zM340 608h522q-23 101 -91.5 154t-162.5 53q-105 0 -175 -54t-93 -153z" />
    <glyph glyph-name="Eogonek" unicode="&#x118;" horiz-adv-x="1085" 
d="M416 592v-322h604v-270h-2q-107 -113 -107 -195q-3 -55 52 -55q19 -3 55 10v-166q-71 -32 -164 -32q-90 0 -143.5 47t-53.5 133q0 116 136 258h-660v1434h877v-271h-594v-305h542v-266h-542z" />
    <glyph glyph-name="eogonek" unicode="&#x119;" horiz-adv-x="1189" 
d="M1116 403h-772q52 -192 289 -192q153 0 229 102l213 -123q-24 -36 -76 -88q-172 -184 -172 -297q0 -55 52 -55q21 -3 57 10v-166q-77 -32 -166 -32q-90 0 -142.5 47t-52.5 133q0 117 134 233q-70 -4 -80 -4q-254 0 -408 154q-153 153 -153 387q0 231 151 385
q150 156 389 156q227 0 371 -156q147 -156 147 -385q0 -44 -10 -109zM340 608h522q-23 101 -91.5 154t-162.5 53q-105 0 -175 -54t-93 -153z" />
    <glyph glyph-name="Ecaron" unicode="&#x11a;" horiz-adv-x="1085" 
d="M698 1546h-268l-217 297h262l90 -133l88 133h262zM416 592v-322h604v-270h-887v1434h877v-271h-594v-305h542v-266h-542z" />
    <glyph glyph-name="ecaron" unicode="&#x11b;" horiz-adv-x="1189" 
d="M723 1145h-268l-217 297h262l90 -133l88 133h262zM1116 403h-772q52 -192 289 -192q153 0 229 102l213 -123q-151 -219 -446 -219q-254 0 -408 154q-153 153 -153 387q0 231 151 385q150 156 389 156q227 0 371 -156q147 -156 147 -385q0 -44 -10 -109zM340 608h522
q-23 101 -91.5 154t-162.5 53q-105 0 -175 -54t-93 -153z" />
    <glyph glyph-name="Gbreve" unicode="&#x11e;" horiz-adv-x="1607" 
d="M813 1546q-161 0 -250.5 78t-89.5 219h236q0 -106 104 -106q107 0 107 106h235q0 -141 -89 -219t-253 -78zM821 770h719v-111q0 -306 -197 -497t-507 -191q-333 0 -551 215q-217 217 -217 529t215 530q217 217 536 217q199 0 365.5 -90t259.5 -244l-242 -139
q-52 89 -156 144t-229 55q-206 0 -338 -135q-131 -131 -131 -338q0 -203 133 -336q134 -131 357 -131q163 0 270.5 71.5t146.5 200.5h-434v250z" />
    <glyph glyph-name="gbreve" unicode="&#x11f;" 
d="M608 1137q-161 0 -250.5 78t-89.5 219h236q0 -107 104 -107q107 0 107 107h235q0 -141 -89 -219t-253 -78zM905 897v127h258v-975q0 -235 -157 -362q-155 -125 -377 -125q-167 0 -293 64t-193 186l226 129q77 -144 268 -144q126 0 197 66t71 186v111q-117 -156 -327 -156
q-216 0 -365 152q-145 154 -145 372t147 371q148 154 363 154q210 0 327 -156zM905 528q0 123 -82 199q-80 80 -205 80q-123 0 -206 -80q-80 -77 -80 -199q0 -123 80.5 -201.5t205.5 -78.5t206 78.5t81 201.5z" />
    <glyph glyph-name="Gdotaccent" unicode="&#x120;" horiz-adv-x="1607" 
d="M813 1554q-66 0 -113 47t-47 113t47 112t113 46q63 0 110.5 -47.5t47.5 -110.5q0 -66 -47.5 -113t-110.5 -47zM821 770h719v-111q0 -306 -197 -497t-507 -191q-333 0 -551 215q-217 217 -217 529t215 530q217 217 536 217q199 0 365.5 -90t259.5 -244l-242 -139
q-52 89 -156 144t-229 55q-206 0 -338 -135q-131 -131 -131 -338q0 -203 133 -336q134 -131 357 -131q163 0 270.5 71.5t146.5 200.5h-434v250z" />
    <glyph glyph-name="gdotaccent" unicode="&#x121;" 
d="M608 1145q-66 0 -112.5 47t-46.5 113t46.5 111.5t112.5 45.5q63 0 110.5 -47t47.5 -110q0 -65 -47 -112.5t-111 -47.5zM905 897v127h258v-975q0 -235 -157 -362q-155 -125 -377 -125q-167 0 -293 64t-193 186l226 129q77 -144 268 -144q126 0 197 66t71 186v111
q-117 -156 -327 -156q-216 0 -365 152q-145 154 -145 372t147 371q148 154 363 154q210 0 327 -156zM905 528q0 123 -82 199q-80 80 -205 80q-123 0 -206 -80q-80 -77 -80 -199q0 -123 80.5 -201.5t205.5 -78.5t206 78.5t81 201.5z" />
    <glyph glyph-name="Gcommaaccent" unicode="&#x122;" horiz-adv-x="1607" 
d="M821 770h719v-111q0 -306 -197 -497t-507 -191q-333 0 -551 215q-217 217 -217 529t215 530q217 217 536 217q199 0 365.5 -90t259.5 -244l-242 -139q-52 89 -156 144t-229 55q-206 0 -338 -135q-131 -131 -131 -338q0 -203 133 -336q134 -131 357 -131q163 0 270.5 71.5
t146.5 200.5h-434v250zM907 -539h-209l21 410h250z" />
    <glyph glyph-name="gcommaaccent" unicode="&#x123;" 
d="M530 1604h209l-20 -410h-250zM905 897v127h258v-975q0 -235 -157 -362q-155 -125 -377 -125q-167 0 -293 64t-193 186l226 129q77 -144 268 -144q126 0 197 66t71 186v111q-117 -156 -327 -156q-216 0 -365 152q-145 154 -145 372t147 371q148 154 363 154
q210 0 327 -156zM905 528q0 123 -82 199q-80 80 -205 80q-123 0 -206 -80q-80 -77 -80 -199q0 -123 80.5 -201.5t205.5 -78.5t206 78.5t81 201.5z" />
    <glyph glyph-name="Hbar" unicode="&#x126;" horiz-adv-x="1449" 
d="M1272 1233h127v-207h-127v-1026h-281v557h-532v-557h-283v1026h-125v207h125v201h283v-201h532v201h281v-201zM459 827h532v199h-532v-199z" />
    <glyph glyph-name="hbar" unicode="&#x127;" horiz-adv-x="1193" 
d="M702 1053q172 0 279 -113q111 -114 111 -311v-629h-265v596q0 101 -55 156t-149 55q-105 0 -165.5 -64.5t-60.5 -189.5v-553h-264v1135h-127v172h127v127h264v-127h289v-172h-289v-228q96 146 305 146z" />
    <glyph glyph-name="Itilde" unicode="&#x128;" horiz-adv-x="548" 
d="M133 0v1434h283v-1434h-283zM139 1556h-213q0 93 22 160t59 100t85 42.5t101 -5t106 -49.5q60 -43 83.5 -33t23.5 82h215q0 -95 -22 -162t-59 -99t-85.5 -41t-101 6t-105.5 49q-60 42 -84.5 32t-24.5 -82z" />
    <glyph glyph-name="itilde" unicode="&#x129;" horiz-adv-x="505" 
d="M385 0h-264v1024h264v-1024zM137 1147h-182q0 116 28.5 190t74.5 98.5t102 14t114 -54.5q52 -42 72.5 -32.5t20.5 81.5h184q0 -95 -19 -162t-50.5 -99.5t-73 -41.5t-86.5 6t-91 49q-53 43 -73.5 33t-20.5 -82z" />
    <glyph glyph-name="Imacron" unicode="&#x12a;" horiz-adv-x="548" 
d="M571 1565h-594v215h594v-215zM133 0v1434h283v-1434h-283z" />
    <glyph glyph-name="imacron" unicode="&#x12b;" horiz-adv-x="505" 
d="M487 1155h-471v229h471v-229zM385 0h-264v1024h264v-1024z" />
    <glyph glyph-name="Iogonek" unicode="&#x12e;" horiz-adv-x="548" 
d="M397 -250q21 -3 58 10v-166q-77 -32 -166 -32q-90 0 -143.5 47t-53.5 133q0 115 94 258h-53v1434h283v-1434q-70 -113 -70 -195q-3 -55 51 -55z" />
    <glyph glyph-name="iogonek" unicode="&#x12f;" horiz-adv-x="505" 
d="M252 1147q-66 0 -114 48t-48 114t48 115t114 49q67 0 115.5 -49t48.5 -115t-48.5 -114t-115.5 -48zM367 -250q19 -3 55 10v-166q-71 -32 -164 -32q-89 0 -143 49.5t-54 134.5q0 109 89 254h-29v1024h264v-1024q-70 -113 -70 -188q-3 -62 52 -62z" />
    <glyph glyph-name="Idot" unicode="&#x130;" horiz-adv-x="548" 
d="M274 1538q-49 -3 -88.5 26.5t-57.5 72t-10.5 91t44.5 80.5q33 37 82 44.5t91 -10.5t71 -57.5t26 -86.5q0 -66 -47 -113t-111 -47zM133 0v1434h283v-1434h-283z" />
    <glyph glyph-name="dotlessi" unicode="&#x131;" horiz-adv-x="505" 
d="M385 0h-264v1024h264v-1024z" />
    <glyph glyph-name="Kcommaaccent" unicode="&#x136;" horiz-adv-x="1259" 
d="M1233 1434l-531 -697l551 -737h-325l-512 672v-672h-283v1434h283v-633l491 633h326zM705 -539h-209l20 410h250z" />
    <glyph glyph-name="kcommaaccent" unicode="&#x137;" horiz-adv-x="1075" 
d="M1053 1024l-412 -506l424 -518h-307l-373 465v-465h-264v1434h264v-861l352 451h316zM649 -539h-209l21 410h250z" />
    <glyph glyph-name="Lacute" unicode="&#x139;" horiz-adv-x="989" 
d="M301 1843h317l-227 -280h-254zM416 1434v-1164h547v-270h-830v1434h283z" />
    <glyph glyph-name="lacute" unicode="&#x13a;" horiz-adv-x="505" 
d="M117 1563l164 280h317l-227 -280h-254zM121 0h264v1495h-264v-1495z" />
    <glyph glyph-name="Lcommaaccent" unicode="&#x13b;" horiz-adv-x="989" 
d="M416 1434v-1164h547v-270h-830v1434h283zM637 -539h-209l21 410h249z" />
    <glyph glyph-name="lcommaaccent" unicode="&#x13c;" horiz-adv-x="505" 
d="M385 0h-264v1495h264v-1495zM322 -539h-209l20 410h250z" />
    <glyph glyph-name="Lcaron" unicode="&#x13d;" horiz-adv-x="989" 
d="M416 1434v-1164h547v-270h-830v1434h283zM567 1434h264l-61 -379h-223z" />
    <glyph glyph-name="lcaron" unicode="&#x13e;" horiz-adv-x="724" 
d="M385 0h-264v1495h264v-1495zM684 1085h-209l21 410h249z" />
    <glyph glyph-name="Lslash" unicode="&#x141;" horiz-adv-x="1030" 
d="M457 600v-330h547v-270h-830v432l-123 -74v283l123 74v719h283v-551l270 159v-282z" />
    <glyph glyph-name="lslash" unicode="&#x142;" horiz-adv-x="538" 
d="M401 928l111 76v-252l-111 -76v-676h-264v496l-110 -76v252l110 76v747h264v-567z" />
    <glyph glyph-name="Nacute" unicode="&#x143;" horiz-adv-x="1378" 
d="M510 1563l164 280h317l-227 -280h-254zM963 1434v-875l-615 875h-215v-1434h283v877l614 -877h215v1434h-282z" />
    <glyph glyph-name="nacute" unicode="&#x144;" horiz-adv-x="1181" 
d="M610 1450h318l-228 -281h-254zM690 1053q170 0 277 -113q110 -113 110 -311v-629h-264v596q0 101 -54.5 156t-148.5 55q-105 0 -165 -64.5t-60 -189.5v-553h-264v1024h264v-115q95 144 305 144z" />
    <glyph glyph-name="Ncommaaccent" unicode="&#x145;" horiz-adv-x="1378" 
d="M963 559v875h282v-1434h-215l-614 877v-877h-283v1434h215zM764 -539h-209l20 410h250z" />
    <glyph glyph-name="ncommaaccent" unicode="&#x146;" horiz-adv-x="1181" 
d="M690 1053q170 0 277 -113q110 -113 110 -311v-629h-264v596q0 101 -54.5 156t-148.5 55q-105 0 -165 -64.5t-60 -189.5v-553h-264v1024h264v-115q95 144 305 144zM676 -539h-209l20 410h250z" />
    <glyph glyph-name="Ncaron" unicode="&#x147;" horiz-adv-x="1378" 
d="M801 1546h-269l-217 297h263l90 -133l88 133h262zM963 559v875h282v-1434h-215l-614 877v-877h-283v1434h215z" />
    <glyph glyph-name="ncaron" unicode="&#x148;" horiz-adv-x="1181" 
d="M737 1153h-268l-217 297h262l90 -133l88 133h262zM690 1053q170 0 277 -113q110 -113 110 -311v-629h-264v596q0 101 -54.5 156t-148.5 55q-105 0 -165 -64.5t-60 -189.5v-553h-264v1024h264v-115q95 144 305 144z" />
    <glyph glyph-name="Eng" unicode="&#x14a;" horiz-adv-x="1378" 
d="M963 559v875h282v-1434q0 -209 -124.5 -315.5t-352.5 -94.5v258q102 0 148.5 37t46.5 131v80l-547 781v-877h-283v1434h215z" />
    <glyph glyph-name="eng" unicode="&#x14b;" horiz-adv-x="1181" 
d="M690 1053q170 0 277 -113q110 -113 110 -311v-649q0 -216 -108.5 -323.5t-321.5 -94.5v254q86 -8 126 30.5t40 133.5v616q0 101 -54.5 156t-148.5 55q-105 0 -165 -64.5t-60 -189.5v-553h-264v1024h264v-115q95 144 305 144z" />
    <glyph glyph-name="Omacron" unicode="&#x14c;" horiz-adv-x="1622" 
d="M1108 1581h-594v215h594v-215zM1339 186q-218 -215 -528 -215t-528 215q-215 218 -215 531t215 528q217 217 528 217t528 -217q217 -214 217 -528t-217 -531zM481 379q131 -131 330 -131t330 131q133 133 133 338t-133 338t-330 133t-330 -133t-133 -338t133 -338z" />
    <glyph glyph-name="omacron" unicode="&#x14d;" horiz-adv-x="1216" 
d="M905 1171h-594v215h594v-215zM993 127q-156 -156 -385 -156t-385 156q-155 155 -155 385q0 228 155 383q158 158 385 158t385 -158t158 -383q0 -227 -158 -385zM410 309q80 -80 198 -80q119 0 199 80t80 203t-80 203t-199 80q-118 0 -198 -80q-78 -81 -78 -203t78 -203z
" />
    <glyph glyph-name="Ohungarumlaut" unicode="&#x150;" horiz-adv-x="1622" 
d="M453 1563l159 282h275l-172 -282h-262zM807 1563l180 282h275l-193 -282h-262zM1339 186q217 217 217 531t-217 528q-217 217 -528 217t-528 -217q-215 -215 -215 -528t215 -531q218 -215 528 -215t528 215zM481 379q-133 133 -133 338t133 338t330 133t330 -133
t133 -338t-133 -338q-131 -131 -330 -131t-330 131z" />
    <glyph glyph-name="ohungarumlaut" unicode="&#x151;" horiz-adv-x="1216" 
d="M250 1153l160 283h274l-172 -283h-262zM604 1153l180 283h275l-193 -283h-262zM993 127q158 158 158 385q0 225 -158 383t-385 158t-385 -158q-155 -155 -155 -383q0 -230 155 -385q156 -156 385 -156t385 156zM410 309q-78 81 -78 203t78 203q80 80 198 80
q119 0 199 -80t80 -203t-80 -203t-199 -80q-118 0 -198 80z" />
    <glyph glyph-name="OE" unicode="&#x152;" horiz-adv-x="1875" 
d="M1276 592v-322h532v-270h-813q-106 -29 -204 -29q-311 0 -517 215t-206 531q0 315 206 530t517 215q101 0 204 -28h803v-271h-522v-305h477v-266h-477zM995 279v878q-95 31 -204 31q-193 0 -320 -133q-123 -132 -123 -338t123 -338q125 -131 320 -131q119 0 204 31z" />
    <glyph glyph-name="oe" unicode="&#x153;" horiz-adv-x="2009" 
d="M1935 403h-772q28 -95 103.5 -143.5t177.5 -48.5q160 0 237 102l213 -123q-151 -219 -446 -219q-296 0 -430 230q-140 -230 -418 -230q-228 0 -381 156q-151 157 -151 385t151 385q153 156 381 156q134 0 243 -60.5t173 -167.5q132 228 424 228q223 0 364 -156
q142 -157 142 -385q0 -38 -11 -109zM1159 610h522q-23 101 -90 153t-161 52q-104 0 -175 -54t-96 -151zM608 229q119 0 199 80t80 203t-80 203t-199 80q-121 0 -198.5 -79t-77.5 -204t77.5 -204t198.5 -79z" />
    <glyph glyph-name="Racute" unicode="&#x154;" horiz-adv-x="1257" 
d="M604 1843h318l-228 -280h-254zM1225 0h-305l-289 498h-215v-498h-283v1434h574q197 0 337 -140t140 -336q0 -133 -76 -246.5t-201 -170.5zM707 1169h-291v-424h291q80 0 137 62.5t57 150.5q0 87 -57 149t-137 62z" />
    <glyph glyph-name="racute" unicode="&#x155;" horiz-adv-x="729" 
d="M395 1434h318l-228 -281h-254zM385 1024v-176q36 95 119.5 145.5t191.5 50.5v-294q-121 15 -217 -50q-94 -64 -94 -211v-489h-264v1024h264z" />
    <glyph glyph-name="Rcommaaccent" unicode="&#x156;" horiz-adv-x="1257" 
d="M907 541l318 -541h-305l-289 498h-215v-498h-283v1434h574q197 0 337 -140t140 -336q0 -133 -76 -246.5t-201 -170.5zM707 1169h-291v-424h291q80 0 137 62.5t57 150.5q0 87 -57 149t-137 62zM737 -539h-209l21 410h250z" />
    <glyph glyph-name="rcommaaccent" unicode="&#x157;" horiz-adv-x="729" 
d="M385 1024v-176q36 95 119.5 145.5t191.5 50.5v-294q-121 15 -217 -50q-94 -64 -94 -211v-489h-264v1024h264zM322 -539h-209l20 410h250z" />
    <glyph glyph-name="Rcaron" unicode="&#x158;" horiz-adv-x="1257" 
d="M731 1546h-268l-217 297h262l90 -133l88 133h262zM1225 0h-305l-289 498h-215v-498h-283v1434h574q197 0 337 -140t140 -336q0 -133 -76 -246.5t-201 -170.5zM707 1169h-291v-424h291q80 0 137 62.5t57 150.5q0 87 -57 149t-137 62z" />
    <glyph glyph-name="rcaron" unicode="&#x159;" horiz-adv-x="729" 
d="M522 1137h-268l-217 297h262l90 -134l88 134h262zM385 1024v-176q36 95 119.5 145.5t191.5 50.5v-294q-121 15 -217 -50q-94 -64 -94 -211v-489h-264v1024h264z" />
    <glyph glyph-name="Sacute" unicode="&#x15a;" horiz-adv-x="1193" 
d="M436 1579l164 281h318l-228 -281h-254zM623 -29q230 0 374 117q146 119 146 315q0 119 -53 203q-18 33 -57.5 67.5t-78.5 59.5q-31 22 -90 43q-74 30 -92 35l-98 33q-158 49 -217 90q-56 44 -56 110q0 64 51 104t138 40q189 0 274 -184l238 137q-74 153 -207 237t-305 84
q-197 0 -334 -116q-137 -113 -137 -310q0 -194 135 -295q65 -45 129.5 -73.5t167.5 -59.5q176 -50 242 -92q67 -40 67 -117q0 -69 -57.5 -110t-171.5 -41q-247 0 -330 219l-242 -141q61 -167 207 -261t357 -94z" />
    <glyph glyph-name="sacute" unicode="&#x15b;" horiz-adv-x="952" 
d="M473 1450h318l-228 -281h-254zM365 733q0 -38 48 -63.5t138 -48.5q51 -11 94 -24.5t91 -39.5t81 -59t55 -84.5t21 -114.5q0 -159 -119 -244q-119 -84 -293 -84q-316 0 -430 244l230 129q47 -133 200 -133q142 0 142 88q0 38 -48.5 64t-138.5 49q-55 14 -95 27t-90 39
t-81.5 57.5t-53.5 81t-22 110.5q0 153 111 238q113 88 278 88q125 0 227 -56.5t162 -160.5l-225 -123q-49 104 -164 104q-52 0 -85 -23t-33 -61z" />
    <glyph glyph-name="Scedilla" unicode="&#x15e;" horiz-adv-x="1193" 
d="M1143 403q0 -172 -110 -284.5t-300 -138.5v-74q64 -14 104 -55.5t40 -104.5q0 -215 -451 -188v186q221 -15 221 41q0 42 -129 51v141q-170 23 -289 114t-170 235l242 141q83 -219 330 -219q114 0 171.5 41t57.5 110q0 77 -67 117q-66 42 -242 92q-103 31 -167.5 59.5
t-129.5 73.5q-135 101 -135 295q0 197 137 310q137 116 334 116q172 0 305 -84t207 -237l-238 -137q-85 184 -274 184q-87 0 -138 -40t-51 -104q0 -66 56 -110q59 -41 217 -90l98 -33q18 -5 92 -35q59 -21 90 -43q39 -25 78.5 -59.5t57.5 -67.5q53 -84 53 -203z" />
    <glyph glyph-name="scedilla" unicode="&#x15f;" horiz-adv-x="952" 
d="M893 299q0 -125 -76.5 -206.5t-208.5 -108.5v-78q64 -14 104 -55.5t40 -104.5q0 -215 -451 -188v186q221 -15 221 41q0 42 -129 51v141q-246 30 -342 238l230 129q47 -133 200 -133q142 0 142 88q0 38 -48.5 64t-138.5 49q-55 14 -95 27t-90 39t-81.5 57.5t-53.5 81
t-22 110.5q0 153 111 238q113 88 278 88q125 0 227 -56.5t162 -160.5l-225 -123q-49 104 -164 104q-52 0 -85 -23t-33 -61t48 -63.5t138 -48.5q51 -11 94 -24.5t91 -39.5t81 -59t55 -84.5t21 -114.5z" />
    <glyph glyph-name="Scaron" unicode="&#x160;" horiz-adv-x="1193" 
d="M727 1563h-268l-217 297h262l90 -134l88 134h262zM674 844l98 -33q18 -5 92 -35q59 -21 90 -43q39 -25 78.5 -59.5t57.5 -67.5q53 -84 53 -203q0 -196 -146 -315q-144 -117 -374 -117q-211 0 -357 94t-207 261l242 141q83 -219 330 -219q114 0 171.5 41t57.5 110
q0 77 -67 117q-66 42 -242 92q-103 31 -167.5 59.5t-129.5 73.5q-135 101 -135 295q0 197 137 310q137 116 334 116q172 0 305 -84t207 -237l-238 -137q-85 184 -274 184q-87 0 -138 -40t-51 -104q0 -66 56 -110q59 -41 217 -90z" />
    <glyph glyph-name="scaron" unicode="&#x161;" horiz-adv-x="952" 
d="M600 1153h-268l-217 297h262l90 -133l88 133h262zM365 733q0 -38 48 -63.5t138 -48.5q51 -11 94 -24.5t91 -39.5t81 -59t55 -84.5t21 -114.5q0 -159 -119 -244q-119 -84 -293 -84q-316 0 -430 244l230 129q47 -133 200 -133q142 0 142 88q0 38 -48.5 64t-138.5 49
q-55 14 -95 27t-90 39t-81.5 57.5t-53.5 81t-22 110.5q0 153 111 238q113 88 278 88q125 0 227 -56.5t162 -160.5l-225 -123q-49 104 -164 104q-52 0 -85 -23t-33 -61z" />
    <glyph glyph-name="uni0162" unicode="&#x162;" horiz-adv-x="1105" 
d="M27 1434h1054v-271h-387v-1163h-282v1163h-385v271zM629 -539h-209l20 410h250z" />
    <glyph glyph-name="uni0163" unicode="&#x163;" horiz-adv-x="788" 
d="M707 1024v-254h-232v-426q0 -53 26.5 -78t78 -27.5t127.5 1.5v-240q-269 -30 -382.5 50.5t-113.5 293.5v426h-178v254h178v207l264 80v-287h232zM541 -539h-209l20 410h250z" />
    <glyph glyph-name="Tcaron" unicode="&#x164;" horiz-adv-x="1105" 
d="M680 1546h-268l-217 297h262l90 -133l88 133h262zM27 1434h1054v-271h-387v-1163h-282v1163h-385v271z" />
    <glyph glyph-name="tcaron" unicode="&#x165;" horiz-adv-x="831" 
d="M565 1114l21 373h250l-62 -373h-209zM211 1231l264 80v-287h232v-254h-232v-426q0 -53 26.5 -78t78 -27.5t127.5 1.5v-240q-269 -30 -382.5 50.5t-113.5 293.5v426h-178v254h178v207z" />
    <glyph glyph-name="Tbar" unicode="&#x166;" horiz-adv-x="1105" 
d="M1081 1434v-271h-387v-334h244v-254h-244v-575h-282v575h-242v254h242v334h-385v271h1054z" />
    <glyph glyph-name="tbar" unicode="&#x167;" horiz-adv-x="788" 
d="M707 1024v-254h-232v-149h164v-213h-164v-64q0 -53 26.5 -78t78 -27.5t127.5 1.5v-240q-269 -30 -382.5 50.5t-113.5 293.5v64h-119v213h119v149h-178v254h178v207l264 80v-287h232z" />
    <glyph glyph-name="Utilde" unicode="&#x168;" horiz-adv-x="1337" 
d="M668 -29q-241 0 -394 135t-153 363v965h280v-942q0 -116 67 -180t200 -64t199.5 64t66.5 180v942h283v-965q0 -227 -154 -363q-153 -135 -395 -135zM532 1556h-213q0 93 22 160t59 100t85 42.5t101 -5t106 -49.5q60 -43 83.5 -33t23.5 82h215q0 -95 -22 -162t-59 -99
t-85.5 -41t-101 6t-105.5 49q-60 42 -84.5 32t-24.5 -82z" />
    <glyph glyph-name="utilde" unicode="&#x169;" horiz-adv-x="1181" 
d="M797 471v553h264v-1024h-264v115q-95 -144 -305 -144q-169 0 -279 113q-109 115 -109 311v629h265v-596q0 -101 54 -156t148 -55q105 0 165.5 64.5t60.5 189.5zM446 1147h-213q0 93 22 160t59 100t85 42.5t101 -5t106 -49.5q60 -43 83.5 -33t23.5 82h215q0 -95 -22 -162
t-59 -99.5t-85.5 -41.5t-101 6t-105.5 49q-60 43 -84.5 33t-24.5 -82z" />
    <glyph glyph-name="Umacron" unicode="&#x16a;" horiz-adv-x="1337" 
d="M965 1565h-594v215h594v-215zM668 -29q-241 0 -394 135t-153 363v965h280v-942q0 -116 67 -180t200 -64t199.5 64t66.5 180v942h283v-965q0 -227 -154 -363q-153 -135 -395 -135z" />
    <glyph glyph-name="umacron" unicode="&#x16b;" horiz-adv-x="1181" 
d="M285 1370h594v-215h-594v215zM797 471v553h264v-1024h-264v115q-95 -144 -305 -144q-169 0 -279 113q-109 115 -109 311v629h265v-596q0 -101 54 -156t148 -55q105 0 165.5 64.5t60.5 189.5z" />
    <glyph glyph-name="Uring" unicode="&#x16e;" horiz-adv-x="1337" 
d="M668 1452q-112 0 -185 69.5t-73 174.5q0 104 73 172.5t185 68.5q115 0 186.5 -68t71.5 -173q0 -107 -71.5 -175.5t-186.5 -68.5zM668 1618q82 0 82 78q0 76 -82 76q-36 0 -58 -21.5t-22 -54.5q0 -35 21.5 -56.5t58.5 -21.5zM668 -29q-241 0 -394 135t-153 363v965h280
v-942q0 -116 67 -180t200 -64t199.5 64t66.5 180v942h283v-965q0 -227 -154 -363q-153 -135 -395 -135z" />
    <glyph glyph-name="uring" unicode="&#x16f;" horiz-adv-x="1181" 
d="M582 1104q-112 0 -185 69.5t-73 174.5q0 104 73 172.5t185 68.5q115 0 186.5 -68t71.5 -173q0 -107 -71.5 -175.5t-186.5 -68.5zM582 1423q-36 0 -58 -21t-22 -54q0 -35 21.5 -56.5t58.5 -21.5q82 0 82 78q0 75 -82 75zM797 471v553h264v-1024h-264v115
q-95 -144 -305 -144q-169 0 -279 113q-109 115 -109 311v629h265v-596q0 -101 54 -156t148 -55q105 0 165.5 64.5t60.5 189.5z" />
    <glyph glyph-name="Uhungarumlaut" unicode="&#x170;" horiz-adv-x="1337" 
d="M309 1546l160 283h274l-172 -283h-262zM664 1546l180 283h274l-192 -283h-262zM668 -29q242 0 395 135q154 136 154 363v965h-283v-942q0 -116 -66.5 -180t-199.5 -64t-200 64t-67 180v942h-280v-965q0 -228 153 -363t394 -135z" />
    <glyph glyph-name="uhungarumlaut" unicode="&#x171;" horiz-adv-x="1181" 
d="M383 1419h274l-172 -282h-262zM1032 1419l-192 -282h-262l180 282h274zM797 471v553h264v-1024h-264v115q-95 -144 -305 -144q-169 0 -279 113q-109 115 -109 311v629h265v-596q0 -101 54 -156t148 -55q105 0 165.5 64.5t60.5 189.5z" />
    <glyph glyph-name="Uogonek" unicode="&#x172;" horiz-adv-x="1337" 
d="M934 492v942h283v-965q0 -249 -185 -387q-106 -99 -146.5 -158.5t-41.5 -118.5q-3 -52 51 -55q19 -3 55 10v-166q-71 -32 -164 -32q-90 0 -143 47t-53 133q0 104 110 229h-32q-241 0 -394 135t-153 363v965h280v-942q0 -116 67 -180t200 -64t199.5 64t66.5 180z" />
    <glyph glyph-name="uogonek" unicode="&#x173;" horiz-adv-x="1181" 
d="M797 1024h264v-1024q-109 -115 -109 -195q0 -55 52 -55q21 -3 57 10v-166q-71 -32 -166 -32q-88 0 -141.5 47t-53.5 133q0 109 131 258h-34v115q-95 -144 -305 -144q-169 0 -279 113q-109 115 -109 311v629h265v-596q0 -101 54 -156t148 -55q105 0 165.5 64.5t60.5 189.5
v553z" />
    <glyph glyph-name="Wcircumflex" unicode="&#x174;" horiz-adv-x="2045" 
d="M1165 1546l-88 133l-90 -133h-262l217 297h268l217 -297h-262zM1444 371l274 1063h297l-401 -1434h-322l-270 946l-268 -946h-322l-401 1434h297l274 -1063l299 1063h242z" />
    <glyph glyph-name="wcircumflex" unicode="&#x175;" horiz-adv-x="1576" 
d="M870 1137l-88 133l-90 -133h-262l217 297h268l218 -297h-263zM1100 393l174 631h280l-325 -1024h-252l-189 621l-188 -621h-252l-325 1024h280l174 -629l187 629h249z" />
    <glyph glyph-name="Ycircumflex" unicode="&#x176;" horiz-adv-x="1271" 
d="M717 1546l-88 133l-90 -133h-263l218 297h268l217 -297h-262zM948 1434h320l-492 -875v-559h-280v559l-490 875h320l311 -598z" />
    <glyph glyph-name="ycircumflex" unicode="&#x177;" horiz-adv-x="1075" 
d="M621 1137l-89 133l-90 -133h-262l217 297h269l217 -297h-262zM561 336l227 688h283l-373 -1024q-79 -221 -211 -321t-329 -89v246q105 -1 168 45.5t100 151.5l-420 991h289z" />
    <glyph glyph-name="Ydieresis" unicode="&#x178;" horiz-adv-x="1271" 
d="M537 1573q-38 -38 -96 -38t-99 38q-41 41 -41 98t41 98t99 41t96 -41q41 -41 41 -98t-41 -98zM926 1573q-38 -38 -96 -38t-99 38q-41 41 -41 98t41 98t99 41t96 -41q41 -41 41 -98t-41 -98zM948 1434h320l-492 -875v-559h-280v559l-490 875h320l311 -598z" />
    <glyph glyph-name="Zacute" unicode="&#x179;" horiz-adv-x="1095" 
d="M559 1843h318l-228 -280h-254zM1030 1210l-596 -940h608v-270h-968v225l596 938h-582v271h942v-224z" />
    <glyph glyph-name="zacute" unicode="&#x17a;" horiz-adv-x="970" 
d="M494 1434h317l-227 -281h-254zM877 848l-435 -600h455v-248h-809v176l432 600h-411v248h768v-176z" />
    <glyph glyph-name="Zdotaccent" unicode="&#x17b;" horiz-adv-x="1095" 
d="M559 1538q-66 0 -113 47t-47 113t47 111.5t113 45.5q63 0 110.5 -47t47.5 -110q0 -66 -47.5 -113t-110.5 -47zM1030 1210l-596 -940h608v-270h-968v225l596 938h-582v271h942v-224z" />
    <glyph glyph-name="zdotaccent" unicode="&#x17c;" horiz-adv-x="970" 
d="M494 1128q-66 0 -113 47t-47 113t47 112t113 46q63 0 110 -47.5t47 -110.5q0 -66 -47 -113t-110 -47zM877 848l-435 -600h455v-248h-809v176l432 600h-411v248h768v-176z" />
    <glyph glyph-name="Zcaron" unicode="&#x17d;" horiz-adv-x="1095" 
d="M686 1546h-268l-217 297h262l90 -133l88 133h262zM1030 1210l-596 -940h608v-270h-968v225l596 938h-582v271h942v-224z" />
    <glyph glyph-name="zcaron" unicode="&#x17e;" horiz-adv-x="970" 
d="M621 1137h-269l-217 297h262l90 -134l88 134h263zM877 848l-435 -600h455v-248h-809v176l432 600h-411v248h768v-176z" />
    <glyph glyph-name="florin" unicode="&#x192;" horiz-adv-x="903" 
d="M903 1444v-264q-63 37 -135 6q-71 -30 -86 -121l-37 -217h186v-254h-229l-115 -678q-36 -212 -166 -295.5t-321 -32.5v262q66 -36 137 -6q68 29 84 121l107 629h-172v254h217l45 268q36 212 166 295.5t319 32.5z" />
    <glyph glyph-name="Ohorn" unicode="&#x1a0;" horiz-adv-x="1622" 
d="M1339 186q-218 -215 -528 -215t-528 215q-215 218 -215 531t215 528q217 217 528 217q107 0 213 -28h147q55 0 72 24t17 86v35h213v-35q0 -122 -35.5 -188t-120.5 -90q18 -18 22 -21q217 -214 217 -528t-217 -531zM481 379q131 -131 330 -131t330 131q133 133 133 338
t-133 338t-330 133t-330 -133t-133 -338t133 -338z" />
    <glyph glyph-name="ohorn" unicode="&#x1a1;" horiz-adv-x="1216" 
d="M993 127q-156 -156 -385 -156t-385 156q-155 155 -155 385q0 228 155 383q158 158 385 158q91 0 180 -29h89q54 0 71 24.5t17 86.5v34h213v-34q0 -121 -34.5 -186t-117.5 -91q125 -146 125 -346q0 -227 -158 -385zM410 309q80 -80 198 -80q119 0 199 80t80 203t-80 203
t-199 80q-118 0 -198 -80q-78 -81 -78 -203t78 -203z" />
    <glyph glyph-name="Uhorn" unicode="&#x1af;" horiz-adv-x="1337" 
d="M668 -29q-241 0 -394 135t-153 363v965h280v-942q0 -116 67 -180t200 -64t199.5 64t66.5 180v942h178q48 1 63 25.5t15 84.5v35h213v-35q0 -133 -42 -199.5t-144 -84.5v-791q0 -227 -154 -363q-153 -135 -395 -135z" />
    <glyph glyph-name="uhorn" unicode="&#x1b0;" horiz-adv-x="1181" 
d="M797 471v553h176q48 1 63 26t15 85v34h213v-34q0 -138 -45.5 -205t-157.5 -84v-846h-264v115q-95 -144 -305 -144q-169 0 -279 113q-109 115 -109 311v629h265v-596q0 -101 54 -156t148 -55q105 0 165.5 64.5t60.5 189.5z" />
    <glyph glyph-name="Scommaaccent" unicode="&#x218;" horiz-adv-x="1193" 
d="M623 -29q-211 0 -357 94t-207 261l242 141q83 -219 330 -219q114 0 171.5 41t57.5 110q0 77 -67 117q-66 42 -242 92q-103 31 -167.5 59.5t-129.5 73.5q-135 101 -135 295q0 197 137 310q137 116 334 116q172 0 305 -84t207 -237l-238 -137q-85 184 -274 184
q-87 0 -138 -40t-51 -104q0 -66 56 -110q59 -41 217 -90l98 -33q18 -5 92 -35q59 -21 90 -43q39 -25 78.5 -59.5t57.5 -67.5q53 -84 53 -203q0 -196 -146 -315q-144 -117 -374 -117zM698 -539h-209l21 410h250z" />
    <glyph glyph-name="scommaaccent" unicode="&#x219;" horiz-adv-x="952" 
d="M365 733q0 -38 48 -63.5t138 -48.5q51 -11 94 -24.5t91 -39.5t81 -59t55 -84.5t21 -114.5q0 -159 -119 -244q-119 -84 -293 -84q-316 0 -430 244l230 129q47 -133 200 -133q142 0 142 88q0 38 -48.5 64t-138.5 49q-55 14 -95 27t-90 39t-81.5 57.5t-53.5 81t-22 110.5
q0 153 111 238q113 88 278 88q125 0 227 -56.5t162 -160.5l-225 -123q-49 104 -164 104q-52 0 -85 -23t-33 -61zM573 -539h-208l20 410h250z" />
    <glyph glyph-name="uni021A" unicode="&#x21a;" horiz-adv-x="1105" 
d="M27 1434h1054v-271h-387v-1163h-282v1163h-385v271zM629 -539h-209l20 410h250z" />
    <glyph glyph-name="uni021B" unicode="&#x21b;" horiz-adv-x="788" 
d="M707 1024v-254h-232v-426q0 -53 26.5 -78t78 -27.5t127.5 1.5v-240q-269 -30 -382.5 50.5t-113.5 293.5v426h-178v254h178v207l264 80v-287h232zM541 -539h-209l20 410h250z" />
    <glyph glyph-name="circumflex" unicode="&#x2c6;" horiz-adv-x="784" 
d="M526 1434l217 -297h-262l-88 133l-90 -133h-262l217 297h268z" />
    <glyph glyph-name="caron" unicode="&#x2c7;" horiz-adv-x="784" 
d="M393 1300l88 134h262l-217 -297h-268l-217 297h262z" />
    <glyph glyph-name="breve" unicode="&#x2d8;" horiz-adv-x="763" 
d="M381 1120q-161 0 -250.5 78t-89.5 219h235q0 -106 105 -106q106 0 106 106h236q0 -141 -89 -219t-253 -78z" />
    <glyph glyph-name="dotaccent" unicode="&#x2d9;" horiz-adv-x="415" 
d="M201 1128q-49 -3 -89 27t-58 72.5t-10.5 91t44.5 80.5q33 37 82 44t91 -11t71 -57.5t26 -86.5q0 -66 -47 -113t-110 -47z" />
    <glyph glyph-name="ring" unicode="&#x2da;" horiz-adv-x="600" 
d="M299 1104q-112 0 -185 69.5t-73 174.5q0 104 73 172.5t185 68.5q115 0 186.5 -68t71.5 -173q0 -107 -71.5 -175.5t-186.5 -68.5zM299 1270q82 0 82 78q0 75 -82 75q-36 0 -58 -21t-22 -54q0 -35 21.5 -56.5t58.5 -21.5z" />
    <glyph glyph-name="ogonek" unicode="&#x2db;" horiz-adv-x="442" 
d="M238 -438q-90 0 -143.5 47t-53.5 133q0 117 135 258h225q-106 -112 -106 -195q-3 -55 51 -55q19 -3 55 10v-166q-71 -32 -163 -32z" />
    <glyph glyph-name="tilde" unicode="&#x2dc;" horiz-adv-x="776" 
d="M256 1147h-213q0 93 22 160t59 100t85 42.5t101 -5t106 -49.5q60 -42 83 -32.5t23 81.5h215q0 -95 -22 -162t-59 -99.5t-85 -41.5t-100.5 6t-105.5 49q-60 43 -84.5 33t-24.5 -82z" />
    <glyph glyph-name="hungarumlaut" unicode="&#x2dd;" horiz-adv-x="890" 
d="M41 1137l160 282h274l-172 -282h-262zM395 1137l180 282h275l-193 -282h-262z" />
    <glyph glyph-name="gravecomb" unicode="&#x300;" horiz-adv-x="0" 
d="M-41 1153h-254l-227 281h317z" />
    <glyph glyph-name="acutecomb" unicode="&#x301;" horiz-adv-x="0" 
d="M-522 1153l164 281h317l-227 -281h-254z" />
    <glyph glyph-name="uni0302" unicode="&#x302;" horiz-adv-x="0" 
d="M-258 1434l217 -297h-262l-88 133l-90 -133h-262l217 297h268z" />
    <glyph glyph-name="tildecomb" unicode="&#x303;" horiz-adv-x="0" 
d="M-506 1147h-213q0 93 22 160t59 100t85 42.5t101 -5t106 -49.5q60 -42 83 -32.5t23 81.5h215q0 -95 -22 -162t-59 -99.5t-85 -41.5t-100.5 6t-105.5 49q-60 43 -84.5 33t-24.5 -82z" />
    <glyph glyph-name="uni0304" unicode="&#x304;" horiz-adv-x="0" 
d="M-41 1155h-594v215h594v-215z" />
    <glyph glyph-name="uni0306" unicode="&#x306;" horiz-adv-x="0" 
d="M-383 1120q-161 0 -250.5 78t-89.5 219h236q0 -106 104 -106q107 0 107 106h235q0 -141 -89 -219t-253 -78z" />
    <glyph glyph-name="uni0307" unicode="&#x307;" horiz-adv-x="0" 
d="M-199 1128q-66 0 -112.5 47t-46.5 113t46.5 112t112.5 46q63 0 110.5 -47.5t47.5 -110.5q0 -66 -47.5 -113t-110.5 -47z" />
    <glyph glyph-name="uni0308" unicode="&#x308;" horiz-adv-x="0" 
d="M-469 1163q-41 -38 -98.5 -38t-98.5 38q-41 41 -41 98.5t41 98.5t98.5 41t98.5 -41q38 -41 38 -98.5t-38 -98.5zM-80 1163q-41 -38 -98 -38t-98 38q-41 41 -41 98.5t41 98.5t98 41t98 -41q38 -41 38 -98.5t-38 -98.5z" />
    <glyph glyph-name="uni030A" unicode="&#x30a;" horiz-adv-x="0" 
d="M-307 1104q-112 0 -185 69.5t-73 174.5q0 104 73 172.5t185 68.5q115 0 186.5 -68t71.5 -173q0 -107 -71.5 -175.5t-186.5 -68.5zM-307 1270q82 0 82 78q0 75 -82 75q-36 0 -58 -21t-22 -54q0 -35 21.5 -56.5t58.5 -21.5z" />
    <glyph glyph-name="uni030B" unicode="&#x30b;" horiz-adv-x="0" 
d="M-850 1137l160 282h274l-172 -282h-262zM-496 1137l181 282h274l-192 -282h-263z" />
    <glyph glyph-name="uni030C" unicode="&#x30c;" horiz-adv-x="0" 
d="M-391 1300l88 134h262l-217 -297h-268l-217 297h262z" />
    <glyph glyph-name="uni0312" unicode="&#x312;" horiz-adv-x="0" 
d="M-250 1997h209l-20 -410h-250z" />
    <glyph glyph-name="uni0326" unicode="&#x326;" horiz-adv-x="0" 
d="M-102 -539h-209l20 410h250z" />
    <glyph glyph-name="uni0327" unicode="&#x327;" horiz-adv-x="0" 
d="M-184 0v-94q64 -14 103.5 -55.5t39.5 -104.5q0 -215 -451 -188v186q222 -15 222 41q0 42 -129 51v164h215z" />
    <glyph glyph-name="uni0328" unicode="&#x328;" horiz-adv-x="0" 
d="M-221 -438q-90 0 -143.5 47t-53.5 133q0 117 135 258h226q-107 -113 -107 -195q-3 -55 51 -55q19 -3 56 10v-166q-71 -32 -164 -32z" />
    <glyph glyph-name="uni0394" unicode="&#x394;" horiz-adv-x="1337" 
d="M494 1434h350l487 -1434h-1325zM668 1120l-273 -856h545z" />
    <glyph glyph-name="uni03A9" unicode="&#x3a9;" horiz-adv-x="1591" 
d="M1540 748q0 -289 -219 -478h192v-270h-567v270q142 45 228 166t86 281q0 204 -134 338q-133 133 -329 133q-197 0 -330 -133t-133 -338q0 -161 84.5 -282t226.5 -165v-270h-565v270h190q-219 189 -219 478q0 302 217 507q219 207 529 207q307 0 526 -207
q217 -205 217 -507z" />
    <glyph glyph-name="pi" unicode="&#x3c0;" horiz-adv-x="1361" 
d="M47 1024h1270v-248h-164v-776h-264v776h-408v-776h-264v776h-170v248z" />
    <glyph glyph-name="uni0401" unicode="&#x401;" horiz-adv-x="1085" 
d="M473 1573q-38 -38 -95.5 -38t-98.5 38q-41 41 -41 98t41 98t98.5 41t95.5 -41q41 -41 41 -98t-41 -98zM862 1573q-38 -38 -95.5 -38t-98.5 38q-41 41 -41 98t41 98t98.5 41t95.5 -41q41 -41 41 -98t-41 -98zM416 592v-322h604v-270h-887v1434h877v-271h-594v-305h542
v-266h-542z" />
    <glyph glyph-name="uni0402" unicode="&#x402;" horiz-adv-x="1439" 
d="M952 954q179 0 282 -104.5t103 -294.5v-158q0 -226 -109 -328.5t-335 -88.5v262q90 -6 127 29t37 126v129q0 174 -166 174q-95 0 -223 -41v-659h-281v1163h-360v271h1048v-271h-407v-254q142 45 284 45z" />
    <glyph glyph-name="uni0403" unicode="&#x403;" horiz-adv-x="972" 
d="M551 1841h317l-227 -280h-254zM133 1434h815v-271h-532v-1163h-283v1434z" />
    <glyph glyph-name="uni0404" unicode="&#x404;" horiz-adv-x="1482" 
d="M811 248q121 0 220.5 54.5t150.5 148.5l243 -142q-93 -156 -256.5 -247t-357.5 -91q-323 0 -535 215q-210 213 -210 531q0 320 210 530q212 215 535 215q191 0 356 -91t258 -247l-243 -141q-54 97 -152 151t-219 54q-172 0 -292 -91t-157 -247h639v-264h-639
q37 -156 157 -247t292 -91z" />
    <glyph glyph-name="uni0405" unicode="&#x405;" horiz-adv-x="1193" 
d="M623 -29q-211 0 -357 94t-207 261l242 141q83 -219 330 -219q114 0 171.5 41t57.5 110q0 77 -67 117q-66 42 -242 92q-103 31 -167.5 59.5t-129.5 73.5q-135 101 -135 295q0 197 137 310q137 116 334 116q172 0 305 -84t207 -237l-238 -137q-85 184 -274 184
q-87 0 -138 -40t-51 -104q0 -66 56 -110q59 -41 217 -90l98 -33q18 -5 92 -35q59 -21 90 -43q39 -25 78.5 -59.5t57.5 -67.5q53 -84 53 -203q0 -196 -146 -315q-144 -117 -374 -117z" />
    <glyph glyph-name="uni0406" unicode="&#x406;" horiz-adv-x="548" 
d="M133 0v1434h283v-1434h-283z" />
    <glyph glyph-name="uni0407" unicode="&#x407;" horiz-adv-x="548" 
d="M176 1573q-38 -38 -95.5 -38t-98.5 38q-41 41 -41 98t41 98t98.5 41t95.5 -41q41 -41 41 -98t-41 -98zM565 1573q-38 -38 -95.5 -38t-98.5 38q-41 41 -41 98t41 98t98.5 41t95.5 -41q41 -41 41 -98t-41 -98zM133 0v1434h283v-1434h-283z" />
    <glyph glyph-name="uni0408" unicode="&#x408;" horiz-adv-x="1165" 
d="M541 -29q-338 0 -473 273l243 139q67 -135 230 -135q110 0 166.5 52t56.5 146v988h280v-988q0 -224 -141 -350q-140 -125 -362 -125z" />
    <glyph glyph-name="uni0409" unicode="&#x409;" horiz-adv-x="1968" 
d="M1221 897h213q205 0 344 -127t139 -321q0 -197 -139 -324q-137 -125 -344 -125h-494v1163h-383v-569q0 -183 -44.5 -312t-125.5 -192q-146 -115 -364 -94v262q132 -14 192.5 58.5t60.5 269.5v848h945v-537zM1221 264h213q89 0 145.5 50t56.5 135t-56.5 134.5t-145.5 49.5
h-213v-369z" />
    <glyph glyph-name="uni040A" unicode="&#x40a;" horiz-adv-x="1961" 
d="M1214 897h211q208 0 347 -127t139 -321q0 -197 -139 -324q-137 -125 -347 -125h-493v633h-516v-633h-283v1434h283v-537h516v537h282v-537zM1214 264h211q89 0 146 50t57 135t-56.5 134.5t-146.5 49.5h-211v-369z" />
    <glyph glyph-name="uni040B" unicode="&#x40b;" horiz-adv-x="1449" 
d="M952 954q179 0 282 -104.5t103 -294.5v-555h-280v526q0 174 -166 174q-95 0 -223 -41v-659h-281v1163h-360v271h1048v-271h-407v-254q142 45 284 45z" />
    <glyph glyph-name="uni040C" unicode="&#x40c;" horiz-adv-x="1259" 
d="M633 1841h317l-227 -280h-254zM702 737l551 -737h-325l-512 672v-672h-283v1434h283v-633l491 633h326z" />
    <glyph glyph-name="uni040E" unicode="&#x40e;" horiz-adv-x="1228" 
d="M322 1792h593v-229h-593v229zM643 741l283 693h282l-430 -1039q-171 -416 -565 -395v264q113 -10 183.5 31t119.5 137l-469 1002h283z" />
    <glyph glyph-name="uni040F" unicode="&#x40f;" horiz-adv-x="1337" 
d="M922 270v1164h282v-1434h-395v-274h-281v274h-395v1434h283v-1164h506z" />
    <glyph glyph-name="uni0410" unicode="&#x410;" horiz-adv-x="1368" 
d="M1362 0h-307l-86 258h-572l-86 -258h-305l502 1434h350zM684 1108l-197 -586h394z" />
    <glyph glyph-name="uni0411" unicode="&#x411;" horiz-adv-x="1198" 
d="M416 891h266q211 0 342 -125q133 -124 133 -320t-133 -323q-132 -123 -342 -123h-549v1434h901v-271h-618v-272zM416 264h266q87 0 141 48.5t54 133.5q0 84 -54 132.5t-141 48.5h-266v-363z" />
    <glyph glyph-name="uni0412" unicode="&#x412;" horiz-adv-x="1239" 
d="M999 743q189 -109 189 -327q0 -182 -129 -299t-318 -117h-608v1434h565q183 0 310 -115t127 -289q0 -178 -136 -287zM698 1169h-282v-315h282q66 0 110 45t44 113t-43.5 112.5t-110.5 44.5zM416 264h325q72 0 119 48t47 122q0 72 -47 120t-119 48h-325v-338z" />
    <glyph glyph-name="uni0413" unicode="&#x413;" horiz-adv-x="972" 
d="M133 1434h815v-271h-532v-1163h-283v1434z" />
    <glyph glyph-name="uni0414" unicode="&#x414;" horiz-adv-x="1443" 
d="M1235 1434v-1164h154v-544h-283v274h-793v-274h-282v544h139q119 165 119 486v678h946zM473 270h479v899h-381v-417q0 -314 -98 -482z" />
    <glyph glyph-name="uni0415" unicode="&#x415;" horiz-adv-x="1085" 
d="M416 592v-322h604v-270h-887v1434h877v-271h-594v-305h542v-266h-542z" />
    <glyph glyph-name="uni0416" unicode="&#x416;" horiz-adv-x="1851" 
d="M1327 731l500 -731h-316l-444 653v-653h-283v653l-444 -653h-313l497 731l-477 703h313l424 -639v639h283v-639l424 639h315z" />
    <glyph glyph-name="uni0417" unicode="&#x417;" horiz-adv-x="1148" 
d="M893 741q205 -108 205 -340q0 -189 -146 -311q-143 -119 -374 -119q-400 0 -535 338l244 137q64 -208 291 -208q116 0 177.5 48t61.5 134t-60.5 134t-172.5 48h-178v252h135q105 0 165 46t60 126q0 81 -52.5 126.5t-150.5 45.5q-185 0 -258 -180l-239 139
q144 305 497 305q213 0 348 -114q136 -115 136 -304q0 -191 -154 -303z" />
    <glyph glyph-name="uni0418" unicode="&#x418;" horiz-adv-x="1378" 
d="M1245 0h-282v874l-615 -874h-215v1434h283v-877l614 877h215v-1434z" />
    <glyph glyph-name="uni0419" unicode="&#x419;" horiz-adv-x="1378" 
d="M985 1565h-594v229h594v-229zM1245 0h-282v874l-615 -874h-215v1434h283v-877l614 877h215v-1434z" />
    <glyph glyph-name="uni041A" unicode="&#x41a;" horiz-adv-x="1259" 
d="M702 737l551 -737h-325l-512 672v-672h-283v1434h283v-633l491 633h326z" />
    <glyph glyph-name="uni041B" unicode="&#x41b;" horiz-adv-x="1384" 
d="M23 0v262q131 -19 192 54t61 270v848h975v-1434h-280v1163h-414v-569q0 -183 -44.5 -311t-125.5 -191q-76 -60 -164 -81.5t-200 -10.5z" />
    <glyph glyph-name="uni041C" unicode="&#x41c;" horiz-adv-x="1669" 
d="M1245 1434h291v-1434h-281v930l-403 -666h-33l-403 664v-928h-283v1434h291l412 -678z" />
    <glyph glyph-name="uni041D" unicode="&#x41d;" horiz-adv-x="1361" 
d="M948 864v570h281v-1434h-281v594h-532v-594h-283v1434h283v-570h532z" />
    <glyph glyph-name="uni041E" unicode="&#x41e;" horiz-adv-x="1622" 
d="M1339 186q-218 -215 -528 -215t-528 215q-215 218 -215 531t215 528q217 217 528 217t528 -217q217 -214 217 -528t-217 -531zM481 379q131 -131 330 -131t330 131q133 133 133 338t-133 338t-330 133t-330 -133t-133 -338t133 -338z" />
    <glyph glyph-name="uni041F" unicode="&#x41f;" horiz-adv-x="1337" 
d="M133 1434h1071v-1434h-282v1163h-506v-1163h-283v1434z" />
    <glyph glyph-name="uni0420" unicode="&#x420;" horiz-adv-x="1208" 
d="M133 1434h535q205 0 348 -140q141 -138 141 -342t-141 -342q-142 -139 -348 -139h-252v-471h-283v1434zM416 735h252q90 0 149.5 62t59.5 155q0 94 -59 155.5t-150 61.5h-252v-434z" />
    <glyph glyph-name="uni0421" unicode="&#x421;" horiz-adv-x="1486" 
d="M813 -29q-322 0 -534 215q-211 214 -211 531q0 319 211 530q212 215 534 215q194 0 359 -91t258 -247l-244 -141q-54 97 -152 151t-221 54q-210 0 -338 -131q-127 -133 -127 -340q0 -205 127 -338q128 -131 338 -131q123 0 222.5 54.5t150.5 148.5l244 -142
q-93 -156 -257.5 -247t-359.5 -91z" />
    <glyph glyph-name="uni0422" unicode="&#x422;" horiz-adv-x="1105" 
d="M27 1434h1054v-271h-387v-1163h-282v1163h-385v271z" />
    <glyph glyph-name="uni0423" unicode="&#x423;" horiz-adv-x="1228" 
d="M643 741l283 693h282l-430 -1039q-171 -416 -565 -395v264q113 -10 183.5 31t119.5 137l-469 1002h283z" />
    <glyph glyph-name="uni0424" unicode="&#x424;" horiz-adv-x="1677" 
d="M977 135v-166h-277v166q-299 30 -477 182q-176 153 -176 400t176 397q177 154 477 184v166h277v-166q296 -27 477 -182q178 -153 178 -399q0 -247 -178 -400q-181 -155 -477 -182zM977 1042v-649q373 44 373 324q0 281 -373 325zM328 717q0 -281 372 -322v645
q-372 -40 -372 -323z" />
    <glyph glyph-name="uni0425" unicode="&#x425;" horiz-adv-x="1249" 
d="M784 737l441 -737h-322l-278 467l-279 -467h-319l438 735l-416 699h320l256 -430l256 430h319z" />
    <glyph glyph-name="uni0426" unicode="&#x426;" horiz-adv-x="1413" 
d="M1204 1434v-1164h154v-544h-283v274h-942v1434h283v-1164h506v1164h282z" />
    <glyph glyph-name="uni0427" unicode="&#x427;" horiz-adv-x="1296" 
d="M881 799v635h282v-1434h-282v524q-131 -55 -281 -55q-216 0 -358 121q-140 125 -140 332v512h283v-476q0 -102 60 -160.5t161 -58.5q146 0 275 60z" />
    <glyph glyph-name="uni0428" unicode="&#x428;" horiz-adv-x="1931" 
d="M1516 270v1164h282v-1434h-1665v1434h283v-1164h409v1164h281v-1164h410z" />
    <glyph glyph-name="uni0429" unicode="&#x429;" horiz-adv-x="2007" 
d="M1798 1434v-1164h154v-544h-283v274h-1536v1434h283v-1164h409v1164h281v-1164h410v1164h282z" />
    <glyph glyph-name="uni042A" unicode="&#x42a;" horiz-adv-x="1419" 
d="M879 0h-535v1163h-344v271h625v-471h254q205 0 348 -140q141 -138 141 -342t-141 -342q-142 -139 -348 -139zM625 698v-434h254q90 0 148 61.5t58 155.5t-58 155.5t-148 61.5h-254z" />
    <glyph glyph-name="uni042B" unicode="&#x42b;" horiz-adv-x="1701" 
d="M668 0h-535v1434h283v-471h252q205 0 348 -140q141 -138 141 -342t-141 -342q-142 -139 -348 -139zM1569 0h-281v1434h281v-1434zM416 698v-434h252q91 0 150 61.5t59 155.5t-59 155.5t-150 61.5h-252z" />
    <glyph glyph-name="uni042C" unicode="&#x42c;" horiz-adv-x="1208" 
d="M416 963h252q205 0 348 -140q141 -138 141 -342t-141 -342q-142 -139 -348 -139h-535v1434h283v-471zM416 264h252q91 0 150 61.5t59 155.5q0 93 -59.5 155t-149.5 62h-252v-434z" />
    <glyph glyph-name="uni042D" unicode="&#x42d;" horiz-adv-x="1482" 
d="M672 1462q322 0 534 -215q211 -211 211 -530q0 -317 -211 -531q-212 -215 -534 -215q-194 0 -358 91t-257 247l244 142q51 -94 150.5 -148.5t220.5 -54.5q172 0 291.5 91t156.5 247h-639v264h639q-37 156 -156.5 247t-291.5 91q-121 0 -219 -54t-152 -151l-244 141
q92 156 257.5 247t357.5 91z" />
    <glyph glyph-name="uni042E" unicode="&#x42e;" horiz-adv-x="2160" 
d="M1350 1462q311 0 528 -217q217 -214 217 -528q0 -312 -217 -529t-528 -217q-278 0 -484 179q-202 178 -243 452h-207v-602h-283v1434h283v-562h213q52 257 252 424q199 166 469 166zM1350 1188q-201 0 -332 -131t-131 -340q0 -205 133 -338q131 -131 330 -131
q198 0 329 131q133 133 133 338t-133 338t-329 133z" />
    <glyph glyph-name="uni042F" unicode="&#x42f;" horiz-adv-x="1277" 
d="M571 1434h574v-1434h-283v498h-162l-329 -498h-318l350 528q-137 50 -223 169t-86 261q0 197 139 336q140 140 338 140zM571 745h291v424h-291q-80 0 -137 -62t-57 -149q0 -88 57 -150.5t137 -62.5z" />
    <glyph glyph-name="uni0430" unicode="&#x430;" 
d="M899 903v121h264v-1024h-264v121q-120 -150 -334 -150q-205 0 -352 156q-145 157 -145 385q0 226 145 383q149 158 352 158q214 0 334 -150zM412 303q80 -80 202 -80q123 0 203 80q82 82 82 209q0 128 -82 207q-79 82 -203 82q-123 0 -202 -82q-80 -80 -80 -207
q0 -126 80 -209z" />
    <glyph glyph-name="uni0431" unicode="&#x431;" horiz-adv-x="1161" 
d="M606 -29q-241 0 -391 156q-147 156 -147 395q0 262 77 404q76 142 314 260q7 3 40 19t58 26l86 43q23 11 66 37q52 32 76 64t53 98l217 -125q-27 -125 -121 -195t-279 -139q-127 -50 -188 -101t-88 -125q114 117 307 117q172 0 303 -125q133 -124 133 -327
q0 -213 -143 -347q-141 -135 -373 -135zM602 694q-102 0 -180 -63q-78 -66 -78 -170q0 -107 74 -178q76 -70 186 -70q111 0 182 68q72 69 72 172q0 105 -72 173t-184 68z" />
    <glyph glyph-name="uni0432" unicode="&#x432;" horiz-adv-x="1046" 
d="M858 524q143 -70 143 -233q0 -132 -90.5 -211.5t-251.5 -79.5h-538v1024h497q159 0 249.5 -79t90.5 -210q0 -136 -100 -211zM594 807h-225v-184h225q113 0 113 92t-113 92zM369 223h260q114 0 114 99q0 43 -30 67.5t-84 24.5h-260v-191z" />
    <glyph glyph-name="uni0433" unicode="&#x433;" horiz-adv-x="841" 
d="M121 1024h700v-254h-436v-770h-264v1024z" />
    <glyph glyph-name="uni0434" unicode="&#x434;" horiz-adv-x="1224" 
d="M1042 1024v-776h136v-522h-258v274h-635v-274h-258v522h125q88 131 88 362v414h802zM434 248h350v538h-286v-176q0 -219 -64 -362z" />
    <glyph glyph-name="uni0435" unicode="&#x435;" horiz-adv-x="1189" 
d="M1116 403h-772q52 -192 289 -192q153 0 229 102l213 -123q-151 -219 -446 -219q-254 0 -408 154q-153 153 -153 387q0 231 151 385q150 156 389 156q227 0 371 -156q147 -156 147 -385q0 -44 -10 -109zM340 608h522q-23 101 -91.5 154t-162.5 53q-105 0 -175 -54
t-93 -153z" />
    <glyph glyph-name="uni0436" unicode="&#x436;" horiz-adv-x="1527" 
d="M1133 518l370 -518h-297l-313 459v-459h-258v459l-313 -459h-295l368 518l-348 506h295l293 -444v444h258v-444l293 444h297z" />
    <glyph glyph-name="uni0437" unicode="&#x437;" horiz-adv-x="921" 
d="M721 522q156 -76 156 -243q0 -134 -111 -221t-303 -87q-310 0 -424 246l215 127q50 -139 211 -139q73 0 113 28t40 78q0 95 -120 95h-146v225h111q119 0 119 94q0 44 -35 71t-92 27q-133 0 -191 -129l-213 123q117 236 400 236q174 0 278 -90q105 -88 105 -215
q0 -150 -113 -226z" />
    <glyph glyph-name="uni0438" unicode="&#x438;" horiz-adv-x="1177" 
d="M379 442l481 582h197v-1024h-258v582l-482 -582h-196v1024h258v-582z" />
    <glyph glyph-name="uni0439" unicode="&#x439;" horiz-adv-x="1177" 
d="M887 1155h-594v229h594v-229zM379 442l481 582h197v-1024h-258v582l-482 -582h-196v1024h258v-582z" />
    <glyph glyph-name="uni043A" unicode="&#x43a;" horiz-adv-x="1075" 
d="M641 518l424 -518h-307l-373 465v-465h-264v1024h264v-451l352 451h316z" />
    <glyph glyph-name="uni043B" unicode="&#x43b;" horiz-adv-x="1118" 
d="M188 1024h811v-1024h-264v770h-282v-342q0 -474 -433 -428v248q82 -20 125 28t43 166v582z" />
    <glyph glyph-name="uni043C" unicode="&#x43c;" horiz-adv-x="1306" 
d="M926 1024h260v-1024h-256v598l-260 -410h-33l-262 414v-602h-254v1024h260l272 -430z" />
    <glyph glyph-name="uni043D" unicode="&#x43d;" horiz-adv-x="1177" 
d="M793 637v387h264v-1024h-264v389h-408v-389h-264v1024h264v-387h408z" />
    <glyph glyph-name="uni043E" unicode="&#x43e;" horiz-adv-x="1216" 
d="M993 127q-156 -156 -385 -156t-385 156q-155 155 -155 385q0 228 155 383q158 158 385 158t385 -158t158 -383q0 -227 -158 -385zM410 309q80 -80 198 -80q119 0 199 80t80 203t-80 203t-199 80q-118 0 -198 -80q-78 -81 -78 -203t78 -203z" />
    <glyph glyph-name="uni043F" unicode="&#x43f;" horiz-adv-x="1177" 
d="M121 1024h936v-1024h-264v776h-408v-776h-264v1024z" />
    <glyph glyph-name="uni0440" unicode="&#x440;" 
d="M717 1053q206 0 352 -158q148 -157 148 -383q0 -228 -148 -385q-144 -156 -352 -156q-215 0 -332 150v-531h-264v1434h264v-121q117 150 332 150zM465 303q80 -80 203 -80q122 0 202 80q82 82 82 209q0 128 -82 207q-79 82 -202 82q-124 0 -203 -82q-80 -80 -80 -207
q0 -126 80 -209z" />
    <glyph glyph-name="uni0441" unicode="&#x441;" horiz-adv-x="1097" 
d="M608 -29q-231 0 -387 156q-153 156 -153 385t153 385q156 156 387 156q149 0 272.5 -71.5t186.5 -193.5l-227 -133q-31 63 -93.5 100.5t-140.5 37.5q-119 0 -196.5 -79t-77.5 -202q0 -120 78 -201q78 -78 196 -78q79 0 142 36.5t94 99.5l229 -131q-68 -123 -191.5 -195
t-271.5 -72z" />
    <glyph glyph-name="uni0442" unicode="&#x442;" horiz-adv-x="948" 
d="M20 1024h908v-254h-320v-770h-264v770h-324v254z" />
    <glyph glyph-name="uni0443" unicode="&#x443;" horiz-adv-x="1075" 
d="M561 336l227 688h283l-373 -1024q-155 -431 -540 -410v246q104 -2 164.5 38.5t97.5 137.5l-414 1012h281z" />
    <glyph glyph-name="uni0444" unicode="&#x444;" horiz-adv-x="1402" 
d="M831 -16v-394h-258v394q-235 34 -370 178t-135 350t135 350t370 178v394h258v-394q236 -34 371 -178t135 -350t-135 -350t-371 -178zM328 512q0 -104 64 -177t181 -99v552q-118 -26 -181.5 -98.5t-63.5 -177.5zM831 788v-550q117 26 180.5 98t63.5 176q0 105 -63 177.5
t-181 98.5z" />
    <glyph glyph-name="uni0445" unicode="&#x445;" horiz-adv-x="1075" 
d="M690 524l375 -524h-305l-221 311l-224 -311h-305l375 522l-358 502h305l207 -289l206 289h304z" />
    <glyph glyph-name="uni0446" unicode="&#x446;" horiz-adv-x="1239" 
d="M1022 1024v-776h172v-522h-258v274h-815v1024h264v-776h373v776h264z" />
    <glyph glyph-name="uni0447" unicode="&#x447;" horiz-adv-x="1107" 
d="M725 573v451h264v-1024h-264v326q-112 -37 -244 -37q-189 0 -299 95.5t-110 272.5v367h264v-336q0 -153 190 -153q116 0 199 38z" />
    <glyph glyph-name="uni0448" unicode="&#x448;" horiz-adv-x="1705" 
d="M1321 248v776h264v-1024h-1464v1024h264v-776h336v776h264v-776h336z" />
    <glyph glyph-name="uni0449" unicode="&#x449;" horiz-adv-x="1736" 
d="M1554 1024v-776h136v-522h-258v274h-1311v1024h264v-776h320v776h264v-776h321v776h264z" />
    <glyph glyph-name="uni044A" unicode="&#x44a;" horiz-adv-x="1175" 
d="M543 696h200q174 0 279.5 -95t105.5 -253t-105.5 -253t-279.5 -95h-464v770h-279v254h543v-328zM543 233h200q56 0 91.5 32t35.5 83t-36 84t-91 33h-200v-232z" />
    <glyph glyph-name="uni044B" unicode="&#x44b;" horiz-adv-x="1468" 
d="M385 696h199q174 0 280.5 -95t106.5 -253t-106.5 -253t-280.5 -95h-463v1024h264v-328zM1083 0v1024h265v-1024h-265zM385 233h201q56 0 91.5 32t35.5 83t-36 84t-91 33h-201v-232z" />
    <glyph glyph-name="uni044C" unicode="&#x44c;" horiz-adv-x="1015" 
d="M385 696h199q174 0 280.5 -95t106.5 -253t-106.5 -253t-280.5 -95h-463v1024h264v-328zM385 233h201q56 0 91.5 32t35.5 83t-36 84t-91 33h-201v-232z" />
    <glyph glyph-name="uni044D" unicode="&#x44d;" horiz-adv-x="1099" 
d="M498 1053q231 0 383 -152q151 -151 151 -389q0 -240 -151 -391q-150 -150 -385 -150q-157 0 -282 72t-187 195l223 129q27 -64 93.5 -103t156.5 -39q85 0 152 46t98 122h-349v238h349q-31 76 -98 122t-152 46q-180 0 -248 -140l-223 129q67 123 191 194t278 71z" />
    <glyph glyph-name="uni044E" unicode="&#x44e;" horiz-adv-x="1660" 
d="M1053 1053q227 0 385 -158q157 -157 157 -383q0 -228 -157 -385q-156 -156 -385 -156q-192 0 -336 117q-145 118 -185 301h-147v-389h-264v1024h264v-387h150q41 183 184 299q144 117 334 117zM854 309q80 -80 199 -80q118 0 198 80t80 203t-80 203t-198 80
q-119 0 -199 -80q-78 -81 -78 -203t78 -203z" />
    <glyph glyph-name="uni044F" unicode="&#x44f;" horiz-adv-x="1062" 
d="M463 1024h479v-1024h-258v319h-92l-236 -319h-305l256 350q-98 41 -156.5 129.5t-58.5 192.5q0 142 103 248q101 104 268 104zM684 788h-201q-58 0 -95.5 -34t-37.5 -90q0 -55 37.5 -88t95.5 -33h201v245z" />
    <glyph glyph-name="uni0451" unicode="&#x451;" horiz-adv-x="1189" 
d="M498 1171q-38 -38 -96 -38t-99 38q-41 41 -41 98.5t41 98.5t99 41t96 -41q41 -41 41 -98.5t-41 -98.5zM887 1171q-38 -38 -96 -38t-99 38q-41 41 -41 98.5t41 98.5t99 41t96 -41q41 -41 41 -98.5t-41 -98.5zM1116 403h-772q52 -192 289 -192q153 0 229 102l213 -123
q-151 -219 -446 -219q-254 0 -408 154q-153 153 -153 387q0 231 151 385q150 156 389 156q227 0 371 -156q147 -156 147 -385q0 -44 -10 -109zM340 608h522q-23 101 -91.5 154t-162.5 53q-105 0 -175 -54t-93 -153z" />
    <glyph glyph-name="uni0452" unicode="&#x452;" horiz-adv-x="1193" 
d="M702 1053q172 0 279 -113q111 -114 111 -311v-649q0 -225 -110.5 -328.5t-336.5 -89.5v254q94 -6 138 33t44 131v616q0 101 -55 156t-149 55q-105 0 -165.5 -64.5t-60.5 -189.5v-553h-264v1135h-127v172h127v127h264v-127h289v-172h-289v-228q96 146 305 146z" />
    <glyph glyph-name="uni0453" unicode="&#x453;" horiz-adv-x="841" 
d="M438 1434h318l-228 -281h-254zM121 1024h700v-254h-436v-770h-264v1024z" />
    <glyph glyph-name="uni0454" unicode="&#x454;" horiz-adv-x="1099" 
d="M850 367l223 -129q-62 -123 -187 -195t-282 -72q-237 0 -387 150q-149 149 -149 391q0 240 149 389q152 152 385 152q154 0 278 -71t191 -194l-223 -129q-68 140 -248 140q-85 0 -152 -46t-98 -122h348v-238h-348q31 -76 98 -122t152 -46q90 0 156.5 39t93.5 103z" />
    <glyph glyph-name="uni0455" unicode="&#x455;" horiz-adv-x="952" 
d="M365 733q0 -38 48 -63.5t138 -48.5q51 -11 94 -24.5t91 -39.5t81 -59t55 -84.5t21 -114.5q0 -159 -119 -244q-119 -84 -293 -84q-316 0 -430 244l230 129q47 -133 200 -133q142 0 142 88q0 38 -48.5 64t-138.5 49q-55 14 -95 27t-90 39t-81.5 57.5t-53.5 81t-22 110.5
q0 153 111 238q113 88 278 88q125 0 227 -56.5t162 -160.5l-225 -123q-49 104 -164 104q-52 0 -85 -23t-33 -61z" />
    <glyph glyph-name="uni0456" unicode="&#x456;" horiz-adv-x="505" 
d="M252 1147q-66 0 -114 48t-48 114t48 115t114 49q67 0 115.5 -49t48.5 -115t-48.5 -114t-115.5 -48zM385 0h-264v1024h264v-1024z" />
    <glyph glyph-name="uni0457" unicode="&#x457;" horiz-adv-x="505" 
d="M154 1163q-38 -38 -96 -38t-99 38q-41 41 -41 98.5t41 98.5t99 41t96 -41q41 -41 41 -98.5t-41 -98.5zM543 1163q-38 -38 -96 -38t-99 38q-41 41 -41 98.5t41 98.5t99 41t96 -41q41 -41 41 -98.5t-41 -98.5zM385 0h-264v1024h264v-1024z" />
    <glyph glyph-name="uni0458" unicode="&#x458;" horiz-adv-x="540" 
d="M289 1147q-67 0 -115.5 48t-48.5 114t48.5 115t115.5 49q66 0 114 -49t48 -115t-48 -114t-114 -48zM156 -20v1044h264v-1044q0 -226 -110 -328.5t-337 -89.5v254q94 -6 138.5 33t44.5 131z" />
    <glyph glyph-name="uni0459" unicode="&#x459;" horiz-adv-x="1564" 
d="M979 672h188q161 0 256 -90.5t95 -245.5q0 -154 -96 -245t-255 -91h-452v770h-262v-342q0 -235 -108 -344.5t-325 -95.5v248q85 -11 126.5 40t41.5 166v582h791v-352zM979 233h190q46 0 76.5 27.5t30.5 75.5t-30.5 75t-76.5 27h-190v-205z" />
    <glyph glyph-name="uni045A" unicode="&#x45a;" horiz-adv-x="1617" 
d="M1016 672h190q163 0 264 -92t101 -244t-102 -244t-263 -92h-454v424h-383v-424h-265v1024h265v-352h383v352h264v-352zM1016 233h190q46 0 76.5 27.5t30.5 75.5t-30.5 75t-76.5 27h-190v-205z" />
    <glyph glyph-name="uni045B" unicode="&#x45b;" horiz-adv-x="1193" 
d="M702 1053q172 0 279 -113q111 -114 111 -311v-629h-265v596q0 101 -55 156t-149 55q-105 0 -165.5 -64.5t-60.5 -189.5v-553h-264v1135h-127v172h127v127h264v-127h289v-172h-289v-228q96 146 305 146z" />
    <glyph glyph-name="uni045C" unicode="&#x45c;" horiz-adv-x="1075" 
d="M551 1434h317l-227 -281h-254zM641 518l424 -518h-307l-373 465v-465h-264v1024h264v-451l352 451h316z" />
    <glyph glyph-name="uni045E" unicode="&#x45e;" horiz-adv-x="1075" 
d="M242 1384h594v-229h-594v229zM561 336l227 688h283l-373 -1024q-155 -431 -540 -410v246q104 -2 164.5 38.5t97.5 137.5l-414 1012h281z" />
    <glyph glyph-name="uni045F" unicode="&#x45f;" horiz-adv-x="1177" 
d="M793 248v776h264v-1024h-338v-274h-258v274h-340v1024h264v-776h408z" />
    <glyph glyph-name="uni0490" unicode="&#x490;" horiz-adv-x="972" 
d="M666 1434v245h282v-516h-532v-1163h-283v1434h533z" />
    <glyph glyph-name="uni0491" unicode="&#x491;" horiz-adv-x="841" 
d="M563 1024v207h258v-461h-436v-770h-264v1024h442z" />
    <glyph glyph-name="Wgrave" unicode="&#x1e80;" horiz-adv-x="2045" 
d="M1251 1563h-254l-227 280h317zM432 0h322l268 946l270 -946h322l401 1434h-297l-274 -1063l-301 1063h-242l-299 -1063l-274 1063h-297z" />
    <glyph glyph-name="wgrave" unicode="&#x1e81;" horiz-adv-x="1576" 
d="M793 1434l163 -281h-254l-227 281h318zM1100 393l174 631h280l-325 -1024h-252l-189 621l-188 -621h-252l-325 1024h280l174 -629l187 629h249z" />
    <glyph glyph-name="Wacute" unicode="&#x1e82;" horiz-adv-x="2045" 
d="M920 1563l163 280h318l-227 -280h-254zM432 0h322l268 946l270 -946h322l401 1434h-297l-274 -1063l-301 1063h-242l-299 -1063l-274 1063h-297z" />
    <glyph glyph-name="wacute" unicode="&#x1e83;" horiz-adv-x="1576" 
d="M788 1434h318l-227 -281h-254zM1100 393l174 631h280l-325 -1024h-252l-189 621l-188 -621h-252l-325 1024h280l174 -629l187 629h249z" />
    <glyph glyph-name="Wdieresis" unicode="&#x1e84;" horiz-adv-x="2045" 
d="M985 1573q-38 -38 -95.5 -38t-98.5 38q-41 41 -41 98t41 98t98.5 41t95.5 -41q41 -41 41 -98t-41 -98zM1374 1573q-38 -38 -95.5 -38t-98.5 38q-41 41 -41 98t41 98t98.5 41t95.5 -41q41 -41 41 -98t-41 -98zM754 0h-322l-401 1434h297l274 -1063l299 1063h242l301 -1063
l274 1063h297l-401 -1434h-322l-270 946z" />
    <glyph glyph-name="wdieresis" unicode="&#x1e85;" horiz-adv-x="1576" 
d="M690 1163q-38 -38 -95.5 -38t-98.5 38q-41 41 -41 98.5t41 98.5t98.5 41t95.5 -41q41 -41 41 -98.5t-41 -98.5zM1079 1163q-38 -38 -95.5 -38t-98.5 38q-41 41 -41 98.5t41 98.5t98.5 41t95.5 -41q41 -41 41 -98.5t-41 -98.5zM1100 393l174 631h280l-325 -1024h-252
l-189 621l-188 -621h-252l-325 1024h280l174 -629l187 629h249z" />
    <glyph glyph-name="uni1EA0" unicode="&#x1ea0;" horiz-adv-x="1368" 
d="M682 -467q-66 0 -114 47t-48 111q0 65 48 112t114 47q67 0 115.5 -47t48.5 -112t-48.5 -111.5t-115.5 -46.5zM1362 0h-307l-86 258h-572l-86 -258h-305l502 1434h350zM684 1108l-197 -586h394z" />
    <glyph glyph-name="uni1EA1" unicode="&#x1ea1;" 
d="M616 -467q-66 0 -113.5 46.5t-47.5 111.5t47.5 112t113.5 47q67 0 115.5 -47t48.5 -112t-48.5 -111.5t-115.5 -46.5zM899 903v121h264v-1024h-264v121q-120 -150 -334 -150q-205 0 -352 156q-145 157 -145 385q0 226 145 383q149 158 352 158q214 0 334 -150zM412 303
q80 -80 202 -80q123 0 203 80q82 82 82 209q0 128 -82 207q-79 82 -203 82q-123 0 -202 -82q-80 -80 -80 -207q0 -126 80 -209z" />
    <glyph glyph-name="uni1EA2" unicode="&#x1ea2;" horiz-adv-x="1368" 
d="M770 1546h-174q0 58 7.5 89.5t21.5 45.5t43 29l18 12q25 15 25 43q0 25 -33 25q-29 0 -48.5 -12t-31.5 -47l-154 57q68 154 238 154q90 0 147.5 -45t57.5 -125q0 -108 -82 -152q-22 -10 -30.5 -25t-4.5 -49zM1362 0h-307l-86 258h-572l-86 -258h-305l502 1434h350z
M684 1108l-197 -586h394z" />
    <glyph glyph-name="uni1EA3" unicode="&#x1ea3;" 
d="M807 1137h-174q0 58 7.5 89t21 45t43.5 29l18 13q25 15 25 43q0 24 -33 24q-29 0 -48.5 -12t-31.5 -47l-154 57q68 154 238 154q90 0 147.5 -45t57.5 -125q0 -108 -82 -152q-23 -10 -31 -24.5t-4 -48.5zM899 903v121h264v-1024h-264v121q-120 -150 -334 -150
q-205 0 -352 156q-145 157 -145 385q0 226 145 383q149 158 352 158q214 0 334 -150zM412 303q80 -80 202 -80q123 0 203 80q82 82 82 209q0 128 -82 207q-79 82 -203 82q-123 0 -202 -82q-80 -80 -80 -207q0 -126 80 -209z" />
    <glyph glyph-name="uni1EA4" unicode="&#x1ea4;" horiz-adv-x="1368" 
d="M1362 0h-307l-86 258h-572l-86 -258h-305l502 1434h350zM684 1108l-197 -586h394zM760 1546l-82 125l-84 -125h-244l201 277h250l203 -277h-244zM920 1751l153 260h295l-211 -260h-237z" />
    <glyph glyph-name="uni1EA5" unicode="&#x1ea5;" 
d="M780 1137l-82 125l-84 -125h-243l200 276h250l203 -276h-244zM899 903v121h264v-1024h-264v121q-120 -150 -334 -150q-205 0 -352 156q-145 157 -145 385q0 226 145 383q149 158 352 158q214 0 334 -150zM412 303q80 -80 202 -80q123 0 203 80q82 82 82 209
q0 128 -82 207q-79 82 -203 82q-123 0 -202 -82q-80 -80 -80 -207q0 -126 80 -209zM940 1341l154 261h295l-211 -261h-238z" />
    <glyph glyph-name="uni1EA6" unicode="&#x1ea6;" horiz-adv-x="1368" 
d="M1362 0h-307l-86 258h-572l-86 -258h-305l502 1434h350zM684 1108l-197 -586h394zM760 1546l-82 125l-84 -125h-244l201 277h250l203 -277h-244zM1171 1751h-237l-211 260h295z" />
    <glyph glyph-name="uni1EA7" unicode="&#x1ea7;" 
d="M780 1137l-82 125l-84 -125h-243l200 276h250l203 -276h-244zM899 903v121h264v-1024h-264v121q-120 -150 -334 -150q-205 0 -352 156q-145 157 -145 385q0 226 145 383q149 158 352 158q214 0 334 -150zM412 303q80 -80 202 -80q123 0 203 80q82 82 82 209
q0 128 -82 207q-79 82 -203 82q-123 0 -202 -82q-80 -80 -80 -207q0 -126 80 -209zM1192 1341h-238l-211 261h295z" />
    <glyph glyph-name="uni1EA8" unicode="&#x1ea8;" horiz-adv-x="1368" 
d="M1362 0h-307l-86 258h-572l-86 -258h-305l502 1434h350zM684 1108l-197 -586h394zM760 1546l-82 125l-84 -125h-244l201 277h250l203 -277h-244zM1071 1751h-162q0 77 14 104.5t54 49.5l16 10q23 14 23 41q0 22 -29 22q-55 0 -76 -55l-141 53q63 144 219 144
q84 0 137.5 -42.5t53.5 -117.5q0 -102 -76 -139q-20 -10 -28 -24t-5 -46z" />
    <glyph glyph-name="uni1EA9" unicode="&#x1ea9;" 
d="M780 1137l-82 125l-84 -125h-243l200 276h250l203 -276h-244zM899 903v121h264v-1024h-264v121q-120 -150 -334 -150q-205 0 -352 156q-145 157 -145 385q0 226 145 383q149 158 352 158q214 0 334 -150zM412 303q80 -80 202 -80q123 0 203 80q82 82 82 209
q0 128 -82 207q-79 82 -203 82q-123 0 -202 -82q-80 -80 -80 -207q0 -126 80 -209zM1092 1341h-162q0 77 13.5 104.5t53.5 49.5l17 10q22 13 22 41q0 23 -28 23q-55 0 -76 -56l-141 54q62 143 219 143q84 0 137 -42.5t53 -117.5q0 -102 -76 -139q-20 -10 -27.5 -24t-4.5 -46
z" />
    <glyph glyph-name="uni1EAA" unicode="&#x1eaa;" horiz-adv-x="1368" 
d="M1362 0h-307l-86 258h-572l-86 -258h-305l502 1434h350zM684 1108l-197 -586h394zM760 1546l-82 125l-84 -125h-244l201 277h250l203 -277h-244zM569 1874h-192q0 84 19.5 144t52.5 90t76.5 39t91 -4t96.5 -44q54 -40 75 -31.5t21 74.5h192q0 -106 -30 -172.5
t-78.5 -87.5t-107 -11.5t-119.5 48.5q-52 40 -74.5 30.5t-22.5 -75.5z" />
    <glyph glyph-name="uni1EAB" unicode="&#x1eab;" 
d="M780 1137l-82 125l-84 -125h-243l200 276h250l203 -276h-244zM899 903v121h264v-1024h-264v121q-120 -150 -334 -150q-205 0 -352 156q-145 157 -145 385q0 226 145 383q149 158 352 158q214 0 334 -150zM412 303q80 -80 202 -80q123 0 203 80q82 82 82 209
q0 128 -82 207q-79 82 -203 82q-123 0 -202 -82q-80 -80 -80 -207q0 -126 80 -209zM590 1464h-193q0 84 19.5 144t52.5 90t76.5 39.5t91 -3.5t96.5 -44q54 -40 75 -31.5t21 74.5h193q0 -86 -20 -146t-53 -89.5t-76.5 -37.5t-91 5t-95.5 44q-52 39 -74 30t-22 -75z" />
    <glyph glyph-name="uni1EAC" unicode="&#x1eac;" horiz-adv-x="1368" 
d="M1362 0h-307l-86 258h-572l-86 -258h-305l502 1434h350zM684 1108l-197 -586h394zM760 1546l-82 125l-84 -125h-244l201 277h250l203 -277h-244zM682 -467q-66 0 -114 47t-48 111q0 65 48 112t114 47q67 0 115.5 -47t48.5 -112t-48.5 -111.5t-115.5 -46.5z" />
    <glyph glyph-name="uni1EAD" unicode="&#x1ead;" 
d="M780 1137l-82 125l-84 -125h-243l200 276h250l203 -276h-244zM899 903v121h264v-1024h-264v121q-120 -150 -334 -150q-205 0 -352 156q-145 157 -145 385q0 226 145 383q149 158 352 158q214 0 334 -150zM412 303q80 -80 202 -80q123 0 203 80q82 82 82 209
q0 128 -82 207q-79 82 -203 82q-123 0 -202 -82q-80 -80 -80 -207q0 -126 80 -209zM616 -467q-66 0 -113.5 46.5t-47.5 111.5t47.5 112t113.5 47q67 0 115.5 -47t48.5 -112t-48.5 -111.5t-115.5 -46.5z" />
    <glyph glyph-name="uni1EAE" unicode="&#x1eae;" horiz-adv-x="1368" 
d="M1362 0h-307l-86 258h-572l-86 -258h-305l502 1434h350zM684 1108l-197 -586h394zM684 1530q-151 0 -234 72t-83 204h219q0 -100 98 -100t98 100h219q0 -132 -82.5 -204t-234.5 -72zM561 1845l154 260h295l-211 -260h-238z" />
    <glyph glyph-name="uni1EAF" unicode="&#x1eaf;" 
d="M719 1120q-151 0 -234.5 72.5t-83.5 204.5h220q0 -101 98 -101t98 101h219q0 -132 -82.5 -204.5t-234.5 -72.5zM899 903v121h264v-1024h-264v121q-120 -150 -334 -150q-205 0 -352 156q-145 157 -145 385q0 226 145 383q149 158 352 158q214 0 334 -150zM412 303
q80 -80 202 -80q123 0 203 80q82 82 82 209q0 128 -82 207q-79 82 -203 82q-123 0 -202 -82q-80 -80 -80 -207q0 -126 80 -209zM596 1436l154 260h294l-210 -260h-238z" />
    <glyph glyph-name="uni1EB0" unicode="&#x1eb0;" horiz-adv-x="1368" 
d="M1362 0h-307l-86 258h-572l-86 -258h-305l502 1434h350zM684 1108l-197 -586h394zM684 1530q-151 0 -234 72t-83 204h219q0 -100 98 -100t98 100h219q0 -132 -82.5 -204t-234.5 -72zM819 1845h-237l-211 260h295z" />
    <glyph glyph-name="uni1EB1" unicode="&#x1eb1;" 
d="M719 1120q-151 0 -234.5 72.5t-83.5 204.5h220q0 -101 98 -101t98 101h219q0 -132 -82.5 -204.5t-234.5 -72.5zM899 903v121h264v-1024h-264v121q-120 -150 -334 -150q-205 0 -352 156q-145 157 -145 385q0 226 145 383q149 158 352 158q214 0 334 -150zM412 303
q80 -80 202 -80q123 0 203 80q82 82 82 209q0 128 -82 207q-79 82 -203 82q-123 0 -202 -82q-80 -80 -80 -207q0 -126 80 -209zM854 1436h-238l-210 260h294z" />
    <glyph glyph-name="uni1EB2" unicode="&#x1eb2;" horiz-adv-x="1368" 
d="M1362 0h-307l-86 258h-572l-86 -258h-305l502 1434h350zM684 1108l-197 -586h394zM684 1530q-151 0 -234 72t-83 204h219q0 -100 98 -100t98 100h219q0 -132 -82.5 -204t-234.5 -72zM768 1845h-162q0 77 14 104.5t54 49.5l16 10q23 14 23 41q0 23 -29 23q-55 0 -76 -56
l-141 54q62 143 219 143q84 0 137.5 -42.5t53.5 -117.5q0 -102 -76 -139q-20 -10 -28 -24t-5 -46z" />
    <glyph glyph-name="uni1EB3" unicode="&#x1eb3;" 
d="M719 1120q-151 0 -234.5 72.5t-83.5 204.5h220q0 -101 98 -101t98 101h219q0 -132 -82.5 -204.5t-234.5 -72.5zM899 903v121h264v-1024h-264v121q-120 -150 -334 -150q-205 0 -352 156q-145 157 -145 385q0 226 145 383q149 158 352 158q214 0 334 -150zM412 303
q80 -80 202 -80q123 0 203 80q82 82 82 209q0 128 -82 207q-79 82 -203 82q-123 0 -202 -82q-80 -80 -80 -207q0 -126 80 -209zM803 1436h-162q0 53 7.5 82.5t20 42.5t40.5 28l16 10q23 14 23 41q0 23 -29 23q-55 0 -76 -55l-141 53q62 143 219 143q84 0 137 -42t53 -117
q0 -103 -75 -140q-21 -10 -28.5 -23.5t-4.5 -45.5z" />
    <glyph glyph-name="uni1EB4" unicode="&#x1eb4;" horiz-adv-x="1368" 
d="M1362 0h-307l-86 258h-572l-86 -258h-305l502 1434h350zM684 1108l-197 -586h394zM684 1530q-151 0 -234 72t-83 204h219q0 -100 98 -100t98 100h219q0 -132 -82.5 -204t-234.5 -72zM569 1841h-192q0 84 19.5 144t52.5 90t76.5 39t91 -4t96.5 -44q54 -40 75 -31.5
t21 74.5h192q0 -106 -30 -172.5t-78.5 -87.5t-107 -11.5t-119.5 48.5q-52 40 -74.5 30.5t-22.5 -75.5z" />
    <glyph glyph-name="uni1EB5" unicode="&#x1eb5;" 
d="M719 1120q-151 0 -234.5 72.5t-83.5 204.5h220q0 -101 98 -101t98 101h219q0 -132 -82.5 -204.5t-234.5 -72.5zM899 903v121h264v-1024h-264v121q-120 -150 -334 -150q-205 0 -352 156q-145 157 -145 385q0 226 145 383q149 158 352 158q214 0 334 -150zM412 303
q80 -80 202 -80q123 0 203 80q82 82 82 209q0 128 -82 207q-79 82 -203 82q-123 0 -202 -82q-80 -80 -80 -207q0 -126 80 -209zM604 1432h-192q0 84 19.5 144t52.5 90t76.5 39t91 -4t96.5 -44q54 -40 75 -31.5t21 74.5h192q0 -86 -20 -146t-53 -89t-76.5 -37t-91 5t-95.5 44
q-52 39 -74 30t-22 -75z" />
    <glyph glyph-name="uni1EB6" unicode="&#x1eb6;" horiz-adv-x="1368" 
d="M1362 0h-307l-86 258h-572l-86 -258h-305l502 1434h350zM684 1108l-197 -586h394zM684 1530q-151 0 -234 72t-83 204h219q0 -100 98 -100t98 100h219q0 -132 -82.5 -204t-234.5 -72zM682 -467q-66 0 -114 47t-48 111q0 65 48 112t114 47q67 0 115.5 -47t48.5 -112
t-48.5 -111.5t-115.5 -46.5z" />
    <glyph glyph-name="uni1EB7" unicode="&#x1eb7;" 
d="M719 1120q-151 0 -234.5 72.5t-83.5 204.5h220q0 -101 98 -101t98 101h219q0 -132 -82.5 -204.5t-234.5 -72.5zM899 903v121h264v-1024h-264v121q-120 -150 -334 -150q-205 0 -352 156q-145 157 -145 385q0 226 145 383q149 158 352 158q214 0 334 -150zM412 303
q80 -80 202 -80q123 0 203 80q82 82 82 209q0 128 -82 207q-79 82 -203 82q-123 0 -202 -82q-80 -80 -80 -207q0 -126 80 -209zM616 -467q-66 0 -113.5 46.5t-47.5 111.5t47.5 112t113.5 47q67 0 115.5 -47t48.5 -112t-48.5 -111.5t-115.5 -46.5z" />
    <glyph glyph-name="uni1EB8" unicode="&#x1eb8;" horiz-adv-x="1085" 
d="M573 -467q-66 0 -113.5 46.5t-47.5 111.5t47.5 112t113.5 47q67 0 115.5 -47t48.5 -112t-48.5 -111.5t-115.5 -46.5zM416 592v-322h604v-270h-887v1434h877v-271h-594v-305h542v-266h-542z" />
    <glyph glyph-name="uni1EB9" unicode="&#x1eb9;" horiz-adv-x="1189" 
d="M606 -467q-66 0 -114 47t-48 111q0 65 48 112t114 47q67 0 115.5 -47t48.5 -112t-48.5 -111.5t-115.5 -46.5zM1116 403h-772q52 -192 289 -192q153 0 229 102l213 -123q-151 -219 -446 -219q-254 0 -408 154q-153 153 -153 387q0 231 151 385q150 156 389 156
q227 0 371 -156q147 -156 147 -385q0 -44 -10 -109zM340 608h522q-23 101 -91.5 154t-162.5 53q-105 0 -175 -54t-93 -153z" />
    <glyph glyph-name="uni1EBA" unicode="&#x1eba;" horiz-adv-x="1085" 
d="M690 1546h-174q0 58 7.5 89.5t21.5 45.5t43 29l18 12q25 15 25 43q0 25 -33 25q-29 0 -48.5 -12t-31.5 -47l-153 57q68 154 237 154q90 0 147.5 -45t57.5 -125q0 -108 -82 -152q-22 -10 -30.5 -25t-4.5 -49zM416 592v-322h604v-270h-887v1434h877v-271h-594v-305h542
v-266h-542z" />
    <glyph glyph-name="uni1EBB" unicode="&#x1ebb;" horiz-adv-x="1189" 
d="M743 1137h-174q0 58 7.5 89t21 45t43.5 29l18 13q25 15 25 43q0 24 -33 24q-29 0 -48.5 -12t-31.5 -47l-153 57q68 154 237 154q90 0 147.5 -45t57.5 -125q0 -108 -82 -152q-23 -10 -31 -24.5t-4 -48.5zM1116 403h-772q52 -192 289 -192q153 0 229 102l213 -123
q-151 -219 -446 -219q-254 0 -408 154q-153 153 -153 387q0 231 151 385q150 156 389 156q227 0 371 -156q147 -156 147 -385q0 -44 -10 -109zM340 608h522q-23 101 -91.5 154t-162.5 53q-105 0 -175 -54t-93 -153z" />
    <glyph glyph-name="uni1EBC" unicode="&#x1ebc;" horiz-adv-x="1085" 
d="M416 592v-322h604v-270h-887v1434h877v-271h-594v-305h542v-266h-542zM436 1556h-213q0 93 22 160t59 100t85 42.5t101 -5t106 -49.5q60 -42 83 -32.5t23 81.5h216q0 -95 -22 -162t-59 -99t-85.5 -41t-101 6t-105.5 49q-60 42 -84.5 32t-24.5 -82z" />
    <glyph glyph-name="uni1EBD" unicode="&#x1ebd;" horiz-adv-x="1189" 
d="M1116 403h-772q52 -192 289 -192q153 0 229 102l213 -123q-151 -219 -446 -219q-254 0 -408 154q-153 153 -153 387q0 231 151 385q150 156 389 156q227 0 371 -156q147 -156 147 -385q0 -44 -10 -109zM340 608h522q-23 101 -91.5 154t-162.5 53q-105 0 -175 -54
t-93 -153zM461 1155h-213q0 93 22 160t59 100t85 42.5t101 -5t106 -49.5q60 -42 83 -32.5t23 81.5h215q0 -95 -22 -162t-59 -99.5t-85.5 -41.5t-101 6t-105.5 49q-60 43 -84 33t-24 -82z" />
    <glyph glyph-name="uni1EBE" unicode="&#x1ebe;" horiz-adv-x="1085" 
d="M647 1546l-82 125l-84 -125h-243l200 277h250l203 -277h-244zM416 592v-322h604v-270h-887v1434h877v-271h-594v-305h542v-266h-542zM807 1751l154 260h294l-211 -260h-237z" />
    <glyph glyph-name="uni1EBF" unicode="&#x1ebf;" horiz-adv-x="1189" 
d="M696 1145l-82 125l-84 -125h-243l200 276h250l203 -276h-244zM1116 403h-772q52 -192 289 -192q153 0 229 102l213 -123q-151 -219 -446 -219q-254 0 -408 154q-153 153 -153 387q0 231 151 385q150 156 389 156q227 0 371 -156q147 -156 147 -385q0 -44 -10 -109z
M340 608h522q-23 101 -91.5 154t-162.5 53q-105 0 -175 -54t-93 -153zM856 1350l154 260h295l-211 -260h-238z" />
    <glyph glyph-name="uni1EC0" unicode="&#x1ec0;" horiz-adv-x="1085" 
d="M647 1546l-82 125l-84 -125h-243l200 277h250l203 -277h-244zM416 592v-322h604v-270h-887v1434h877v-271h-594v-305h542v-266h-542zM1059 1751h-238l-211 260h295z" />
    <glyph glyph-name="uni1EC1" unicode="&#x1ec1;" horiz-adv-x="1189" 
d="M696 1145l-82 125l-84 -125h-243l200 276h250l203 -276h-244zM1116 403h-772q52 -192 289 -192q153 0 229 102l213 -123q-151 -219 -446 -219q-254 0 -408 154q-153 153 -153 387q0 231 151 385q150 156 389 156q227 0 371 -156q147 -156 147 -385q0 -44 -10 -109z
M340 608h522q-23 101 -91.5 154t-162.5 53q-105 0 -175 -54t-93 -153zM1108 1350h-238l-211 260h295z" />
    <glyph glyph-name="uni1EC2" unicode="&#x1ec2;" horiz-adv-x="1085" 
d="M647 1546l-82 125l-84 -125h-243l200 277h250l203 -277h-244zM416 592v-322h604v-270h-887v1434h877v-271h-594v-305h542v-266h-542zM958 1751h-161q0 77 13.5 104.5t53.5 49.5l17 10q22 13 22 41q0 22 -29 22q-27 0 -45 -11t-30 -44l-142 53q63 144 220 144
q84 0 137 -42.5t53 -117.5q0 -102 -76 -139q-20 -10 -28 -24t-5 -46z" />
    <glyph glyph-name="uni1EC3" unicode="&#x1ec3;" horiz-adv-x="1189" 
d="M696 1145l-82 125l-84 -125h-243l200 276h250l203 -276h-244zM1116 403h-772q52 -192 289 -192q153 0 229 102l213 -123q-151 -219 -446 -219q-254 0 -408 154q-153 153 -153 387q0 231 151 385q150 156 389 156q227 0 371 -156q147 -156 147 -385q0 -44 -10 -109z
M340 608h522q-23 101 -91.5 154t-162.5 53q-105 0 -175 -54t-93 -153zM1008 1350h-162q0 77 13.5 104t53.5 49l17 10q22 13 22 41q0 23 -28 23q-55 0 -76 -55l-141 53q62 143 219 143q84 0 137 -42t53 -117q0 -52 -21.5 -88t-54.5 -52q-20 -10 -27.5 -23.5t-4.5 -45.5z" />
    <glyph glyph-name="uni1EC4" unicode="&#x1ec4;" horiz-adv-x="1085" 
d="M647 1546l-82 125l-84 -125h-243l200 277h250l203 -277h-244zM416 592v-322h604v-270h-887v1434h877v-271h-594v-305h542v-266h-542zM457 1874h-193q0 84 19.5 144t52.5 90t76.5 39t91 -4t96.5 -44q54 -40 75 -31.5t21 74.5h193q0 -86 -20 -146t-53 -89t-76.5 -37t-91 5
t-95.5 44q-53 39 -74.5 30t-21.5 -75z" />
    <glyph glyph-name="uni1EC5" unicode="&#x1ec5;" horiz-adv-x="1189" 
d="M696 1145l-82 125l-84 -125h-243l200 276h250l203 -276h-244zM1116 403h-772q52 -192 289 -192q153 0 229 102l213 -123q-151 -219 -446 -219q-254 0 -408 154q-153 153 -153 387q0 231 151 385q150 156 389 156q227 0 371 -156q147 -156 147 -385q0 -44 -10 -109z
M340 608h522q-23 101 -91.5 154t-162.5 53q-105 0 -175 -54t-93 -153zM506 1473h-193q0 84 19.5 144t52.5 90t76.5 39t91 -4t96.5 -44q54 -40 75 -31.5t21 74.5h193q0 -86 -20 -146t-53 -89t-76.5 -37t-91 5t-95.5 44q-52 39 -74 30t-22 -75z" />
    <glyph glyph-name="uni1EC6" unicode="&#x1ec6;" horiz-adv-x="1085" 
d="M647 1546l-82 125l-84 -125h-243l200 277h250l203 -277h-244zM416 592v-322h604v-270h-887v1434h877v-271h-594v-305h542v-266h-542zM573 -467q-66 0 -113.5 46.5t-47.5 111.5t47.5 112t113.5 47q67 0 115.5 -47t48.5 -112t-48.5 -111.5t-115.5 -46.5z" />
    <glyph glyph-name="uni1EC7" unicode="&#x1ec7;" horiz-adv-x="1189" 
d="M696 1145l-82 125l-84 -125h-243l200 276h250l203 -276h-244zM1116 403h-772q52 -192 289 -192q153 0 229 102l213 -123q-151 -219 -446 -219q-254 0 -408 154q-153 153 -153 387q0 231 151 385q150 156 389 156q227 0 371 -156q147 -156 147 -385q0 -44 -10 -109z
M340 608h522q-23 101 -91.5 154t-162.5 53q-105 0 -175 -54t-93 -153zM606 -467q-66 0 -114 47t-48 111q0 65 48 112t114 47q67 0 115.5 -47t48.5 -112t-48.5 -111.5t-115.5 -46.5z" />
    <glyph glyph-name="uni1EC8" unicode="&#x1ec8;" horiz-adv-x="548" 
d="M360 1546h-174q0 58 7.5 89.5t21.5 45.5t43 29l18 12q25 15 25 43q0 25 -33 25q-29 0 -48.5 -12t-31.5 -47l-153 57q68 154 237 154q90 0 147.5 -45t57.5 -125q0 -108 -82 -152q-22 -10 -30.5 -25t-4.5 -49zM133 0v1434h283v-1434h-283z" />
    <glyph glyph-name="uni1EC9" unicode="&#x1ec9;" horiz-adv-x="505" 
d="M385 0h-264v1024h264v-1024zM342 1137h-174q0 58 7.5 89t21 45t43.5 29l18 13q25 15 25 43q0 24 -33 24q-29 0 -48.5 -12t-31.5 -47l-154 57q68 154 238 154q90 0 147.5 -45t57.5 -125q0 -108 -82 -152q-23 -10 -31 -24.5t-4 -48.5z" />
    <glyph glyph-name="uni1ECA" unicode="&#x1eca;" horiz-adv-x="548" 
d="M276 -467q-66 0 -113.5 46.5t-47.5 111.5t47.5 112t113.5 47q67 0 115.5 -47t48.5 -112t-48.5 -111.5t-115.5 -46.5zM133 0v1434h283v-1434h-283z" />
    <glyph glyph-name="uni1ECB" unicode="&#x1ecb;" horiz-adv-x="505" 
d="M256 -467q-66 0 -114 47t-48 111q0 65 48 112t114 47q67 0 115.5 -47t48.5 -112t-48.5 -111.5t-115.5 -46.5zM252 1114q-66 0 -114 47t-48 111q0 65 48 112.5t114 47.5q67 0 115.5 -47.5t48.5 -112.5t-48.5 -111.5t-115.5 -46.5zM385 0h-264v1024h264v-1024z" />
    <glyph glyph-name="uni1ECC" unicode="&#x1ecc;" horiz-adv-x="1622" 
d="M809 -467q-66 0 -114 47t-48 111q0 65 48 112t114 47q67 0 115.5 -47t48.5 -112t-48.5 -111.5t-115.5 -46.5zM1339 186q-218 -215 -528 -215t-528 215q-215 218 -215 531t215 528q217 217 528 217t528 -217q217 -214 217 -528t-217 -531zM481 379q131 -131 330 -131
t330 131q133 133 133 338t-133 338t-330 133t-330 -133t-133 -338t133 -338z" />
    <glyph glyph-name="uni1ECD" unicode="&#x1ecd;" horiz-adv-x="1216" 
d="M608 -467q-66 0 -114 47t-48 111q0 65 48 112t114 47q67 0 115.5 -47t48.5 -112t-48.5 -111.5t-115.5 -46.5zM993 127q-156 -156 -385 -156t-385 156q-155 155 -155 385q0 228 155 383q158 158 385 158t385 -158t158 -383q0 -227 -158 -385zM410 309q80 -80 198 -80
q119 0 199 80t80 203t-80 203t-199 80q-118 0 -198 -80q-78 -81 -78 -203t78 -203z" />
    <glyph glyph-name="uni1ECE" unicode="&#x1ece;" horiz-adv-x="1622" 
d="M1339 186q-218 -215 -528 -215t-528 215q-215 218 -215 531t215 528q217 217 528 217t528 -217q217 -214 217 -528t-217 -531zM481 379q131 -131 330 -131t330 131q133 133 133 338t-133 338t-330 133t-330 -133t-133 -338t133 -338zM946 1546h-174q0 58 7.5 89.5
t21.5 45.5t43 29l18 12q25 15 25 43q0 25 -33 25q-29 0 -48.5 -12t-31.5 -47l-153 57q68 154 237 154q90 0 147.5 -45t57.5 -125q0 -108 -82 -152q-22 -10 -30.5 -25t-4.5 -49z" />
    <glyph glyph-name="uni1ECF" unicode="&#x1ecf;" horiz-adv-x="1216" 
d="M743 1137h-174q0 58 7.5 89t21 45t43.5 29l18 13q25 15 25 43q0 24 -33 24q-29 0 -48.5 -12t-31.5 -47l-153 57q68 154 237 154q90 0 147.5 -45t57.5 -125q0 -108 -82 -152q-23 -10 -31 -24.5t-4 -48.5zM993 127q-156 -156 -385 -156t-385 156q-155 155 -155 385
q0 228 155 383q158 158 385 158t385 -158t158 -383q0 -227 -158 -385zM410 309q80 -80 198 -80q119 0 199 80t80 203t-80 203t-199 80q-118 0 -198 -80q-78 -81 -78 -203t78 -203z" />
    <glyph glyph-name="uni1ED0" unicode="&#x1ed0;" horiz-adv-x="1622" 
d="M283 1245q217 217 528 217t528 -217q217 -214 217 -528t-217 -531q-218 -215 -528 -215t-528 215q-215 218 -215 531t215 528zM481 379q131 -131 330 -131t330 131q133 133 133 338t-133 338t-330 133t-330 -133t-133 -338t133 -338zM897 1563l-82 125l-84 -125h-244
l201 276h250l203 -276h-244zM1057 1767l153 261h295l-211 -261h-237z" />
    <glyph glyph-name="uni1ED1" unicode="&#x1ed1;" horiz-adv-x="1216" 
d="M692 1153l-82 125l-84 -125h-243l200 277h250l203 -277h-244zM223 895q158 158 385 158t385 -158t158 -383q0 -227 -158 -385q-156 -156 -385 -156t-385 156q-155 155 -155 385q0 228 155 383zM410 309q80 -80 198 -80q119 0 199 80t80 203t-80 203t-199 80
q-118 0 -198 -80q-78 -81 -78 -203t78 -203zM852 1358l154 260h294l-210 -260h-238z" />
    <glyph glyph-name="uni1ED2" unicode="&#x1ed2;" horiz-adv-x="1622" 
d="M283 1245q217 217 528 217t528 -217q217 -214 217 -528t-217 -531q-218 -215 -528 -215t-528 215q-215 218 -215 531t215 528zM481 379q131 -131 330 -131t330 131q133 133 133 338t-133 338t-330 133t-330 -133t-133 -338t133 -338zM897 1563l-82 125l-84 -125h-244
l201 276h250l203 -276h-244zM1309 1767h-238l-211 261h295z" />
    <glyph glyph-name="uni1ED3" unicode="&#x1ed3;" horiz-adv-x="1216" 
d="M692 1153l-82 125l-84 -125h-243l200 277h250l203 -277h-244zM223 895q158 158 385 158t385 -158t158 -383q0 -227 -158 -385q-156 -156 -385 -156t-385 156q-155 155 -155 385q0 228 155 383zM410 309q80 -80 198 -80q119 0 199 80t80 203t-80 203t-199 80
q-118 0 -198 -80q-78 -81 -78 -203t78 -203zM1104 1358h-238l-211 260h295z" />
    <glyph glyph-name="uni1ED4" unicode="&#x1ed4;" horiz-adv-x="1622" 
d="M283 1245q217 217 528 217t528 -217q217 -214 217 -528t-217 -531q-218 -215 -528 -215t-528 215q-215 218 -215 531t215 528zM481 379q131 -131 330 -131t330 131q133 133 133 338t-133 338t-330 133t-330 -133t-133 -338t133 -338zM897 1563l-82 125l-84 -125h-244
l201 276h250l203 -276h-244zM1208 1767h-161q0 77 13.5 104.5t53.5 49.5l16 10q23 14 23 41q0 23 -29 23q-54 0 -75 -56l-142 54q62 143 219 143q84 0 137.5 -42.5t53.5 -117.5q0 -102 -76 -139q-20 -10 -28 -24t-5 -46z" />
    <glyph glyph-name="uni1ED5" unicode="&#x1ed5;" horiz-adv-x="1216" 
d="M692 1153l-82 125l-84 -125h-243l200 277h250l203 -277h-244zM223 895q158 158 385 158t385 -158t158 -383q0 -227 -158 -385q-156 -156 -385 -156t-385 156q-155 155 -155 385q0 228 155 383zM410 309q80 -80 198 -80q119 0 199 80t80 203t-80 203t-199 80
q-118 0 -198 -80q-78 -81 -78 -203t78 -203zM1004 1358h-162q0 77 13.5 104t53.5 49l17 11q22 13 22 41q0 22 -28 22q-55 0 -76 -55l-142 53q62 143 220 143q84 0 137 -42t53 -117q0 -52 -21.5 -88t-54.5 -52q-20 -10 -27.5 -23.5t-4.5 -45.5z" />
    <glyph glyph-name="uni1ED6" unicode="&#x1ed6;" horiz-adv-x="1622" 
d="M283 1245q217 217 528 217t528 -217q217 -214 217 -528t-217 -531q-218 -215 -528 -215t-528 215q-215 218 -215 531t215 528zM481 379q131 -131 330 -131t330 131q133 133 133 338t-133 338t-330 133t-330 -133t-133 -338t133 -338zM897 1563l-82 125l-84 -125h-244
l201 276h250l203 -276h-244zM707 1890h-193q0 84 19.5 144t52.5 90t76.5 39.5t91 -3.5t96.5 -44q54 -40 75 -31.5t21 74.5h193q0 -86 -20 -146t-53 -89.5t-76.5 -37.5t-91 5t-95.5 44q-53 39 -74.5 30t-21.5 -75z" />
    <glyph glyph-name="uni1ED7" unicode="&#x1ed7;" horiz-adv-x="1216" 
d="M692 1153l-82 125l-84 -125h-243l200 277h250l203 -277h-244zM223 895q158 158 385 158t385 -158t158 -383q0 -227 -158 -385q-156 -156 -385 -156t-385 156q-155 155 -155 385q0 228 155 383zM410 309q80 -80 198 -80q119 0 199 80t80 203t-80 203t-199 80
q-118 0 -198 -80q-78 -81 -78 -203t78 -203zM502 1481h-193q0 84 19.5 144t52.5 90t76.5 39t91 -4t96.5 -44q54 -40 75 -31.5t21 74.5h193q0 -86 -20 -146t-53 -89t-76.5 -37t-91 5t-95.5 44q-52 39 -74 30t-22 -75z" />
    <glyph glyph-name="uni1ED8" unicode="&#x1ed8;" horiz-adv-x="1622" 
d="M897 1563l-82 125l-84 -125h-244l201 276h250l203 -276h-244zM283 1245q217 217 528 217t528 -217q217 -214 217 -528t-217 -531q-218 -215 -528 -215t-528 215q-215 218 -215 531t215 528zM481 379q131 -131 330 -131t330 131q133 133 133 338t-133 338t-330 133
t-330 -133t-133 -338t133 -338zM809 -467q-66 0 -114 47t-48 111q0 65 48 112t114 47q67 0 115.5 -47t48.5 -112t-48.5 -111.5t-115.5 -46.5z" />
    <glyph glyph-name="uni1ED9" unicode="&#x1ed9;" horiz-adv-x="1216" 
d="M692 1153l-82 125l-84 -125h-243l200 277h250l203 -277h-244zM223 895q158 158 385 158t385 -158t158 -383q0 -227 -158 -385q-156 -156 -385 -156t-385 156q-155 155 -155 385q0 228 155 383zM410 309q80 -80 198 -80q119 0 199 80t80 203t-80 203t-199 80
q-118 0 -198 -80q-78 -81 -78 -203t78 -203zM608 -492q-66 0 -114 47t-48 111q0 65 48 112.5t114 47.5q67 0 115.5 -47.5t48.5 -112.5t-48.5 -111.5t-115.5 -46.5z" />
    <glyph glyph-name="uni1EDA" unicode="&#x1eda;" horiz-adv-x="1622" 
d="M725 1579l164 281h317l-227 -281h-254zM1339 186q-218 -215 -528 -215t-528 215q-215 218 -215 531t215 528q217 217 528 217q107 0 213 -28h147q55 0 72 24t17 86v35h213v-35q0 -122 -35.5 -188t-120.5 -90q18 -18 22 -21q217 -214 217 -528t-217 -531zM481 379
q131 -131 330 -131t330 131q133 133 133 338t-133 338t-330 133t-330 -133t-133 -338t133 -338z" />
    <glyph glyph-name="uni1EDB" unicode="&#x1edb;" horiz-adv-x="1216" 
d="M510 1169l164 281h317l-227 -281h-254zM993 127q-156 -156 -385 -156t-385 156q-155 155 -155 385q0 228 155 383q158 158 385 158q91 0 180 -29h89q54 0 71 24.5t17 86.5v34h213v-34q0 -121 -34.5 -186t-117.5 -91q125 -146 125 -346q0 -227 -158 -385zM410 309
q80 -80 198 -80q119 0 199 80t80 203t-80 203t-199 80q-118 0 -198 -80q-78 -81 -78 -203t78 -203z" />
    <glyph glyph-name="uni1EDC" unicode="&#x1edc;" horiz-adv-x="1622" 
d="M1036 1579h-254l-227 281h317zM1339 186q-218 -215 -528 -215t-528 215q-215 218 -215 531t215 528q217 217 528 217q107 0 213 -28h147q55 0 72 24t17 86v35h213v-35q0 -122 -35.5 -188t-120.5 -90q18 -18 22 -21q217 -214 217 -528t-217 -531zM481 379
q131 -131 330 -131t330 131q133 133 133 338t-133 338t-330 133t-330 -133t-133 -338t133 -338z" />
    <glyph glyph-name="uni1EDD" unicode="&#x1edd;" horiz-adv-x="1216" 
d="M803 1169h-254l-227 281h317zM993 127q-156 -156 -385 -156t-385 156q-155 155 -155 385q0 228 155 383q158 158 385 158q91 0 180 -29h89q54 0 71 24.5t17 86.5v34h213v-34q0 -121 -34.5 -186t-117.5 -91q125 -146 125 -346q0 -227 -158 -385zM410 309q80 -80 198 -80
q119 0 199 80t80 203t-80 203t-199 80q-118 0 -198 -80q-78 -81 -78 -203t78 -203z" />
    <glyph glyph-name="uni1EDE" unicode="&#x1ede;" horiz-adv-x="1622" 
d="M946 1546h-174q0 58 7.5 89.5t21.5 45.5t43 29l18 12q25 15 25 43q0 25 -33 25q-29 0 -48.5 -12t-31.5 -47l-153 57q68 154 237 154q90 0 147.5 -45t57.5 -125q0 -108 -82 -152q-22 -10 -30.5 -25t-4.5 -49zM1339 186q-218 -215 -528 -215t-528 215q-215 218 -215 531
t215 528q217 217 528 217q107 0 213 -28h147q55 0 72 24t17 86v35h213v-35q0 -122 -35.5 -188t-120.5 -90q18 -18 22 -21q217 -214 217 -528t-217 -531zM481 379q131 -131 330 -131t330 131q133 133 133 338t-133 338t-330 133t-330 -133t-133 -338t133 -338z" />
    <glyph glyph-name="uni1EDF" unicode="&#x1edf;" horiz-adv-x="1216" 
d="M743 1137h-174q0 58 7.5 89t21 45t43.5 29l18 13q25 15 25 43q0 24 -33 24q-29 0 -48.5 -12t-31.5 -47l-153 57q68 154 237 154q90 0 147.5 -45t57.5 -125q0 -108 -82 -152q-23 -10 -31 -24.5t-4 -48.5zM993 127q-156 -156 -385 -156t-385 156q-155 155 -155 385
q0 228 155 383q158 158 385 158q91 0 180 -29h89q54 0 71 24.5t17 86.5v34h213v-34q0 -121 -34.5 -186t-117.5 -91q125 -146 125 -346q0 -227 -158 -385zM410 309q80 -80 198 -80q119 0 199 80t80 203t-80 203t-199 80q-118 0 -198 -80q-78 -81 -78 -203t78 -203z" />
    <glyph glyph-name="uni1EE0" unicode="&#x1ee0;" horiz-adv-x="1622" 
d="M676 1573h-213q0 93 22 160t59 100t85 42.5t101 -5t106 -49.5q60 -42 83 -32.5t23 81.5h215q0 -95 -22 -162t-59 -99.5t-85.5 -41.5t-101 6t-105.5 49q-60 43 -84 33t-24 -82zM1339 186q-218 -215 -528 -215t-528 215q-215 218 -215 531t215 528q217 217 528 217
q107 0 213 -28h147q55 0 72 24t17 86v35h213v-35q0 -122 -35.5 -188t-120.5 -90q18 -18 22 -21q217 -214 217 -528t-217 -531zM481 379q131 -131 330 -131t330 131q133 133 133 338t-133 338t-330 133t-330 -133t-133 -338t133 -338z" />
    <glyph glyph-name="uni1EE1" unicode="&#x1ee1;" horiz-adv-x="1216" 
d="M496 1163h-213q0 93 22 160t58.5 100t84.5 42.5t101 -5t106 -49.5q60 -43 83.5 -33t23.5 82h215q0 -95 -22 -162t-59 -99.5t-85.5 -41.5t-101 6t-105.5 49q-60 43 -84 33t-24 -82zM993 127q-156 -156 -385 -156t-385 156q-155 155 -155 385q0 228 155 383
q158 158 385 158q91 0 180 -29h89q54 0 71 24.5t17 86.5v34h213v-34q0 -121 -34.5 -186t-117.5 -91q125 -146 125 -346q0 -227 -158 -385zM410 309q80 -80 198 -80q119 0 199 80t80 203t-80 203t-199 80q-118 0 -198 -80q-78 -81 -78 -203t78 -203z" />
    <glyph glyph-name="uni1EE2" unicode="&#x1ee2;" horiz-adv-x="1622" 
d="M809 -467q-66 0 -114 47t-48 111q0 65 48 112t114 47q67 0 115.5 -47t48.5 -112t-48.5 -111.5t-115.5 -46.5zM1339 186q-218 -215 -528 -215t-528 215q-215 218 -215 531t215 528q217 217 528 217q107 0 213 -28h147q55 0 72 24t17 86v35h213v-35q0 -122 -35.5 -188
t-120.5 -90q18 -18 22 -21q217 -214 217 -528t-217 -531zM481 379q131 -131 330 -131t330 131q133 133 133 338t-133 338t-330 133t-330 -133t-133 -338t133 -338z" />
    <glyph glyph-name="uni1EE3" unicode="&#x1ee3;" horiz-adv-x="1216" 
d="M608 -467q-66 0 -114 47t-48 111q0 65 48 112t114 47q67 0 115.5 -47t48.5 -112t-48.5 -111.5t-115.5 -46.5zM993 127q-156 -156 -385 -156t-385 156q-155 155 -155 385q0 228 155 383q158 158 385 158q91 0 180 -29h89q54 0 71 24.5t17 86.5v34h213v-34
q0 -121 -34.5 -186t-117.5 -91q125 -146 125 -346q0 -227 -158 -385zM410 309q80 -80 198 -80q119 0 199 80t80 203t-80 203t-199 80q-118 0 -198 -80q-78 -81 -78 -203t78 -203z" />
    <glyph glyph-name="uni1EE4" unicode="&#x1ee4;" horiz-adv-x="1337" 
d="M668 -29q-241 0 -394 135t-153 363v965h280v-942q0 -116 67 -180t200 -64t199.5 64t66.5 180v942h283v-965q0 -227 -154 -363q-153 -135 -395 -135zM670 -467q-66 0 -114 47t-48 111q0 65 48 112t114 47q67 0 115.5 -47t48.5 -112t-48.5 -111.5t-115.5 -46.5z" />
    <glyph glyph-name="uni1EE5" unicode="&#x1ee5;" horiz-adv-x="1181" 
d="M543 -467q-66 0 -114 47t-48 111q0 65 48 112t114 47q67 0 115.5 -47t48.5 -112t-48.5 -111.5t-115.5 -46.5zM797 471v553h264v-1024h-264v115q-95 -144 -305 -144q-169 0 -279 113q-109 115 -109 311v629h265v-596q0 -101 54 -156t148 -55q105 0 165.5 64.5t60.5 189.5z
" />
    <glyph glyph-name="uni1EE6" unicode="&#x1ee6;" horiz-adv-x="1337" 
d="M768 1546h-174q0 58 7.5 89.5t21.5 45.5t43 29l18 12q25 15 25 43q0 25 -33 25q-29 0 -48.5 -12t-31.5 -47l-154 57q68 154 238 154q90 0 147.5 -45t57.5 -125q0 -108 -82 -152q-22 -10 -30.5 -25t-4.5 -49zM668 -29q-241 0 -394 135t-153 363v965h280v-942
q0 -116 67 -180t200 -64t199.5 64t66.5 180v942h283v-965q0 -227 -154 -363q-153 -135 -395 -135z" />
    <glyph glyph-name="uni1EE7" unicode="&#x1ee7;" horiz-adv-x="1181" 
d="M682 1137h-174q0 58 7.5 89t21 45t43.5 29l18 13q25 15 25 43q0 24 -33 24q-29 0 -48.5 -12t-31.5 -47l-154 57q68 154 238 154q90 0 147.5 -45t57.5 -125q0 -108 -82 -152q-23 -10 -31 -24.5t-4 -48.5zM797 471v553h264v-1024h-264v115q-95 -144 -305 -144
q-169 0 -279 113q-109 115 -109 311v629h265v-596q0 -101 54 -156t148 -55q105 0 165.5 64.5t60.5 189.5z" />
    <glyph glyph-name="uni1EE8" unicode="&#x1ee8;" horiz-adv-x="1337" 
d="M549 1563l164 280h317l-227 -280h-254zM668 -29q-241 0 -394 135t-153 363v965h280v-942q0 -116 67 -180t200 -64t199.5 64t66.5 180v942h178q48 1 63 25.5t15 84.5v35h213v-35q0 -133 -42 -199.5t-144 -84.5v-791q0 -227 -154 -363q-153 -135 -395 -135z" />
    <glyph glyph-name="uni1EE9" unicode="&#x1ee9;" horiz-adv-x="1181" 
d="M616 1434h318l-227 -281h-254zM797 471v553h176q48 1 63 26t15 85v34h213v-34q0 -138 -45.5 -205t-157.5 -84v-846h-264v115q-95 -144 -305 -144q-169 0 -279 113q-109 115 -109 311v629h265v-596q0 -101 54 -156t148 -55q105 0 165.5 64.5t60.5 189.5z" />
    <glyph glyph-name="uni1EEA" unicode="&#x1eea;" horiz-adv-x="1337" 
d="M836 1563h-254l-228 280h318zM668 -29q-241 0 -394 135t-153 363v965h280v-942q0 -116 67 -180t200 -64t199.5 64t66.5 180v942h178q48 1 63 25.5t15 84.5v35h213v-35q0 -133 -42 -199.5t-144 -84.5v-791q0 -227 -154 -363q-153 -135 -395 -135z" />
    <glyph glyph-name="uni1EEB" unicode="&#x1eeb;" horiz-adv-x="1181" 
d="M586 1434l164 -281h-254l-228 281h318zM797 471v553h176q48 1 63 26t15 85v34h213v-34q0 -138 -45.5 -205t-157.5 -84v-846h-264v115q-95 -144 -305 -144q-169 0 -279 113q-109 115 -109 311v629h265v-596q0 -101 54 -156t148 -55q105 0 165.5 64.5t60.5 189.5z" />
    <glyph glyph-name="uni1EEC" unicode="&#x1eec;" horiz-adv-x="1337" 
d="M768 1546h-174q0 58 7.5 89.5t21.5 45.5t43 29l18 12q25 15 25 43q0 25 -33 25q-29 0 -48.5 -12t-31.5 -47l-154 57q68 154 238 154q90 0 147.5 -45t57.5 -125q0 -108 -82 -152q-22 -10 -30.5 -25t-4.5 -49zM668 -29q-241 0 -394 135t-153 363v965h280v-942
q0 -116 67 -180t200 -64t199.5 64t66.5 180v942h178q48 1 63 25.5t15 84.5v35h213v-35q0 -133 -42 -199.5t-144 -84.5v-791q0 -227 -154 -363q-153 -135 -395 -135z" />
    <glyph glyph-name="uni1EED" unicode="&#x1eed;" horiz-adv-x="1181" 
d="M682 1137h-174q0 58 7.5 89t21 45t43.5 29l18 13q25 15 25 43q0 24 -33 24q-29 0 -48.5 -12t-31.5 -47l-154 57q68 154 238 154q90 0 147.5 -45t57.5 -125q0 -108 -82 -152q-23 -10 -31 -24.5t-4 -48.5zM797 471v553h176q48 1 63 26t15 85v34h213v-34q0 -138 -45.5 -205
t-157.5 -84v-846h-264v115q-95 -144 -305 -144q-169 0 -279 113q-109 115 -109 311v629h265v-596q0 -101 54 -156t148 -55q105 0 165.5 64.5t60.5 189.5z" />
    <glyph glyph-name="uni1EEE" unicode="&#x1eee;" horiz-adv-x="1337" 
d="M668 -29q-241 0 -394 135t-153 363v965h280v-942q0 -116 67 -180t200 -64t199.5 64t66.5 180v942h178q48 1 63 25.5t15 84.5v35h213v-35q0 -133 -42 -199.5t-144 -84.5v-791q0 -227 -154 -363q-153 -135 -395 -135zM532 1556h-213q0 93 22 160t59 100t85 42.5t101 -5
t106 -49.5q60 -43 83.5 -33t23.5 82h215q0 -95 -22 -162t-59 -99t-85.5 -41t-101 6t-105.5 49q-60 42 -84.5 32t-24.5 -82z" />
    <glyph glyph-name="uni1EEF" unicode="&#x1eef;" horiz-adv-x="1181" 
d="M797 471v553h176q48 1 63 26t15 85v34h213v-34q0 -138 -45.5 -205t-157.5 -84v-846h-264v115q-95 -144 -305 -144q-169 0 -279 113q-109 115 -109 311v629h265v-596q0 -101 54 -156t148 -55q105 0 165.5 64.5t60.5 189.5zM446 1147h-213q0 93 22 160t59 100t85 42.5
t101 -5t106 -49.5q60 -43 83.5 -33t23.5 82h215q0 -95 -22 -162t-59 -99.5t-85.5 -41.5t-101 6t-105.5 49q-60 43 -84.5 33t-24.5 -82z" />
    <glyph glyph-name="uni1EF0" unicode="&#x1ef0;" horiz-adv-x="1337" 
d="M670 -467q-66 0 -114 47t-48 111q0 65 48 112t114 47q67 0 115.5 -47t48.5 -112t-48.5 -111.5t-115.5 -46.5zM668 -29q-241 0 -394 135t-153 363v965h280v-942q0 -116 67 -180t200 -64t199.5 64t66.5 180v942h178q48 1 63 25.5t15 84.5v35h213v-35q0 -133 -42 -199.5
t-144 -84.5v-791q0 -227 -154 -363q-153 -135 -395 -135z" />
    <glyph glyph-name="uni1EF1" unicode="&#x1ef1;" horiz-adv-x="1181" 
d="M543 -467q-66 0 -114 47t-48 111q0 65 48 112t114 47q67 0 115.5 -47t48.5 -112t-48.5 -111.5t-115.5 -46.5zM797 471v553h176q48 1 63 26t15 85v34h213v-34q0 -138 -45.5 -205t-157.5 -84v-846h-264v115q-95 -144 -305 -144q-169 0 -279 113q-109 115 -109 311v629h265
v-596q0 -101 54 -156t148 -55q105 0 165.5 64.5t60.5 189.5z" />
    <glyph glyph-name="Ygrave" unicode="&#x1ef2;" horiz-adv-x="1271" 
d="M629 1843l164 -280h-254l-228 280h318zM948 1434h320l-492 -875v-559h-280v559l-490 875h320l311 -598z" />
    <glyph glyph-name="ygrave" unicode="&#x1ef3;" horiz-adv-x="1075" 
d="M526 1434l164 -281h-254l-227 281h317zM561 336l227 688h283l-373 -1024q-79 -221 -211 -321t-329 -89v246q105 -1 168 45.5t100 151.5l-420 991h289z" />
    <glyph glyph-name="uni1EF4" unicode="&#x1ef4;" horiz-adv-x="1271" 
d="M637 -467q-66 0 -114 47t-48 111q0 65 48 112t114 47q67 0 115.5 -47t48.5 -112t-48.5 -111.5t-115.5 -46.5zM948 1434h320l-492 -875v-559h-280v559l-490 875h320l311 -598z" />
    <glyph glyph-name="uni1EF5" unicode="&#x1ef5;" horiz-adv-x="1075" 
d="M889 -467q-66 0 -114 47t-48 111q0 65 48 112t114 47q67 0 115.5 -47t48.5 -112t-48.5 -111.5t-115.5 -46.5zM561 336l227 688h283l-373 -1024q-79 -221 -211 -321t-329 -89v246q105 -1 168 45.5t100 151.5l-420 991h289z" />
    <glyph glyph-name="uni1EF6" unicode="&#x1ef6;" horiz-adv-x="1271" 
d="M725 1546h-174q0 58 7.5 89.5t21.5 45.5t43 29l18 12q25 15 25 43q0 25 -33 25q-29 0 -48.5 -12t-31.5 -47l-154 57q68 154 238 154q90 0 147.5 -45t57.5 -125q0 -108 -82 -152q-22 -10 -30.5 -25t-4.5 -49zM948 1434h320l-492 -875v-559h-280v559l-490 875h320l311 -598
z" />
    <glyph glyph-name="uni1EF7" unicode="&#x1ef7;" horiz-adv-x="1075" 
d="M639 1137h-174q0 58 7.5 89t21 45t43.5 29l18 13q25 15 25 43q0 24 -33 24q-29 0 -48.5 -12t-31.5 -47l-154 57q68 154 238 154q90 0 147.5 -45t57.5 -125q0 -108 -82 -152q-23 -10 -31 -24.5t-4 -48.5zM561 336l227 688h283l-373 -1024q-79 -221 -211 -321t-329 -89v246
q105 -1 168 45.5t100 151.5l-420 991h289z" />
    <glyph glyph-name="uni1EF8" unicode="&#x1ef8;" horiz-adv-x="1271" 
d="M948 1434h320l-492 -875v-559h-280v559l-490 875h320l311 -598zM500 1556h-213q0 93 22 160t58.5 100t84.5 42.5t101 -5t106 -49.5q60 -43 83.5 -33t23.5 82h215q0 -95 -22 -162t-59 -99t-85.5 -41t-101 6t-105.5 49q-60 42 -84 32t-24 -82z" />
    <glyph glyph-name="uni1EF9" unicode="&#x1ef9;" horiz-adv-x="1075" 
d="M561 336l227 688h283l-373 -1024q-79 -221 -211 -321t-329 -89v246q105 -1 168 45.5t100 151.5l-420 991h289zM403 1147h-213q0 93 22 160t59 100t85 42.5t101 -5t106 -49.5q60 -43 83.5 -33t23.5 82h215q0 -95 -22 -162t-59 -99.5t-85.5 -41.5t-101 6t-105.5 49
q-60 43 -84.5 33t-24.5 -82z" />
    <glyph glyph-name="endash" unicode="&#x2013;" horiz-adv-x="1320" 
d="M1188 492h-1055v253h1055v-253z" />
    <glyph glyph-name="emdash" unicode="&#x2014;" horiz-adv-x="1525" 
d="M1393 492h-1260v253h1260v-253z" />
    <glyph glyph-name="quoteleft" unicode="&#x2018;" horiz-adv-x="569" 
d="M387 864h-287l154 570h215z" />
    <glyph glyph-name="quoteright" unicode="&#x2019;" horiz-adv-x="569" 
d="M182 1436h287l-154 -570h-215z" />
    <glyph glyph-name="quotesinglbase" unicode="&#x201a;" horiz-adv-x="569" 
d="M182 283h287l-154 -570h-215z" />
    <glyph glyph-name="quotedblleft" unicode="&#x201c;" horiz-adv-x="948" 
d="M387 864h-287l154 570h215zM766 864h-287l154 570h215z" />
    <glyph glyph-name="quotedblright" unicode="&#x201d;" horiz-adv-x="948" 
d="M182 1436h287l-154 -570h-215zM561 1436h287l-154 -570h-215z" />
    <glyph glyph-name="quotedblbase" unicode="&#x201e;" horiz-adv-x="948" 
d="M182 283h287l-154 -570h-215zM561 283h287l-154 -570h-215z" />
    <glyph glyph-name="dagger" unicode="&#x2020;" horiz-adv-x="983" 
d="M625 1157h266v-254h-266v-903h-265v903h-268v254h268v277h265v-277z" />
    <glyph glyph-name="daggerdbl" unicode="&#x2021;" horiz-adv-x="983" 
d="M891 1157v-254h-266v-373h266v-254h-266v-276h-265v276h-268v254h268v373h-268v254h268v277h265v-277h266z" />
    <glyph glyph-name="bullet" unicode="&#x2022;" horiz-adv-x="737" 
d="M373 436q-121 0 -203 82t-82 203q0 115 82 197q81 81 203 81q115 0 196 -81q82 -82 82 -197q0 -121 -82 -203t-196 -82z" />
    <glyph glyph-name="ellipsis" unicode="&#x2026;" horiz-adv-x="1480" 
d="M397 25q-51 -51 -122.5 -51t-122.5 51t-51 122.5t51 122.5t122.5 51t122.5 -51t51 -122.5t-51 -122.5zM864 25q-51 -51 -123 -51t-123 51t-51 122.5t51 122.5t123 51t123 -51t51 -122.5t-51 -122.5zM1329 25q-51 -51 -123 -51t-123 51t-51 122.5t51 122.5t123 51t123 -51
t51 -122.5t-51 -122.5z" />
    <glyph glyph-name="perthousand" unicode="&#x2030;" horiz-adv-x="2332" 
d="M684 883q-102 -97 -246 -97q-146 0 -248 99q-98 98 -98 239q0 142 98 240q101 98 248 98q148 0 246 -98q98 -94 98 -240q0 -143 -98 -241zM360 145l-122 72l933 1038l125 -69zM344 1030q37 -37 92 -37t92 37q37 38 37 94t-37 93t-92 37t-92 -37q-35 -37 -35 -93t35 -94z
M1376 74q-99 -99 -246 -99q-146 0 -245 99t-99 239q0 141 99 240q98 98 245 98q148 0 246 -98q99 -99 99 -240q0 -140 -99 -239zM1896 -25q-145 0 -247 99q-99 99 -99 239q0 141 99 240q101 98 247 98t244 -98q101 -98 101 -240q0 -141 -101 -239q-99 -99 -244 -99z
M1257 313q0 56 -36 93.5t-91 37.5t-90.5 -37.5t-35.5 -93.5t35.5 -93.5t90.5 -37.5t91 38t36 93zM1894 182q56 0 92.5 38t36.5 93q0 56 -36.5 93.5t-92.5 37.5q-55 0 -91 -37.5t-36 -93.5t36 -93.5t91 -37.5z" />
    <glyph glyph-name="guilsinglleft" unicode="&#x2039;" horiz-adv-x="727" 
d="M354 1018h244l-225 -385l225 -383h-244l-225 383z" />
    <glyph glyph-name="guilsinglright" unicode="&#x203a;" horiz-adv-x="727" 
d="M129 1018h244l225 -385l-225 -383h-244l225 383z" />
    <glyph glyph-name="fraction" unicode="&#x2044;" horiz-adv-x="389" 
d="M696 1434l-819 -1434h-184l819 1434h184z" />
    <glyph glyph-name="Euro" unicode="&#x20ac;" horiz-adv-x="1251" 
d="M973 418l233 -133q-138 -314 -469 -314q-225 0 -372 148t-189 407h-143v160h129v31v49h-129v158h145q43 253 189 395.5t370 142.5q319 0 463 -299l-235 -135q-77 160 -228 160q-215 0 -274 -264h420v-158h-441v-49v-31h441v-160h-424q58 -278 278 -278q156 0 236 170z
" />
    <glyph glyph-name="uni20BD" unicode="&#x20bd;" horiz-adv-x="1230" 
d="M715 498h-254v-113h457v-180h-457v-205h-281v205h-153v180h153v113h-153v247h153v689h535q202 0 342 -140q141 -138 141 -336q0 -196 -139 -329q-137 -131 -344 -131zM715 1169h-254v-424h254q86 0 144.5 61t58.5 152q0 90 -58.5 150.5t-144.5 60.5z" />
    <glyph glyph-name="uni2116" unicode="&#x2116;" horiz-adv-x="2127" 
d="M1718 784q-146 0 -245 99q-99 102 -99 239q0 141 99 240q98 98 245 98q148 0 246 -98t98 -240q0 -141 -98 -239q-94 -99 -246 -99zM963 559v875h282v-1434h-215l-614 877v-877h-283v1434h215zM1630 1034q35 -35 88.5 -35t85.5 35q35 35 35 88t-35 88q-32 35 -85.5 35
t-88.5 -35q-32 -35 -32 -88t32 -88zM2040 426h-639v248h639v-248z" />
    <glyph glyph-name="trademark" unicode="&#x2122;" horiz-adv-x="968" 
d="M68 1434h350v-115h-113v-295h-125v295h-112v115zM682 1276l102 158h119v-410h-119v223l-98 -149h-10l-98 149v-223h-119v410h119z" />
    <glyph glyph-name="estimated" unicode="&#x212e;" horiz-adv-x="1617" 
d="M1567 717q0 -31 -31 -31h-1147q-31 0 -31 -31v-393q0 -24 15 -39q173 -182 477 -182q298 0 473 199q15 18 37 18h76q20 0 26 -13t-8 -26q-224 -239 -604 -239q-364 0 -580 210q-219 213 -219 527q0 313 211 524q213 213 547 213q332 0 545 -213t213 -524zM1260 778v393
q0 24 -15 39q-174 183 -436 183t-436 -183q-15 -15 -15 -39v-393q0 -30 31 -30h840q31 0 31 30z" />
    <glyph glyph-name="oneeighth" unicode="&#x215b;" horiz-adv-x="1650" 
d="M444 1434v-820h-219v598l-168 -47l-51 181l246 88h192zM240 0l819 1434h184l-819 -1434h-184zM1489 430q119 -70 119 -207q0 -116 -83.5 -184t-230.5 -68t-231 68t-84 184q0 136 121 207q-92 65 -92 172q0 111 80 178.5t206 67.5t206.5 -67.5t80.5 -178.5
q0 -107 -92 -172zM1294 662q-98 0 -98 -78q0 -80 98 -80q43 0 71 22t28 58t-27.5 57t-71.5 21zM1401 254q0 42 -29 67t-78 25q-37 4 -64 -13t-37.5 -43t-5.5 -55.5t27 -50.5q27 -24 80 -24q50 0 78.5 25.5t28.5 68.5z" />
    <glyph glyph-name="threeeighths" unicode="&#x215c;" horiz-adv-x="1816" 
d="M657 862q0 -133 -83.5 -204.5t-233.5 -71.5q-237 0 -320 182l185 106q35 -96 135 -96q98 0 98 84q0 37 -28.5 59.5t-75.5 22.5h-39l-82 119l141 172h-297v199h564v-162l-148 -176q88 -25 136 -85.5t48 -148.5zM406 0l819 1434h184l-819 -1434h-184zM1655 430
q119 -70 119 -207q0 -116 -83.5 -184t-230.5 -68t-231 68t-84 184q0 136 121 207q-92 65 -92 172q0 111 80 178.5t206 67.5t206.5 -67.5t80.5 -178.5q0 -107 -92 -172zM1460 662q-98 0 -98 -78q0 -80 98 -80q43 0 71 22t28 58t-27.5 57t-71.5 21zM1567 254q0 42 -29 67
t-78 25q-37 4 -64 -13t-37.5 -43t-5.5 -55.5t27 -50.5q27 -24 80 -24q50 0 78.5 25.5t28.5 68.5z" />
    <glyph glyph-name="fiveeighths" unicode="&#x215d;" horiz-adv-x="1787" 
d="M645 854q0 -127 -81.5 -197.5t-217.5 -70.5q-236 0 -319 182l180 102q38 -96 133 -96q104 0 104 84q0 39 -27 63.5t-77 24.5h-262l33 488h495v-199h-311l-8 -111h67q136 0 213.5 -69t77.5 -201zM377 0l819 1434h184l-819 -1434h-184zM1626 430q119 -70 119 -207
q0 -116 -83 -184t-230 -68t-231.5 68t-84.5 184q0 136 121 207q-92 65 -92 172q0 111 80.5 178.5t206.5 67.5t206 -67.5t80 -178.5q0 -107 -92 -172zM1432 662q-99 0 -99 -78q0 -80 99 -80q43 0 70.5 22t27.5 58t-27 57t-71 21zM1538 254q0 42 -28.5 67t-77.5 25
q-37 4 -64 -13t-37.5 -43t-5.5 -55.5t27 -50.5q27 -24 80 -24q50 0 78 25.5t28 68.5z" />
    <glyph glyph-name="seveneighths" unicode="&#x215e;" horiz-adv-x="1708" 
d="M571 1266l-258 -652h-227l248 621h-328v199h565v-168zM297 0l819 1434h184l-819 -1434h-184zM1546 430q119 -70 119 -207q0 -116 -83 -184t-230 -68t-231.5 68t-84.5 184q0 136 121 207q-92 65 -92 172q0 111 80.5 178.5t206.5 67.5t206 -67.5t80 -178.5q0 -107 -92 -172
zM1352 662q-99 0 -99 -78q0 -80 99 -80q43 0 70.5 22t27.5 58t-27 57t-71 21zM1458 254q0 42 -28.5 67t-77.5 25q-37 4 -64 -13t-37.5 -43t-5.5 -55.5t27 -50.5q27 -24 80 -24q50 0 78 25.5t28 68.5z" />
    <glyph glyph-name="arrowleft" unicode="&#x2190;" horiz-adv-x="1634" 
d="M569 844h973v-254h-973l488 -488h-350l-615 615l615 614h350z" />
    <glyph glyph-name="arrowup" unicode="&#x2191;" horiz-adv-x="1413" 
d="M707 1434l614 -615v-350l-481 481v-950h-265v952l-483 -483v350z" />
    <glyph glyph-name="arrowright" unicode="&#x2192;" horiz-adv-x="1634" 
d="M578 1331h350l614 -614l-614 -615h-350l487 488h-973v254h973z" />
    <glyph glyph-name="arrowdown" unicode="&#x2193;" horiz-adv-x="1413" 
d="M840 1434v-951l481 482v-351l-614 -614l-615 614v351l483 -484v953h265z" />
    <glyph glyph-name="arrowboth" unicode="&#x2194;" horiz-adv-x="2222" 
d="M1229 1276h344l557 -559l-557 -557h-344l426 430h-1092l430 -430h-344l-557 557l557 559h344l-430 -432h1096z" />
    <glyph glyph-name="arrowupdn" unicode="&#x2195;" horiz-adv-x="1300" 
d="M1208 1178v-344l-426 428v-1088l426 426v-344l-557 -559l-559 559v344l426 -424v1084l-426 -426v344l559 559z" />
    <glyph glyph-name="uni2196" unicode="&#x2196;" horiz-adv-x="1316" 
d="M518 1010l707 -707l-178 -180l-707 704v-686l-248 246v868h869l247 -245h-690z" />
    <glyph glyph-name="uni2197" unicode="&#x2197;" horiz-adv-x="1316" 
d="M111 1010l245 245h869v-868l-246 -246v688l-707 -706l-180 180l707 707h-688z" />
    <glyph glyph-name="uni2198" unicode="&#x2198;" horiz-adv-x="1316" 
d="M979 575v689l246 -246v-868h-869l-245 245h688l-707 707l180 180z" />
    <glyph glyph-name="uni2199" unicode="&#x2199;" horiz-adv-x="1316" 
d="M1047 1282l178 -180l-707 -707h690l-247 -245h-869v868l248 246v-686z" />
    <glyph glyph-name="partialdiff" unicode="&#x2202;" horiz-adv-x="1196" 
d="M492 1462q248 0 430 -209q182 -206 182 -536q0 -359 -162 -551q-165 -195 -410 -195q-206 0 -325 125t-119 314q0 213 125 344q126 135 338 135q158 0 283 -82q-20 191 -117.5 297.5t-257.5 107.5q-115 3 -236 -65v242q113 73 269 73zM543 221q120 0 195 95.5t96 265.5
q-104 73 -246 73q-105 0 -170.5 -63.5t-65.5 -173.5q0 -90 52 -143.5t139 -53.5z" />
    <glyph glyph-name="emptyset" unicode="&#x2205;" horiz-adv-x="1646" 
d="M1540 1475l-188 -238q213 -219 213 -520q0 -307 -217 -524q-218 -218 -525 -218q-213 0 -393 113l-102 -129h-219l188 236q-215 218 -215 522q0 307 217 524t524 217q216 0 394 -112l102 129h221zM266 717q0 -213 146 -379l690 866q-127 74 -279 74q-231 0 -395 -164
q-162 -162 -162 -397zM823 156q233 0 396 163q161 161 161 398q0 221 -143 379l-692 -867q128 -73 278 -73z" />
    <glyph glyph-name="product" unicode="&#x220f;" horiz-adv-x="1310" 
d="M397 -410h-264v1844h1045v-1844h-265v1590h-516v-1590z" />
    <glyph glyph-name="summation" unicode="&#x2211;" horiz-adv-x="1153" 
d="M1075 -410h-1003v226l436 716l-406 674v228h942v-254h-630l391 -648l-420 -688h690v-254z" />
    <glyph glyph-name="minus" unicode="&#x2212;" horiz-adv-x="1136" 
d="M1030 594h-921v248h921v-248z" />
    <glyph glyph-name="radical" unicode="&#x221a;" horiz-adv-x="1384" 
d="M807 0h-256l-250 408h-209v254h361l204 -355l447 1331h270z" />
    <glyph glyph-name="infinity" unicode="&#x221e;" horiz-adv-x="1654" 
d="M1178 1075q161 0 264 -100q106 -97 106 -258q0 -160 -106 -260q-105 -99 -264 -99q-175 0 -351 179q-176 -179 -350 -179q-160 0 -268 99q-105 102 -105 260q0 159 105 258q106 100 268 100q175 0 350 -178q175 178 351 178zM489 596q88 0 183 121q-95 121 -183 121
q-53 0 -86.5 -34.5t-33.5 -86.5t33.5 -86.5t86.5 -34.5zM1165 596q53 0 87 34.5t34 86.5t-34 86.5t-87 34.5q-87 0 -182 -121q95 -121 182 -121z" />
    <glyph glyph-name="integral" unicode="&#x222b;" horiz-adv-x="903" 
d="M0 -418v264q66 -37 135 -6t84 121l195 1149q36 213 165.5 296t323.5 32v-262q-48 21 -94.5 18t-83 -39t-45.5 -94l-197 -1151q-36 -212 -164.5 -295.5t-318.5 -32.5z" />
    <glyph glyph-name="approxequal" unicode="&#x2248;" horiz-adv-x="1165" 
d="M592 776q-79 34 -130.5 49t-88 11t-59.5 -18.5t-52 -45.5l-170 57q108 407 481 234q130 -65 195.5 -55.5t89.5 104.5l215 -104q-44 -192 -174 -255t-307 23zM307 322l-215 104q44 194 174 256t307 -25q98 -46 162 -55q62 -7 94.5 6t73.5 54l170 -58q-108 -403 -481 -233
q-130 65 -195.5 55.5t-89.5 -104.5z" />
    <glyph glyph-name="notequal" unicode="&#x2260;" horiz-adv-x="1075" 
d="M983 1053v-248h-324l-79 -176h403v-248h-514l-121 -268h-164l121 268h-213v248h324l80 176h-404v248h514l121 268h164l-121 -268h213z" />
    <glyph glyph-name="lessequal" unicode="&#x2264;" horiz-adv-x="1081" 
d="M92 995l897 342v-274l-592 -184l592 -183v-274l-897 340v233zM989 113h-897v247h897v-247z" />
    <glyph glyph-name="greaterequal" unicode="&#x2265;" horiz-adv-x="1081" 
d="M92 1063v274l897 -342v-233l-897 -340v274l592 183zM989 113h-897v247h897v-247z" />
    <glyph glyph-name="lozenge" unicode="&#x25ca;" horiz-adv-x="1136" 
d="M670 0h-201l-381 717l381 717h201l381 -717zM373 717l196 -369l195 369l-195 368z" />
    <glyph glyph-name="NULL" horiz-adv-x="0" 
 />
    <glyph glyph-name="CR" horiz-adv-x="681" 
 />
    <glyph glyph-name="i.loclTRK" horiz-adv-x="505" 
d="M252 1128q-66 0 -113 47t-47 113t47 112t113 46q63 0 110.5 -47.5t47.5 -110.5q0 -66 -47 -113t-111 -47zM385 0h-264v1024h264v-1024z" />
    <glyph glyph-name="f_f_j" horiz-adv-x="1708" 
d="M1022 1024h565v-1044q0 -226 -109 -328.5t-335 -89.5v254q93 -6 136.5 33t43.5 131v790h-301v-770h-264v770h-303v-770h-265v770h-147v254h147v10q0 219 122.5 330t359.5 98v-254q-217 15 -217 -174v-10h303v31q0 428 481 428q100 0 242 -29v-242q-160 17 -242 17
q-112 0 -164.5 -39.5t-52.5 -134.5v-31z" />
    <glyph glyph-name="f_j" horiz-adv-x="1140" 
d="M455 1024h565v-1044q0 -226 -110 -328.5t-337 -89.5v254q94 -6 138.5 33t44.5 131v790h-301v-770h-265v770h-147v254h147v10q0 428 482 428q102 0 239 -28v-242q-147 16 -239 16q-114 0 -165.5 -39t-51.5 -135v-10z" />
    <glyph glyph-name="uni0414.loclBGR" horiz-adv-x="1495" 
d="M924 1434l374 -1164h162v-544h-282v274h-861v-274h-280v544h162l374 1164h351zM748 1114l-254 -844h507z" />
    <glyph glyph-name="uni041B.loclBGR" horiz-adv-x="1325" 
d="M6 0l481 1434h351l483 -1434h-309l-348 1102l-351 -1102h-307z" />
    <glyph glyph-name="uni0424.loclBGR" horiz-adv-x="1759" 
d="M1014 -16v-189h-266v189q-312 35 -496 231q-184 199 -184 502q0 304 184 500q183 198 496 233v188h266v-188q312 -35 495 -233q185 -197 185 -500q0 -302 -185 -502q-185 -197 -495 -231zM748 244v948q-196 -31 -298 -152.5t-102 -322.5q0 -202 102 -323t298 -150z
M1014 1192v-948q196 31 296.5 151t100.5 322t-100.5 323t-296.5 152z" />
    <glyph glyph-name="uni0414.ss01" horiz-adv-x="1443" 
d="M1235 1434v-1164h154v-270h-1358v270h139q119 165 119 486v678h946zM473 270h479v899h-381v-417q0 -314 -98 -482z" />
    <glyph glyph-name="uni0426.ss01" horiz-adv-x="1413" 
d="M1204 1434v-1164h154v-270h-1225v1434h283v-1164h506v1164h282z" />
    <glyph glyph-name="uni0429.ss01" horiz-adv-x="2007" 
d="M1798 1434v-1164h154v-270h-1819v1434h283v-1164h409v1164h281v-1164h410v1164h282z" />
    <glyph glyph-name="uni0414.loclBGR.ss01" horiz-adv-x="1495" 
d="M924 1434l374 -1164h162v-270h-1423v270h162l374 1164h351zM748 1114l-254 -844h507z" />
    <glyph glyph-name="uni0432.loclBGR" horiz-adv-x="1159" 
d="M858 838q236 -94 236 -400q0 -220 -129.5 -343.5t-358.5 -123.5q-222 0 -354 135q-131 137 -131 363v487q0 228 127 367t338 139q179 0 289 -97.5t110 -258.5q0 -138 -127 -268zM586 1214q-92 0 -146.5 -70.5t-54.5 -187.5v-118l96 20q57 12 125 16q121 95 121 201
q0 63 -37.5 101t-103.5 38zM606 227q106 0 164.5 55.5t58.5 155.5q0 118 -93.5 165t-254.5 15l-96 -20v-129q0 -113 59 -177.5t162 -64.5z" />
    <glyph glyph-name="uni0433.loclBGR" horiz-adv-x="952" 
d="M682 348l229 -131q-114 -246 -430 -246q-173 0 -295 84q-116 85 -116 244q-1 63 20.5 114.5t53.5 84.5t79 59t88.5 39.5t91.5 24.5q89 24 136 49t47 63q0 40 -32 62t-83 22q-116 0 -168 -106l-223 123q57 104 160 161.5t231 57.5q164 0 274 -88q111 -85 111 -238
q0 -75 -28.5 -130.5t-74 -87t-100.5 -53.5t-110 -36t-100.5 -27.5t-74 -35t-28.5 -52.5q0 -94 141 -94q155 0 201 137z" />
    <glyph glyph-name="uni0434.loclBGR" 
d="M905 897v127h258v-975q0 -235 -157 -362q-155 -125 -377 -125q-167 0 -293 64t-193 186l226 129q77 -144 268 -144q126 0 197 66t71 186v111q-117 -156 -327 -156q-216 0 -365 152q-145 154 -145 372t147 371q148 154 363 154q210 0 327 -156zM905 528q0 123 -82 199
q-80 80 -205 80q-123 0 -206 -80q-80 -77 -80 -199q0 -123 80.5 -201.5t205.5 -78.5t206 78.5t81 201.5z" />
    <glyph glyph-name="uni0436.loclBGR" horiz-adv-x="1527" 
d="M1133 518l370 -518h-297l-313 457v-457h-258v457l-313 -457h-295l368 518l-348 506h295l293 -442v852h258v-852l293 442h297z" />
    <glyph glyph-name="uni0438.loclBGR" horiz-adv-x="1181" 
d="M797 471v553h264v-1024h-264v115q-95 -144 -305 -144q-169 0 -279 113q-109 115 -109 311v629h265v-596q0 -101 54 -156t148 -55q105 0 165.5 64.5t60.5 189.5z" />
    <glyph glyph-name="uni0439.loclBGR" horiz-adv-x="1181" 
d="M285 1384h594v-229h-594v229zM797 471v553h264v-1024h-264v115q-95 -144 -305 -144q-169 0 -279 113q-109 115 -109 311v629h265v-596q0 -101 54 -156t148 -55q105 0 165.5 64.5t60.5 189.5z" />
    <glyph glyph-name="uni043A.loclBGR" horiz-adv-x="1075" 
d="M641 518l424 -518h-307l-373 465v-465h-264v1434h264v-861l352 451h316z" />
    <glyph glyph-name="uni043B.loclBGR" horiz-adv-x="1091" 
d="M696 1024l389 -1024h-290l-250 717l-248 -717h-291l389 1024h301z" />
    <glyph glyph-name="uni043F.loclBGR" horiz-adv-x="1181" 
d="M690 1053q170 0 277 -113q110 -113 110 -311v-629h-264v596q0 101 -54.5 156t-148.5 55q-105 0 -165 -64.5t-60 -189.5v-553h-264v1024h264v-115q95 144 305 144z" />
    <glyph glyph-name="uni0442.loclBGR" horiz-adv-x="1744" 
d="M1253 1053q177 0 282 -115t105 -307v-631h-264v612q0 92 -45 143.5t-127 51.5q-91 0 -140.5 -60t-49.5 -172v-575h-264v612q0 92 -45 143.5t-127 51.5q-89 0 -141 -60.5t-52 -171.5v-575h-264v1024h264v-109q91 138 285 138q189 0 278 -148q103 148 305 148z" />
    <glyph glyph-name="uni0446.loclBGR" horiz-adv-x="1261" 
d="M1126 248h88v-522h-258v294q-82 34 -127 113q-104 -162 -337 -162q-169 0 -279 113q-109 115 -109 311v629h265v-594q0 -101 54 -157t148 -56q105 0 165.5 64.5t60.5 189.5v553h264v-711q0 -65 65 -65z" />
    <glyph glyph-name="uni0448.loclBGR" horiz-adv-x="1744" 
d="M1360 449v575h264v-1024h-264v109q-92 -138 -285 -138q-189 0 -278 148q-103 -148 -305 -148q-177 0 -282.5 115t-105.5 307v631h265v-612q0 -92 45 -143.5t127 -51.5q91 0 140.5 60t49.5 172v575h264v-612q0 -92 45 -143.5t127 -51.5q89 0 141 60.5t52 171.5z" />
    <glyph glyph-name="uni0449.loclBGR" horiz-adv-x="1824" 
d="M1690 248h88v-522h-258v294q-79 30 -121 103q-103 -152 -307 -152q-200 0 -295 150q-102 -150 -305 -150q-177 0 -282.5 115t-105.5 307v631h265v-610q0 -93 45.5 -145t126.5 -52q91 0 140.5 60t49.5 172v575h264v-610q0 -93 45.5 -145t126.5 -52q89 0 141 60.5t52 171.5
v575h264v-711q0 -65 66 -65z" />
    <glyph glyph-name="uni044C.loclBGR" horiz-adv-x="1009" 
d="M362 739h187q200 0 308 -97t108 -275q0 -168 -121 -283q-119 -113 -309 -113q-200 0 -315.5 111.5t-115.5 298.5v643h258v-285zM535 221q72 0 122 45t50 103q0 62 -42 99.5t-116 37.5h-187v-125q0 -70 47.5 -115t125.5 -45z" />
    <glyph glyph-name="uni044A.loclBGR" horiz-adv-x="1185" 
d="M537 739h188q200 0 307 -97t107 -275q0 -168 -121 -283q-119 -113 -309 -113q-200 0 -315 111.5t-115 298.5v395h-279v248h537v-285zM709 221q72 0 122 45t50 103q0 62 -41.5 99.5t-114.5 37.5h-188v-125q0 -70 47.5 -115t124.5 -45z" />
    <glyph glyph-name="uni044E.loclBGR" horiz-adv-x="1660" 
d="M1053 1053q227 0 385 -158q157 -157 157 -383q0 -228 -157 -385q-156 -156 -385 -156q-192 0 -336 117q-145 118 -185 301h-147v-389h-264v1434h264v-797h150q41 183 184 299q144 117 334 117zM854 309q80 -80 199 -80q118 0 198 80t80 203t-80 203t-198 80
q-119 0 -199 -80q-78 -81 -78 -203t78 -203z" />
    <glyph glyph-name="zero.sinf" horiz-adv-x="837" 
d="M688 -238q-100 -118 -270 -118q-171 0 -271 118t-100 320q0 201 100 319q101 119 271 119q169 0 270 -119q103 -121 103 -319q0 -199 -103 -320zM418 -137q72 0 109.5 56.5t37.5 162.5t-37.5 162.5t-109.5 56.5q-69 0 -107.5 -57t-38.5 -162t38.5 -162t107.5 -57z" />
    <glyph glyph-name="one.sinf" horiz-adv-x="542" 
d="M6 403l246 89h192v-820h-219v598l-168 -47z" />
    <glyph glyph-name="two.sinf" horiz-adv-x="714" 
d="M662 -328h-613v144l307 305q72 69 72 125q0 32 -23 52.5t-61 20.5q-84 0 -127 -104l-178 102q86 203 307 203q131 0 217 -73t86 -185q0 -125 -139 -264l-133 -127h285v-199z" />
    <glyph glyph-name="three.sinf" horiz-adv-x="706" 
d="M621 330l-148 -176q88 -25 136 -85.5t48 -148.5q0 -133 -83.5 -204.5t-233.5 -71.5q-237 0 -320 182l185 106q35 -96 135 -96q98 0 98 84q0 37 -28.5 59.5t-75.5 22.5h-39l-82 119l141 172h-297v199h564v-162z" />
    <glyph glyph-name="four.sinf" horiz-adv-x="731" 
d="M614 4h84v-201h-84v-131h-208v131h-383v201l264 488h233l-252 -488h138v141h208v-141z" />
    <glyph glyph-name="five.sinf" horiz-adv-x="688" 
d="M289 182h67q136 0 213.5 -69t77.5 -201q0 -127 -81.5 -197.5t-217.5 -70.5q-236 0 -319 182l180 102q38 -96 133 -96q104 0 104 84q0 39 -27 63.5t-77 24.5h-262l33 488h495v-199h-311z" />
    <glyph glyph-name="six.sinf" horiz-adv-x="696" 
d="M553 492l-174 -267q129 -7 207 -86.5t78 -201.5q0 -129 -87.5 -211t-228.5 -82q-140 0 -227.5 81.5t-87.5 211.5q0 84 39 149l256 406h225zM348 -172q51 0 82 29t31 80q0 49 -30.5 76.5t-82.5 27.5q-51 0 -80.5 -27.5t-29.5 -76.5q0 -51 30 -80t80 -29z" />
    <glyph glyph-name="seven.sinf" horiz-adv-x="604" 
d="M6 293v199h565v-168l-258 -652h-227l248 621h-328z" />
    <glyph glyph-name="eight.sinf" horiz-adv-x="714" 
d="M553 102q119 -70 119 -206q0 -116 -83.5 -184t-230.5 -68t-231 68t-84 184q0 135 121 206q-92 65 -92 172q0 111 80 178.5t206 67.5t206.5 -67.5t80.5 -178.5q0 -107 -92 -172zM358 334q-98 0 -98 -78q0 -80 98 -80q43 0 71 22t28 58t-27.5 57t-71.5 21zM465 -74
q0 42 -29 67t-78 25q-37 4 -64 -12.5t-37 -42.5t-5 -55.5t27 -48.5q27 -27 79 -27q50 0 78.5 25.5t28.5 68.5z" />
    <glyph glyph-name="nine.sinf" horiz-adv-x="696" 
d="M664 227q0 -84 -39 -149l-254 -406h-228l174 267q-128 7 -206 87.5t-78 200.5q0 130 87.5 211.5t227.5 81.5q141 0 228.5 -82t87.5 -211zM238 227q0 -49 29.5 -76.5t80.5 -27.5q52 0 82.5 27.5t30.5 76.5q0 51 -31 80t-82 29q-50 0 -80 -29t-30 -80z" />
    <glyph glyph-name="zero.tf" horiz-adv-x="1183" 
d="M592 -29q-272 0 -422 203q-152 208 -152 543t152 540q150 205 422 205q270 0 420 -205q153 -203 153 -540t-153 -543q-150 -203 -420 -203zM299 717q0 -227 75.5 -348t217.5 -121t216.5 120t74.5 349t-74.5 350t-216.5 121t-217.5 -121t-75.5 -350z" />
    <glyph glyph-name="one.tf" horiz-adv-x="1183" 
d="M756 1434v-1164h389v-270h-1086v270h414v865l-270 -76l-70 241l377 134h246z" />
    <glyph glyph-name="two.tf" horiz-adv-x="1183" 
d="M1102 0h-1032v211l522 473q108 98 156.5 166t48.5 137q0 88 -58 144.5t-161 56.5q-173 0 -267 -187l-237 140q74 156 206.5 238.5t299.5 82.5q221 0 358 -131q139 -130 139 -327q0 -131 -70.5 -245.5t-222.5 -248.5l-270 -238h588v-272z" />
    <glyph glyph-name="three.tf" horiz-adv-x="1183" 
d="M1059 1200l-281 -332q162 -44 254 -151.5t92 -265.5q0 -228 -149 -353q-151 -127 -381 -127q-199 0 -340.5 85.5t-208.5 250.5l242 139q67 -198 293 -198q126 0 194 54t68 149t-68 148.5t-194 53.5h-58l-112 166l295 350h-615v265h969v-234z" />
    <glyph glyph-name="four.tf" horiz-adv-x="1183" 
d="M995 506h154v-262h-154v-244h-284v244h-693v262l476 928h303l-475 -928h389v330h284v-330z" />
    <glyph glyph-name="five.tf" horiz-adv-x="1183" 
d="M426 911h180q229 0 373 -123q145 -124 145 -346q0 -219 -151 -346q-149 -125 -373 -125q-200 0 -342 86t-209 250l242 139q67 -198 301 -198q122 0 186 51t64 143q0 90 -65 142.5t-185 52.5h-461l57 797h869v-265h-611z" />
    <glyph glyph-name="six.tf" horiz-adv-x="1183" 
d="M922 1434l-326 -451q248 -3 395 -141q148 -139 148 -365t-152 -366t-401 -140q-252 0 -404 140q-149 137 -149 366q0 192 108 324l455 633h326zM315 477q0 -112 73 -175.5t198 -63.5t198.5 63.5t73.5 175.5t-73.5 177t-198.5 65q-126 0 -198.5 -64t-72.5 -178z" />
    <glyph glyph-name="seven.tf" horiz-adv-x="1183" 
d="M51 1163v271h1065v-240l-543 -1194h-297l525 1163h-750z" />
    <glyph glyph-name="eight.tf" horiz-adv-x="1183" 
d="M934 745q211 -120 211 -346q0 -197 -148 -312.5t-405 -115.5t-405 115.5t-148 312.5q0 226 211 346q-162 107 -162 297q0 199 141 310q143 110 363 110q217 0 360 -110q144 -111 144 -310q0 -190 -162 -297zM756 1151q-57 45 -164 45t-164 -45q-59 -47 -59 -123
q0 -78 59 -125q57 -45 164 -45t164 45q59 47 59 125q0 76 -59 123zM389 289q68 -51 203 -51q133 0 201 51q71 53 71 147q0 93 -71 146q-68 51 -201 51q-135 0 -203 -51q-70 -52 -70 -146q0 -95 70 -147z" />
    <glyph glyph-name="nine.tf" horiz-adv-x="1183" 
d="M1149 956q0 -176 -92 -303l-469 -653h-326l326 451q-251 3 -398 141t-147 364q0 229 150 367q151 139 403 139t403 -139q150 -138 150 -367zM596 717q128 0 200 62t72 177t-72 177.5t-200 62.5q-125 0 -197.5 -64t-72.5 -176t72.5 -175.5t197.5 -63.5z" />
    <glyph glyph-name="zero.dnom" horiz-adv-x="837" 
d="M688 90q-101 -119 -270 -119q-170 0 -271 119q-100 118 -100 320q0 201 100 319q101 119 271 119q169 0 270 -119q103 -121 103 -319q0 -199 -103 -320zM418 190q72 0 109.5 57t37.5 163t-37.5 162.5t-109.5 56.5q-69 0 -107.5 -57t-38.5 -162t38.5 -162.5t107.5 -57.5z
" />
    <glyph glyph-name="one.dnom" horiz-adv-x="546" 
d="M6 731l246 88h192v-819h-219v598l-168 -47z" />
    <glyph glyph-name="two.dnom" horiz-adv-x="729" 
d="M662 0h-613v143l307 306q72 69 72 124q0 33 -23 53.5t-61 20.5q-84 0 -127 -104l-178 102q86 203 307 203q131 0 217 -73t86 -185q0 -125 -139 -264l-133 -127h285v-199z" />
    <glyph glyph-name="three.dnom" horiz-adv-x="712" 
d="M621 657l-148 -176q88 -25 136 -85.5t48 -147.5q0 -133 -83.5 -205t-233.5 -72q-237 0 -320 183l185 106q35 -96 135 -96q98 0 98 84q0 37 -28.5 59.5t-75.5 22.5h-39l-82 119l141 172h-297v198h564v-162z" />
    <glyph glyph-name="four.dnom" horiz-adv-x="731" 
d="M614 332h84v-201h-84v-131h-208v131h-383v201l264 487h233l-252 -487h138v141h208v-141z" />
    <glyph glyph-name="five.dnom" horiz-adv-x="684" 
d="M287 510h67q136 0 213.5 -69t77.5 -201q0 -127 -81.5 -198t-217.5 -71q-236 0 -319 183l180 102q38 -96 133 -96q104 0 104 84q0 39 -27 63.5t-77 24.5h-262l33 487h495v-198h-311z" />
    <glyph glyph-name="six.dnom" horiz-adv-x="696" 
d="M553 819l-174 -266q129 -7 207 -87t78 -202q0 -129 -87.5 -211t-228.5 -82q-140 0 -227.5 81.5t-87.5 211.5q0 85 39 150l256 405h225zM348 156q52 0 82.5 29t30.5 79q0 49 -30.5 77t-82.5 28q-51 0 -80.5 -28t-29.5 -77q0 -50 30 -79t80 -29z" />
    <glyph glyph-name="seven.dnom" horiz-adv-x="604" 
d="M6 621v198h565v-168l-258 -651h-227l248 621h-328z" />
    <glyph glyph-name="eight.dnom" horiz-adv-x="714" 
d="M553 430q119 -70 119 -207q0 -116 -83.5 -184t-230.5 -68t-231 68t-84 184q0 136 121 207q-92 65 -92 172q0 111 80 178.5t206 67.5t206.5 -67.5t80.5 -178.5q0 -107 -92 -172zM358 662q-98 0 -98 -78q0 -80 98 -80q43 0 71 22t28 58t-27.5 57t-71.5 21zM465 254
q0 42 -29 67t-78 25q-37 4 -64 -13t-37 -43t-5 -55.5t27 -50.5q27 -24 79 -24q50 0 78.5 25.5t28.5 68.5z" />
    <glyph glyph-name="nine.dnom" horiz-adv-x="696" 
d="M664 555q0 -84 -39 -149l-254 -406h-228l174 266q-128 7 -206 88t-78 201q0 130 87.5 211.5t227.5 81.5q141 0 228.5 -82t87.5 -211zM238 555q0 -49 29.5 -76.5t80.5 -27.5q52 0 82.5 27.5t30.5 76.5q0 51 -31 80t-82 29q-50 0 -80 -29t-30 -80z" />
    <glyph glyph-name="zero.numr" horiz-adv-x="837" 
d="M688 705q-101 -119 -270 -119q-170 0 -271 119q-100 118 -100 319t100 319q101 119 271 119q169 0 270 -119q103 -121 103 -319t-103 -319zM418 805q72 0 109.5 56.5t37.5 162.5t-37.5 162.5t-109.5 56.5q-69 0 -107.5 -57t-38.5 -162t38.5 -162t107.5 -57z" />
    <glyph glyph-name="one.numr" horiz-adv-x="546" 
d="M6 1346l246 88h192v-820h-219v598l-168 -47z" />
    <glyph glyph-name="two.numr" horiz-adv-x="729" 
d="M662 614h-613v144l307 305q72 69 72 125q0 33 -23 53.5t-61 20.5q-84 0 -127 -105l-178 103q85 202 307 202q131 0 217 -73t86 -185q0 -125 -139 -264l-133 -127h285v-199z" />
    <glyph glyph-name="three.numr" horiz-adv-x="712" 
d="M621 1272l-148 -176q88 -25 136 -85.5t48 -148.5q0 -133 -83.5 -204.5t-233.5 -71.5q-237 0 -320 182l185 106q35 -96 135 -96q98 0 98 84q0 37 -28.5 59.5t-75.5 22.5h-39l-82 119l141 172h-297v199h564v-162z" />
    <glyph glyph-name="four.numr" horiz-adv-x="731" 
d="M614 946h84v-201h-84v-131h-208v131h-383v201l264 488h233l-252 -488h138v141h208v-141z" />
    <glyph glyph-name="five.numr" horiz-adv-x="684" 
d="M287 1124h67q136 0 213.5 -69t77.5 -201q0 -127 -81.5 -197.5t-217.5 -70.5q-236 0 -319 182l180 102q38 -96 133 -96q104 0 104 84q0 39 -27 63.5t-77 24.5h-262l33 488h495v-199h-311z" />
    <glyph glyph-name="six.numr" horiz-adv-x="696" 
d="M553 1434l-174 -267q129 -7 207 -86.5t78 -201.5q0 -129 -87.5 -211t-228.5 -82q-140 0 -227.5 81.5t-87.5 211.5q0 84 39 149l256 406h225zM348 770q51 0 82 29t31 80q0 49 -30.5 76.5t-82.5 27.5q-51 0 -80.5 -27.5t-29.5 -76.5q0 -51 30 -80t80 -29z" />
    <glyph glyph-name="seven.numr" horiz-adv-x="604" 
d="M6 1235v199h565v-168l-258 -652h-227l248 621h-328z" />
    <glyph glyph-name="eight.numr" horiz-adv-x="714" 
d="M553 1044q119 -70 119 -206q0 -116 -83.5 -184t-230.5 -68t-231 68t-84 184q0 135 121 206q-92 65 -92 173q0 111 80 178t206 67t206.5 -67t80.5 -178q0 -108 -92 -173zM358 1276q-98 0 -98 -78q0 -80 98 -80q43 0 71 22t28 58t-27.5 57t-71.5 21zM465 868q0 42 -29 67.5
t-78 25.5q-37 4 -64 -13t-37 -43t-5 -55.5t27 -50.5q28 -25 79 -25q50 0 78.5 25.5t28.5 68.5z" />
    <glyph glyph-name="nine.numr" horiz-adv-x="696" 
d="M664 1169q0 -84 -39 -149l-254 -406h-228l174 267q-128 7 -206 87.5t-78 200.5q0 130 87.5 211.5t227.5 81.5q141 0 228.5 -82t87.5 -211zM238 1169q0 -49 29.5 -76.5t80.5 -27.5q52 0 82.5 27.5t30.5 76.5q0 51 -31 80t-82 29q-50 0 -80 -29t-30 -80z" />
    <glyph glyph-name="zero.sups" horiz-adv-x="837" 
d="M688 1032q-101 -119 -270 -119q-170 0 -271 119q-100 118 -100 320q0 201 100 319q101 119 271 119q169 0 270 -119q103 -121 103 -319q0 -199 -103 -320zM418 1133q72 0 109.5 56.5t37.5 162.5t-37.5 162.5t-109.5 56.5q-69 0 -107.5 -57t-38.5 -162t38.5 -162
t107.5 -57z" />
    <glyph glyph-name="one.sups" horiz-adv-x="546" 
d="M6 1673l246 88h192v-819h-219v598l-168 -47z" />
    <glyph glyph-name="two.sups" horiz-adv-x="729" 
d="M662 942h-613v143l307 306q72 69 72 125q0 32 -23 52.5t-61 20.5q-84 0 -127 -104l-178 102q86 203 307 203q131 0 217 -73t86 -185q0 -125 -139 -264l-133 -127h285v-199z" />
    <glyph glyph-name="three.sups" horiz-adv-x="712" 
d="M621 1599l-148 -176q88 -25 136 -85.5t48 -147.5q0 -133 -83.5 -205t-233.5 -72q-237 0 -320 183l185 106q35 -96 135 -96q98 0 98 84q0 37 -28.5 59.5t-75.5 22.5h-39l-82 119l141 172h-297v198h564v-162z" />
    <glyph glyph-name="four.sups" horiz-adv-x="731" 
d="M614 1274h84v-201h-84v-131h-208v131h-383v201l264 487h233l-252 -487h138v141h208v-141z" />
    <glyph glyph-name="five.sups" horiz-adv-x="684" 
d="M287 1452h67q136 0 213.5 -69t77.5 -201q0 -127 -81.5 -198t-217.5 -71q-236 0 -319 183l180 102q38 -96 133 -96q104 0 104 84q0 39 -27 63.5t-77 24.5h-262l33 487h495v-198h-311z" />
    <glyph glyph-name="six.sups" horiz-adv-x="696" 
d="M553 1761l-174 -266q129 -7 207 -87t78 -202q0 -129 -87.5 -211t-228.5 -82q-140 0 -227.5 81.5t-87.5 211.5q0 85 39 150l256 405h225zM348 1098q52 0 82.5 29t30.5 79q0 49 -30.5 77t-82.5 28q-51 0 -80.5 -28t-29.5 -77q0 -50 30 -79t80 -29z" />
    <glyph glyph-name="seven.sups" horiz-adv-x="604" 
d="M6 1563v198h565v-168l-258 -651h-227l248 621h-328z" />
    <glyph glyph-name="eight.sups" horiz-adv-x="714" 
d="M553 1372q119 -70 119 -207q0 -116 -83.5 -184t-230.5 -68t-231 68t-84 184q0 136 121 207q-92 65 -92 172q0 111 80 178.5t206 67.5t206.5 -67.5t80.5 -178.5q0 -107 -92 -172zM358 1604q-98 0 -98 -78q0 -80 98 -80q43 0 71 22t28 58t-27.5 57t-71.5 21zM465 1196
q0 42 -29 67t-78 25q-37 4 -64 -13t-37 -43t-5 -55.5t27 -50.5q27 -24 79 -24q50 0 78.5 25.5t28.5 68.5z" />
    <glyph glyph-name="nine.sups" horiz-adv-x="696" 
d="M664 1497q0 -84 -39 -149l-254 -406h-228l174 266q-128 7 -206 88t-78 201q0 130 87.5 211.5t227.5 81.5q141 0 228.5 -82t87.5 -211zM238 1497q0 -49 29.5 -76.5t80.5 -27.5q52 0 82.5 27.5t30.5 76.5q0 51 -31 80t-82 29q-50 0 -80 -29t-30 -80z" />
    <glyph glyph-name="cent.tf" horiz-adv-x="1183" 
d="M883 573l229 -131q-68 -123 -191.5 -194.5t-271.5 -71.5q-73 0 -125 14l-61 -190h-119l72 225q-142 63 -224.5 195t-82.5 297q0 229 153 385q155 155 387 155q60 0 99 -8l59 185h119l-70 -217q169 -67 252 -224l-227 -133q-35 72 -107 107l-168 -527q8 -2 41 -2
q79 0 142 36t94 99zM373 717q0 -162 125 -238l168 518h-19q-119 0 -196.5 -78.5t-77.5 -201.5z" />
    <glyph glyph-name="dollar.tf" horiz-adv-x="1183" 
d="M1133 399q0 -179 -118 -291.5t-321 -132.5v-180h-137v178q-188 12 -318.5 101.5t-187.5 242.5l244 142q74 -191 262 -215v356l-12 4q-69 24 -160 64q-61 30 -131 82q-139 103 -139 301q0 183 125 290t317 119v178h137v-182q294 -41 408 -301l-238 -139q-53 137 -170 166
v-346l97 -37q26 -8 86 -37q60 -24 86 -45q94 -65 122 -125q48 -90 48 -193zM395 1053q0 -52 36 -89t126 -75v303q-162 -15 -162 -139zM694 547v-303q156 21 156 143q0 53 -34 87t-122 73z" />
    <glyph glyph-name="Euro.tf" horiz-adv-x="1183" 
d="M913 424l232 -133q-58 -149 -173.5 -234.5t-266.5 -85.5q-214 0 -352 147.5t-175 407.5h-135v160h123v31v49h-123v158h139q39 253 175 395.5t348 142.5q147 0 261 -80t171 -221l-236 -135q-27 74 -79 118t-117 44q-187 0 -240 -264h356v-158h-372v-49v-31h372v-160h-358
q46 -278 242 -278q68 0 123 47.5t85 128.5z" />
    <glyph glyph-name="florin.tf" horiz-adv-x="1183" 
d="M1137 1444v-264q-94 36 -162.5 5.5t-93.5 -120.5l-60 -217h250v-254h-319l-185 -678q-59 -213 -194.5 -294.5t-325.5 -33.5v262q204 -67 254 115l172 629h-244v254h312l73 268q59 211 196 293.5t327 34.5z" />
    <glyph glyph-name="uni20BD.tf" horiz-adv-x="1183" 
d="M653 498h-196v-113h399v-180h-399v-205h-283v205h-154v180h154v113h-154v247h154v689h479q202 0 342 -140q142 -139 142 -336q0 -195 -140 -329q-137 -131 -344 -131zM653 1169h-196v-424h196q86 0 144.5 61t58.5 152q0 90 -58.5 150.5t-144.5 60.5z" />
    <glyph glyph-name="sterling.tf" horiz-adv-x="1183" 
d="M494 561v-289h669v-272h-1102v272h150v289h-123v248h123v205q0 217 133 332q134 116 318 116q155 0 271.5 -79t172.5 -220l-242 -139q-53 164 -194 164q-78 0 -127 -48t-49 -136v-195h430v-248h-430z" />
    <glyph glyph-name="yen.tf" horiz-adv-x="1183" 
d="M860 1434h320l-392 -693h275v-163h-330v-93h330v-166h-330v-319h-282v319h-330v166h330v93h-330v163h274l-391 693h320l268 -516z" />
    <glyph glyph-name="brevecy" horiz-adv-x="737" 
d="M666 1155h-594v229h594v-229z" />
    </font>
</defs>
</svg>
